<svg width="245" height="55" viewBox="0 0 245 55" fill="none" xmlns="http://www.w3.org/2000/svg">
<path fill-rule="evenodd" clip-rule="evenodd" d="M10.7802 31.47L8.4002 35.95V51H0.700195V2H8.4002V23.35L18.4802 2H26.1802L15.4702 23.84L26.1802 51H18.2702L10.7802 31.47ZM37.0502 39.73C37.0502 41.5033 37.4119 42.7517 38.1352 43.475C38.8585 44.1983 39.8269 44.56 41.0402 44.56C42.2535 44.56 43.2219 44.1983 43.9452 43.475C44.6685 42.7517 45.0302 41.5033 45.0302 39.73V13.27C45.0302 11.4967 44.6685 10.2483 43.9452 9.525C43.2219 8.80167 42.2535 8.44 41.0402 8.44C39.8269 8.44 38.8585 8.80167 38.1352 9.525C37.4119 10.2483 37.0502 11.4967 37.0502 13.27V39.73ZM29.3502 13.76C29.3502 9.79332 30.3535 6.74835 32.3602 4.625C34.3669 2.50166 37.2602 1.44 41.0402 1.44C44.8202 1.44 47.7135 2.50166 49.7202 4.625C51.7269 6.74835 52.7302 9.79332 52.7302 13.76V39.24C52.7302 43.2067 51.7269 46.2517 49.7202 48.375C47.7135 50.4983 44.8202 51.56 41.0402 51.56C37.2602 51.56 34.3669 50.4983 32.3602 48.375C30.3535 46.2517 29.3502 43.2067 29.3502 39.24V13.76ZM65.3502 15.51V51H58.4202V2H68.0802L75.9902 31.33V2H82.8502V51H74.9402L65.3502 15.51ZM88.1902 13.76C88.1902 9.79332 89.1352 6.74835 91.0252 4.625C92.9152 2.50166 95.7502 1.44 99.5302 1.44C103.31 1.44 106.145 2.50166 108.035 4.625C109.925 6.74835 110.87 9.79332 110.87 13.76V15.3H103.59V13.27C103.59 11.4967 103.252 10.2483 102.575 9.525C101.899 8.80167 100.954 8.44 99.7402 8.44C98.5269 8.44 97.5819 8.80167 96.9052 9.525C96.2285 10.2483 95.8902 11.4967 95.8902 13.27C95.8902 14.95 96.2635 16.4317 97.0102 17.715C97.7569 18.9983 98.6902 20.2117 99.8102 21.355C100.93 22.4983 102.132 23.6417 103.415 24.785C104.699 25.9283 105.9 27.1767 107.02 28.53C108.14 29.8833 109.074 31.4233 109.82 33.15C110.567 34.8767 110.94 36.9067 110.94 39.24C110.94 43.2067 109.972 46.2517 108.035 48.375C106.099 50.4983 103.24 51.56 99.4602 51.56C95.6802 51.56 92.8219 50.4983 90.8852 48.375C88.9485 46.2517 87.9802 43.2067 87.9802 39.24V36.23H95.2602V39.73C95.2602 41.5033 95.6219 42.74 96.3452 43.44C97.0685 44.14 98.0369 44.49 99.2502 44.49C100.464 44.49 101.432 44.14 102.155 43.44C102.879 42.74 103.24 41.5033 103.24 39.73C103.24 38.05 102.867 36.5683 102.12 35.285C101.374 34.0017 100.44 32.7883 99.3202 31.645C98.2002 30.5017 96.9985 29.3583 95.7152 28.215C94.4319 27.0717 93.2302 25.8233 92.1102 24.47C90.9902 23.1167 90.0569 21.5767 89.3102 19.85C88.5635 18.1233 88.1902 16.0933 88.1902 13.76ZM113.9 2H137.7V9H129.65V51H121.95V9H113.9V2ZM157.95 51C157.857 50.6733 157.764 50.37 157.67 50.09C157.577 49.81 157.495 49.46 157.425 49.04C157.355 48.62 157.309 48.0833 157.285 47.43C157.262 46.7767 157.25 45.96 157.25 44.98V37.28C157.25 34.9933 156.854 33.3833 156.06 32.45C155.267 31.5167 153.984 31.05 152.21 31.05H149.55V51H141.85V2H153.47C157.484 2 160.389 2.93333 162.185 4.8C163.982 6.66668 164.88 9.48998 164.88 13.27V17.12C164.88 22.16 163.2 25.4733 159.84 27.06C161.8 27.8533 163.142 29.1483 163.865 30.945C164.589 32.7417 164.95 34.9233 164.95 37.49V45.05C164.95 46.2633 164.997 47.325 165.09 48.235C165.184 49.145 165.417 50.0667 165.79 51H157.95ZM149.55 9V24.05H152.56C154.007 24.05 155.139 23.6767 155.955 22.93C156.772 22.1833 157.18 20.83 157.18 18.87V14.04C157.18 12.2667 156.865 10.9833 156.235 10.19C155.605 9.39667 154.614 9 153.26 9H149.55ZM178.13 2V39.8C178.13 41.5733 178.492 42.81 179.215 43.51C179.939 44.21 180.907 44.56 182.12 44.56C183.334 44.56 184.302 44.21 185.025 43.51C185.749 42.81 186.11 41.5733 186.11 39.8V2H193.39V39.31C193.39 43.2767 192.422 46.3217 190.485 48.445C188.549 50.5683 185.69 51.63 181.91 51.63C178.13 51.63 175.272 50.5683 173.335 48.445C171.399 46.3217 170.43 43.2767 170.43 39.31V2H178.13ZM220.47 2H244.27V9H236.22V51H228.52V9H220.47V2Z" fill="#1A1A1A"/>
<path fill-rule="evenodd" clip-rule="evenodd" d="M197.048 27.4644L217.048 2.46442V52.4644L197.048 27.4644Z" fill="#1A1A1A"/>
</svg>
