<svg width="539" height="594" viewBox="0 0 539 594" fill="none" xmlns="http://www.w3.org/2000/svg">
<mask id="mask0_0:402" style="mask-type:alpha" maskUnits="userSpaceOnUse" x="0" y="64" width="539" height="530">
<path fill-rule="evenodd" clip-rule="evenodd" d="M0.235168 64.5498H538.777V594H0.235168V64.5498Z" fill="white"/>
</mask>
<g mask="url(#mask0_0:402)">
<path fill-rule="evenodd" clip-rule="evenodd" d="M473.158 570.035C459.222 578.428 443.007 584.489 425.135 588.426C413.272 591.016 400.631 592.726 387.473 593.451C339.088 596.404 283.45 587.338 229.832 569.206C217.814 565.166 205.899 560.659 194.191 555.685C107.004 519.008 31.214 459.122 9.97422 389.704C-28.8273 262.99 54.4742 171.866 150.934 88.2541C190.046 54.3222 241.022 59.1918 293.759 87.8396C306.088 94.5224 318.47 102.5 330.851 111.566C377.319 145.705 423.322 195.386 462.175 250.609C538.431 359.036 582.569 504.295 473.158 570.035" fill="#FDE6D6"/>
</g>
<path fill-rule="evenodd" clip-rule="evenodd" d="M432.508 161.562C423.51 143.42 420.215 120.46 438.258 113.068C458.41 104.815 490.519 118.16 499.864 148.44C505.837 167.789 503.786 194.8 487.281 205.181C473.159 214.071 443.548 183.812 432.508 161.562" fill="#E8E5EA"/>
<path fill-rule="evenodd" clip-rule="evenodd" d="M146.825 69.2548C146.809 69.2548 146.794 69.2548 146.778 69.2548C143.312 69.0165 139.836 68.887 136.459 68.8663C136.096 68.8663 135.811 68.5762 135.811 68.2187C135.816 67.8613 136.101 67.5712 136.459 67.5712H136.464C139.873 67.5919 143.375 67.7214 146.871 67.9597C147.229 67.9856 147.493 68.2964 147.472 68.6539C147.446 68.9958 147.161 69.2548 146.825 69.2548V69.2548ZM115.773 70.2495C115.457 70.2495 115.177 70.0163 115.131 69.6952C115.079 69.3429 115.322 69.0113 115.68 68.9595C119.026 68.4726 122.518 68.1099 126.046 67.8768C126.45 67.8095 126.714 68.1255 126.735 68.4829C126.761 68.8352 126.491 69.146 126.134 69.1668C122.637 69.3999 119.182 69.7625 115.866 70.2391C115.835 70.2443 115.804 70.2495 115.773 70.2495V70.2495ZM167.412 71.8191C167.37 71.8191 167.334 71.814 167.298 71.8088C163.894 71.1975 160.454 70.6794 157.072 70.2546C156.714 70.208 156.46 69.8868 156.507 69.5294C156.554 69.1771 156.849 68.9388 157.232 68.9699C160.641 69.3947 164.101 69.9231 167.526 70.5344C167.873 70.5966 168.111 70.9333 168.049 71.2856C167.992 71.5964 167.717 71.8191 167.412 71.8191V71.8191ZM95.5798 74.9274C95.3052 74.9274 95.0514 74.7513 94.9633 74.4715C94.8545 74.1296 95.0462 73.767 95.3881 73.6634C98.6673 72.6273 102.045 71.7052 105.433 70.9126C105.775 70.8297 106.132 71.0472 106.21 71.3943C106.293 71.7414 106.075 72.0885 105.728 72.1714C102.371 72.9588 99.0196 73.8758 95.7766 74.8963C95.7093 74.917 95.6471 74.9274 95.5798 74.9274V74.9274ZM187.657 76.3572C187.6 76.3572 187.543 76.352 187.486 76.3365C184.119 75.4247 180.741 74.5906 177.441 73.8498C177.089 73.7721 176.871 73.425 176.949 73.0728C177.027 72.7257 177.353 72.5029 177.721 72.5858C181.042 73.3318 184.44 74.171 187.828 75.0828C188.17 75.1812 188.377 75.5335 188.279 75.8806C188.201 76.1655 187.942 76.3572 187.657 76.3572V76.3572ZM207.483 82.522C207.41 82.522 207.337 82.5116 207.265 82.4857C204.022 81.3408 200.712 80.2477 197.438 79.2272C197.096 79.1184 196.904 78.7558 197.013 78.419C197.116 78.0771 197.484 77.8803 197.821 77.9942C201.111 79.0148 204.436 80.1182 207.695 81.2631C208.032 81.3823 208.213 81.7553 208.094 82.092C208.001 82.3562 207.752 82.522 207.483 82.522V82.522ZM76.3965 82.7239C76.1634 82.7239 75.9355 82.5944 75.8215 82.3665C75.6609 82.0505 75.7853 81.6619 76.1064 81.4962C79.1577 79.942 82.3489 78.4863 85.5867 77.1757C85.9078 77.0306 86.2912 77.2016 86.4259 77.5331C86.5606 77.8647 86.4 78.2429 86.0684 78.3775C82.8669 79.6727 79.712 81.1128 76.6918 82.6514C76.5986 82.698 76.495 82.7239 76.3965 82.7239V82.7239ZM226.837 90.0284C226.754 90.0284 226.671 90.0129 226.583 89.9766C223.412 88.6297 220.185 87.3139 216.983 86.0757C216.652 85.9462 216.486 85.568 216.616 85.2365C216.75 84.9049 217.123 84.7495 217.455 84.8687C220.667 86.112 223.91 87.433 227.09 88.7851C227.422 88.925 227.572 89.3031 227.438 89.6347C227.329 89.8782 227.09 90.0284 226.837 90.0284V90.0284ZM58.8867 93.7635C58.6899 93.7635 58.5034 93.6806 58.3739 93.5148C58.1563 93.2299 58.2081 92.8206 58.493 92.6031C61.2127 90.5102 64.0879 88.5001 67.0356 86.6404C67.3412 86.4539 67.7401 86.5419 67.9318 86.8424C68.1235 87.148 68.0302 87.5469 67.7297 87.7334C64.8132 89.5777 61.9743 91.5618 59.2804 93.634C59.1665 93.722 59.0266 93.7635 58.8867 93.7635V93.7635ZM245.704 98.6901C245.611 98.6901 245.512 98.6694 245.419 98.6228C242.3 97.0842 239.156 95.587 236.063 94.1676C235.742 94.0173 235.597 93.6288 235.747 93.3076C235.897 92.9812 236.281 92.8362 236.607 92.9864C239.705 94.411 242.865 95.9186 245.994 97.4572C246.315 97.6177 246.445 98.0063 246.289 98.3275C246.175 98.5554 245.942 98.6901 245.704 98.6901V98.6901ZM43.7546 107.891C43.5992 107.891 43.449 107.839 43.3246 107.725C43.0553 107.492 43.0345 107.082 43.2728 106.813C45.5678 104.228 48.0129 101.715 50.5462 99.3532C50.8052 99.1045 51.2145 99.12 51.4579 99.3791C51.7066 99.6433 51.6911 100.053 51.4269 100.296C48.9299 102.638 46.5106 105.119 44.2364 107.673C44.1121 107.818 43.9359 107.891 43.7546 107.891V107.891ZM264.079 108.357C263.97 108.357 263.867 108.331 263.763 108.274C260.753 106.59 257.686 104.927 254.656 103.332C254.34 103.166 254.215 102.772 254.381 102.456C254.552 102.14 254.946 102.016 255.257 102.182C258.303 103.788 261.375 105.456 264.395 107.145C264.706 107.321 264.82 107.714 264.644 108.025C264.524 108.238 264.307 108.357 264.079 108.357V108.357ZM281.951 118.935C281.837 118.935 281.718 118.904 281.61 118.837C278.657 116.993 275.678 115.185 272.756 113.454C272.445 113.273 272.342 112.874 272.528 112.568C272.704 112.252 273.103 112.154 273.414 112.341C276.341 114.071 279.335 115.889 282.299 117.739C282.599 117.93 282.692 118.329 282.501 118.635C282.381 118.826 282.169 118.935 281.951 118.935V118.935ZM31.4407 124.551C31.3215 124.551 31.2076 124.52 31.0988 124.452C30.7983 124.266 30.6999 123.867 30.8864 123.561C32.7099 120.593 34.6733 117.682 36.7092 114.915C36.9268 114.63 37.3309 114.573 37.6158 114.781C37.9059 114.993 37.9629 115.397 37.7505 115.682C35.7353 118.422 33.7978 121.298 31.9898 124.24C31.8707 124.442 31.6583 124.551 31.4407 124.551V124.551ZM299.306 130.343C299.176 130.343 299.047 130.301 298.938 130.229C296.068 128.245 293.172 126.297 290.339 124.432C290.038 124.235 289.955 123.836 290.152 123.536C290.349 123.245 290.748 123.157 291.048 123.349C293.892 125.219 296.793 127.172 299.669 129.156C299.969 129.364 300.042 129.768 299.84 130.058C299.71 130.239 299.508 130.343 299.306 130.343V130.343ZM316.096 142.491C315.961 142.491 315.826 142.449 315.707 142.361C312.93 140.263 310.133 138.186 307.387 136.196C307.097 135.984 307.035 135.58 307.242 135.295C307.455 135 307.859 134.938 308.149 135.15C310.9 137.139 313.707 139.222 316.489 141.33C316.774 141.543 316.826 141.952 316.614 142.237C316.484 142.403 316.293 142.491 316.096 142.491V142.491ZM22.0072 143.004C21.9243 143.004 21.8414 142.988 21.7585 142.957C21.427 142.817 21.2716 142.434 21.4114 142.107C22.7687 138.875 24.2451 135.694 25.7941 132.658C25.9547 132.337 26.3432 132.208 26.6644 132.373C26.9856 132.534 27.1099 132.928 26.9493 133.244C25.4107 136.259 23.9498 139.408 22.6029 142.61C22.4993 142.859 22.261 143.004 22.0072 143.004V143.004ZM332.368 155.4C332.222 155.4 332.077 155.354 331.953 155.255C329.342 153.085 326.633 150.883 323.898 148.712C323.618 148.49 323.571 148.086 323.794 147.806C324.022 147.526 324.426 147.485 324.7 147.697C327.446 149.873 330.166 152.08 332.782 154.255C333.057 154.483 333.098 154.893 332.87 155.167C332.741 155.323 332.554 155.4 332.368 155.4V155.4ZM15.2363 162.601C15.1741 162.601 15.1171 162.596 15.0601 162.58C14.7182 162.482 14.511 162.125 14.6094 161.778C15.5523 158.405 16.5884 155.058 17.697 151.836C17.8161 151.5 18.1891 151.308 18.5207 151.432C18.8574 151.551 19.0387 151.919 18.9248 152.256C17.8213 155.457 16.7904 158.778 15.8579 162.13C15.7802 162.415 15.516 162.601 15.2363 162.601V162.601ZM348.085 169.056C347.924 169.056 347.774 168.999 347.65 168.885C345.096 166.564 342.48 164.238 339.874 161.974C339.605 161.746 339.579 161.332 339.812 161.063C340.045 160.788 340.454 160.773 340.724 161C343.34 163.269 345.956 165.601 348.52 167.927C348.784 168.17 348.805 168.579 348.562 168.844C348.432 168.984 348.261 169.056 348.085 169.056V169.056ZM10.7708 182.862C10.7345 182.862 10.6982 182.857 10.662 182.852C10.3097 182.795 10.0714 182.458 10.1336 182.106C10.7086 178.661 11.3717 175.226 12.1021 171.89C12.1798 171.543 12.5218 171.325 12.874 171.392C13.2211 171.47 13.4439 171.817 13.3662 172.164C12.6409 175.48 11.983 178.899 11.408 182.318C11.3562 182.634 11.0816 182.862 10.7708 182.862V182.862ZM363.124 183.375C362.958 183.375 362.792 183.313 362.668 183.183C360.218 180.743 357.715 178.308 355.239 175.951C354.98 175.703 354.97 175.293 355.218 175.034C355.462 174.78 355.876 174.765 356.13 175.014C358.617 177.381 361.124 179.821 363.58 182.266C363.834 182.52 363.834 182.929 363.58 183.183C363.455 183.313 363.29 183.375 363.124 183.375V183.375ZM377.463 198.388C377.287 198.388 377.116 198.315 376.987 198.175C374.661 195.621 372.283 193.067 369.915 190.591C369.672 190.337 369.682 189.923 369.936 189.679C370.2 189.436 370.604 189.436 370.853 189.7C373.231 192.182 375.614 194.741 377.945 197.305C378.189 197.569 378.168 197.978 377.898 198.217C377.779 198.331 377.624 198.388 377.463 198.388V198.388ZM8.2686 203.454C8.25305 203.454 8.23751 203.454 8.21679 203.454C7.85934 203.423 7.59514 203.112 7.62104 202.76C7.8956 199.268 8.24269 195.782 8.65195 192.404C8.69339 192.052 8.9835 191.814 9.37203 191.84C9.72948 191.881 9.97814 192.202 9.9367 192.56C9.53262 195.922 9.18553 199.388 8.91097 202.858C8.89025 203.195 8.60532 203.454 8.2686 203.454V203.454ZM391.036 214.1C390.849 214.1 390.663 214.017 390.533 213.862C388.378 211.23 386.135 208.562 383.861 205.93C383.628 205.661 383.659 205.252 383.934 205.019C384.203 204.78 384.612 204.817 384.845 205.086C387.125 207.723 389.378 210.401 391.538 213.043C391.766 213.318 391.725 213.727 391.445 213.955C391.326 214.053 391.181 214.1 391.036 214.1V214.1ZM7.42942 224.191V224.191C7.07197 224.186 6.78186 223.896 6.78186 223.539C6.7974 220.063 6.87511 216.566 7.0098 213.142C7.02534 212.789 7.2999 212.494 7.68326 212.52C8.04071 212.535 8.32045 212.836 8.30491 213.193C8.17022 216.602 8.09251 220.083 8.07697 223.544C8.07697 223.901 7.78687 224.191 7.42942 224.191V224.191ZM403.733 230.527C403.531 230.527 403.334 230.439 403.21 230.263C401.174 227.471 399.081 224.678 396.988 221.974C396.771 221.689 396.823 221.285 397.107 221.063C397.387 220.845 397.791 220.892 398.014 221.182C400.117 223.896 402.215 226.699 404.256 229.501C404.464 229.792 404.402 230.196 404.117 230.403C403.997 230.491 403.863 230.527 403.733 230.527V230.527ZM8.01469 244.944C7.67278 244.944 7.38786 244.675 7.36713 244.333C7.15992 240.821 7.0045 237.319 6.91125 233.941C6.90089 233.584 7.18064 233.283 7.53809 233.273H7.55881C7.9059 233.273 8.196 233.553 8.20637 233.905C8.29961 237.272 8.45503 240.753 8.66224 244.255C8.68297 244.613 8.4084 244.918 8.05095 244.944H8.01469ZM415.415 247.685C415.203 247.685 414.99 247.581 414.866 247.384C413.043 244.509 411.126 241.598 409.173 238.733C408.976 238.438 409.048 238.034 409.344 237.832C409.634 237.63 410.043 237.707 410.245 238.003C412.203 240.878 414.13 243.805 415.959 246.69C416.151 246.996 416.063 247.395 415.762 247.586C415.653 247.654 415.534 247.685 415.415 247.685V247.685ZM425.9 265.599C425.672 265.599 425.45 265.474 425.331 265.257C423.714 262.252 422.01 259.216 420.259 256.227C420.083 255.922 420.186 255.528 420.492 255.342C420.792 255.155 421.197 255.264 421.378 255.575C423.134 258.574 424.849 261.625 426.47 264.646C426.641 264.956 426.522 265.355 426.206 265.521C426.113 265.573 426.004 265.599 425.9 265.599V265.599ZM9.84349 265.625C9.51712 265.625 9.23738 265.381 9.20112 265.05C8.79186 261.563 8.43959 258.077 8.13912 254.71C8.10804 254.352 8.37224 254.036 8.72452 254.005C9.14413 253.969 9.39797 254.238 9.42906 254.59C9.72434 257.952 10.0818 261.423 10.4859 264.905C10.5273 265.257 10.2735 265.578 9.91602 265.62C9.89011 265.625 9.86939 265.625 9.84349 265.625V265.625ZM434.961 284.264C434.712 284.264 434.474 284.119 434.365 283.875C432.998 280.721 431.542 277.555 430.045 274.473C429.889 274.152 430.024 273.763 430.345 273.608C430.661 273.447 431.05 273.582 431.21 273.903C432.718 277.011 434.179 280.187 435.557 283.357C435.697 283.689 435.546 284.067 435.22 284.212C435.137 284.243 435.049 284.264 434.961 284.264V284.264ZM12.76 286.181C12.4492 286.181 12.1746 285.953 12.1228 285.637C11.5374 282.171 11.0038 278.716 10.5324 275.364C10.4806 275.012 10.7292 274.68 11.0815 274.634C11.4131 274.577 11.7602 274.825 11.812 275.183C12.2834 278.524 12.817 281.969 13.3972 285.424C13.4593 285.777 13.221 286.108 12.8688 286.17C12.8325 286.176 12.7962 286.181 12.76 286.181V286.181ZM442.276 303.67C442.001 303.67 441.747 303.499 441.659 303.224C440.628 300.002 439.484 296.723 438.251 293.464C438.126 293.128 438.292 292.755 438.629 292.63C438.96 292.485 439.333 292.667 439.463 293.003C440.706 296.283 441.856 299.588 442.892 302.825C443.001 303.167 442.815 303.535 442.473 303.644C442.405 303.665 442.338 303.67 442.276 303.67V303.67ZM16.6712 306.566C16.3707 306.566 16.1065 306.359 16.0392 306.053C15.3139 302.696 14.6146 299.267 13.967 295.868C13.8945 295.516 14.1276 295.179 14.4799 295.112C14.8218 295.019 15.1689 295.272 15.2362 295.625C15.8838 299.013 16.578 302.432 17.3032 305.784C17.3809 306.131 17.1582 306.478 16.8059 306.55C16.7645 306.561 16.7178 306.566 16.6712 306.566V306.566ZM447.456 323.744C447.156 323.744 446.881 323.527 446.824 323.216C446.182 319.916 445.415 316.528 444.54 313.145C444.452 312.798 444.659 312.446 445.006 312.358C445.343 312.269 445.7 312.477 445.793 312.824C446.674 316.227 447.451 319.641 448.093 322.972C448.161 323.319 447.933 323.661 447.581 323.729C447.539 323.739 447.498 323.744 447.456 323.744V323.744ZM21.4942 326.754C21.2041 326.754 20.9451 326.557 20.8674 326.267C19.9919 322.92 19.1475 319.558 18.3445 316.191C18.2616 315.839 18.474 315.492 18.8211 315.409C19.163 315.326 19.5205 315.538 19.6034 315.885C20.4115 319.247 21.2456 322.599 22.1211 325.941C22.2091 326.288 22.0071 326.64 21.66 326.733C21.603 326.744 21.546 326.754 21.4942 326.754V326.754ZM450.021 344.3C449.679 344.3 449.394 344.031 449.373 343.684C449.197 340.301 448.891 336.84 448.456 333.406C448.409 333.053 448.663 332.727 449.016 332.686C449.404 332.654 449.694 332.893 449.741 333.245C450.176 336.711 450.492 340.202 450.668 343.616C450.689 343.974 450.414 344.279 450.057 344.3H450.021ZM27.3223 347.201C27.0477 347.201 26.7939 347.025 26.7058 346.745L26.5504 346.243C25.5402 342.953 24.5456 339.601 23.6079 336.286C23.5095 335.944 23.7063 335.587 24.0534 335.488C24.4109 335.395 24.758 335.592 24.8512 335.934C25.7941 339.239 26.7835 342.585 27.7937 345.87L27.9388 346.362C28.0475 346.704 27.8559 347.061 27.514 347.17C27.4518 347.191 27.3845 347.201 27.3223 347.201V347.201ZM449.684 365.022C449.668 365.022 449.658 365.022 449.642 365.022C449.285 364.996 449.015 364.685 449.041 364.328C449.28 360.94 449.445 357.469 449.523 354.008C449.528 353.651 449.782 353.392 450.186 353.376C450.539 353.381 450.823 353.677 450.818 354.039C450.741 357.521 450.575 361.012 450.331 364.421C450.311 364.763 450.02 365.022 449.684 365.022V365.022ZM33.7409 366.928C33.4767 366.928 33.2228 366.762 33.1296 366.493C32.0106 363.224 30.9124 359.94 29.84 356.645C29.7312 356.308 29.9177 355.941 30.2596 355.832C30.6015 355.723 30.9642 355.909 31.0729 356.246C32.1453 359.531 33.2384 362.81 34.3573 366.073C34.4713 366.41 34.29 366.778 33.9533 366.897C33.8807 366.918 33.8134 366.928 33.7409 366.928V366.928ZM447.14 385.588C447.104 385.588 447.068 385.583 447.026 385.578C446.674 385.511 446.441 385.174 446.503 384.827C447.099 381.49 447.617 378.056 448.047 374.611C448.088 374.253 448.43 374 448.767 374.046C449.124 374.093 449.373 374.414 449.332 374.771C448.902 378.242 448.378 381.698 447.777 385.049C447.72 385.365 447.451 385.588 447.14 385.588V385.588ZM40.7603 386.427C40.5013 386.427 40.2526 386.267 40.1594 386.008C38.9368 382.78 37.7401 379.537 36.5641 376.284C36.4398 375.947 36.6159 375.574 36.9527 375.45C37.2946 375.336 37.6572 375.507 37.7815 375.844C38.9523 379.092 40.149 382.33 41.3664 385.547C41.4907 385.884 41.325 386.256 40.9934 386.381C40.9157 386.412 40.838 386.427 40.7603 386.427V386.427ZM48.4274 405.719C48.1735 405.719 47.9352 405.569 47.8316 405.321C46.5002 402.135 45.1999 398.928 43.9152 395.695C43.7805 395.364 43.9463 394.986 44.2778 394.856C44.599 394.727 44.9824 394.882 45.1171 395.213C46.3966 398.441 47.7021 401.642 49.0231 404.823C49.163 405.155 49.0076 405.533 48.676 405.668C48.5931 405.704 48.5102 405.719 48.4274 405.719V405.719ZM442.328 405.735C442.271 405.735 442.208 405.73 442.141 405.709C441.799 405.605 441.608 405.243 441.711 404.901C442.695 401.627 443.602 398.27 444.395 394.934C444.483 394.587 444.814 394.374 445.177 394.452C445.524 394.54 445.741 394.887 445.659 395.234C444.856 398.596 443.944 401.974 442.949 405.274C442.866 405.554 442.607 405.735 442.328 405.735V405.735ZM56.7368 424.747C56.4933 424.747 56.2602 424.607 56.1514 424.369C54.7164 421.235 53.297 418.07 51.9035 414.884C51.7636 414.557 51.9138 414.174 52.2402 414.029C52.5666 413.894 52.9499 414.034 53.095 414.366C54.4833 417.546 55.8924 420.701 57.3274 423.83C57.4776 424.157 57.3326 424.54 57.0114 424.69C56.9233 424.732 56.8301 424.747 56.7368 424.747V424.747ZM435.168 425.177C435.08 425.177 434.992 425.162 434.904 425.12C434.578 424.98 434.433 424.597 434.572 424.271C435.95 421.142 437.246 417.919 438.437 414.692C438.561 414.36 438.929 414.184 439.271 414.309C439.603 414.433 439.774 414.806 439.649 415.143C438.453 418.396 437.142 421.639 435.759 424.789C435.65 425.032 435.417 425.177 435.168 425.177V425.177ZM65.7353 443.454C65.497 443.454 65.269 443.324 65.155 443.102C63.6061 440.024 62.0727 436.916 60.56 433.777C60.4046 433.456 60.5393 433.067 60.8656 432.912C61.1972 432.761 61.5754 432.891 61.7308 433.212C63.2383 436.341 64.7613 439.444 66.3103 442.516C66.4709 442.837 66.3465 443.226 66.0254 443.386C65.9321 443.433 65.8337 443.454 65.7353 443.454V443.454ZM425.698 443.62C425.584 443.62 425.47 443.594 425.367 443.531C425.056 443.345 424.958 442.951 425.139 442.646C426.895 439.677 428.579 436.631 430.138 433.585C430.304 433.264 430.687 433.14 431.008 433.305C431.33 433.471 431.454 433.86 431.293 434.176C429.718 437.242 428.024 440.314 426.253 443.304C426.134 443.506 425.916 443.62 425.698 443.62V443.62ZM414.136 460.819C414.001 460.819 413.861 460.777 413.742 460.689C413.462 460.477 413.405 460.067 413.618 459.783C415.695 457.037 417.715 454.214 419.622 451.38C419.824 451.085 420.223 451.002 420.523 451.204C420.818 451.406 420.896 451.81 420.694 452.105C418.777 454.96 416.747 457.804 414.654 460.565C414.524 460.731 414.332 460.819 414.136 460.819V460.819ZM75.459 461.798C75.231 461.798 75.0135 461.679 74.8943 461.466C73.2417 458.503 71.5736 455.431 69.9314 452.333C69.7657 452.017 69.8796 451.623 70.1956 451.458C70.5168 451.302 70.9054 451.411 71.0711 451.727C72.7133 454.814 74.3763 457.881 76.0236 460.834C76.1998 461.145 76.0858 461.544 75.775 461.715C75.6765 461.772 75.5678 461.798 75.459 461.798V461.798ZM400.78 476.66C400.625 476.66 400.464 476.603 400.34 476.484C400.081 476.246 400.065 475.832 400.309 475.573C402.671 473.039 404.982 470.434 407.173 467.838C407.406 467.574 407.815 467.532 408.085 467.76C408.359 467.994 408.396 468.403 408.163 468.677C405.956 471.288 403.635 473.904 401.257 476.458C401.127 476.593 400.957 476.66 400.78 476.66V476.66ZM85.9752 479.696C85.7628 479.696 85.5504 479.587 85.4261 479.391C83.6285 476.484 81.8205 473.49 80.054 470.491C79.8779 470.18 79.9763 469.781 80.2871 469.599C80.5928 469.418 80.9917 469.527 81.173 469.833C82.9343 472.827 84.7319 475.811 86.5296 478.707C86.716 479.012 86.6228 479.411 86.3172 479.598C86.2135 479.665 86.0944 479.696 85.9752 479.696V479.696ZM385.959 491.16C385.778 491.16 385.602 491.088 385.472 490.943C385.234 490.679 385.26 490.269 385.524 490.031C388.125 487.7 390.663 485.327 393.082 482.965C393.336 482.716 393.751 482.727 393.994 482.975C394.248 483.234 394.243 483.644 393.984 483.892C391.554 486.265 389 488.653 386.389 490.995C386.265 491.103 386.109 491.16 385.959 491.16V491.16ZM97.3722 497.051C97.165 497.051 96.9629 496.952 96.8386 496.771C94.8804 493.958 92.9222 491.057 91.021 488.151C90.8189 487.855 90.907 487.451 91.2075 487.254C91.5027 487.063 91.9016 487.146 92.1037 487.446C93.9997 490.342 95.9528 493.227 97.9006 496.03C98.1078 496.325 98.0353 496.729 97.74 496.932C97.626 497.009 97.5017 497.051 97.3722 497.051V497.051ZM369.972 504.386C369.775 504.386 369.584 504.298 369.459 504.132C369.242 503.847 369.294 503.443 369.579 503.226C372.329 501.112 375.06 498.947 377.681 496.781C377.955 496.548 378.359 496.59 378.587 496.864C378.815 497.144 378.779 497.548 378.505 497.776C375.868 499.957 373.132 502.133 370.366 504.251C370.247 504.345 370.107 504.386 369.972 504.386V504.386ZM109.738 513.716C109.551 513.716 109.36 513.633 109.23 513.473C107.137 510.825 105.008 508.049 102.9 505.215C102.687 504.93 102.749 504.521 103.034 504.308C103.324 504.101 103.729 504.158 103.946 504.443C106.039 507.266 108.158 510.033 110.246 512.665C110.468 512.944 110.422 513.354 110.142 513.576C110.023 513.67 109.883 513.716 109.738 513.716V513.716ZM353.1 516.462C352.892 516.462 352.69 516.358 352.561 516.172C352.364 515.876 352.442 515.472 352.742 515.275C355.622 513.343 358.487 511.359 361.259 509.38C361.544 509.168 361.953 509.24 362.16 509.53C362.367 509.82 362.305 510.23 362.015 510.437C359.233 512.421 356.358 514.41 353.462 516.353C353.353 516.426 353.224 516.462 353.1 516.462V516.462ZM335.553 527.538C335.331 527.538 335.118 527.424 334.994 527.222C334.813 526.916 334.911 526.517 335.222 526.331C338.237 524.533 341.21 522.715 344.055 520.917C344.36 520.736 344.759 520.819 344.951 521.119C345.137 521.425 345.049 521.824 344.749 522.015C341.889 523.813 338.91 525.642 335.885 527.444C335.781 527.506 335.667 527.538 335.553 527.538V527.538ZM123.217 529.496C123.046 529.496 122.87 529.423 122.746 529.289C120.441 526.797 118.115 524.175 115.835 521.508C115.607 521.238 115.633 520.824 115.908 520.596C116.182 520.368 116.592 520.394 116.82 520.668C119.089 523.326 121.404 525.926 123.694 528.408C123.937 528.672 123.922 529.081 123.658 529.325C123.533 529.439 123.378 529.496 123.217 529.496V529.496ZM317.489 537.764C317.256 537.764 317.033 537.639 316.919 537.427C316.748 537.111 316.868 536.717 317.178 536.546C320.235 534.899 323.26 533.231 326.255 531.537C326.565 531.361 326.959 531.47 327.14 531.78C327.311 532.091 327.203 532.485 326.892 532.666C323.892 534.36 320.857 536.033 317.795 537.686C317.696 537.738 317.593 537.764 317.489 537.764V537.764ZM137.971 544.084C137.816 544.084 137.661 544.027 137.541 543.918C134.998 541.639 132.449 539.235 129.973 536.774C129.714 536.52 129.714 536.111 129.968 535.857C130.216 535.604 130.626 535.604 130.879 535.852C133.345 538.303 135.878 540.686 138.407 542.955C138.671 543.193 138.691 543.602 138.453 543.871C138.324 544.011 138.148 544.084 137.971 544.084V544.084ZM299.047 547.28C298.809 547.28 298.575 547.151 298.467 546.923C298.306 546.602 298.441 546.208 298.757 546.052C301.865 544.509 304.953 542.955 308.014 541.375C308.325 541.214 308.714 541.338 308.885 541.654C309.045 541.97 308.926 542.364 308.605 542.53C305.538 544.11 302.45 545.669 299.332 547.213C299.239 547.259 299.14 547.28 299.047 547.28V547.28ZM280.309 556.227C280.066 556.227 279.833 556.087 279.724 555.849C279.574 555.528 279.713 555.139 280.04 554.994C283.184 553.538 286.319 552.067 289.427 550.585C289.743 550.44 290.142 550.57 290.292 550.891C290.447 551.212 290.307 551.601 289.986 551.756C286.868 553.243 283.734 554.709 280.579 556.165C280.496 556.206 280.402 556.227 280.309 556.227V556.227ZM154.171 557.03C154.046 557.03 153.917 556.988 153.803 556.911C151.031 554.963 148.229 552.86 145.478 550.653C145.198 550.43 145.151 550.021 145.374 549.741C145.607 549.466 146.011 549.42 146.286 549.643C149.016 551.829 151.793 553.922 154.544 555.849C154.839 556.056 154.911 556.46 154.704 556.755C154.58 556.931 154.378 557.03 154.171 557.03V557.03ZM261.411 564.697C261.162 564.697 260.924 564.552 260.815 564.308C260.675 563.982 260.826 563.599 261.152 563.454C264.322 562.07 267.482 560.677 270.622 559.268C270.948 559.123 271.332 559.268 271.477 559.594C271.622 559.921 271.477 560.304 271.155 560.449C268.006 561.858 264.846 563.257 261.67 564.64C261.587 564.676 261.499 564.697 261.411 564.697V564.697ZM171.971 567.645C171.872 567.645 171.774 567.624 171.68 567.577C168.64 566.08 165.562 564.407 162.532 562.588C162.226 562.407 162.128 562.008 162.309 561.703C162.49 561.397 162.889 561.293 163.2 561.48C166.2 563.272 169.246 564.935 172.255 566.417C172.577 566.577 172.706 566.961 172.551 567.282C172.437 567.515 172.204 567.645 171.971 567.645V567.645ZM242.28 572.732C242.015 572.732 241.767 572.566 241.674 572.302C241.549 571.965 241.725 571.592 242.062 571.473C243.564 570.929 245.103 570.328 246.636 569.68C248.299 568.976 249.967 568.271 251.63 567.562C251.957 567.427 252.34 567.572 252.48 567.898C252.62 568.23 252.47 568.613 252.143 568.748C250.475 569.463 248.807 570.173 247.139 570.877C245.585 571.53 244.025 572.141 242.502 572.69C242.43 572.716 242.352 572.732 242.28 572.732V572.732ZM191.32 574.964C191.268 574.964 191.211 574.954 191.159 574.944C187.869 574.073 184.533 572.996 181.238 571.742C180.902 571.618 180.731 571.24 180.86 570.908C180.99 570.571 181.363 570.406 181.694 570.535C184.953 571.768 188.248 572.835 191.485 573.69C191.832 573.783 192.04 574.136 191.946 574.478C191.869 574.773 191.61 574.964 191.32 574.964V574.964ZM222.123 577.43C221.791 577.43 221.511 577.182 221.475 576.85C221.439 576.493 221.698 576.177 222.05 576.135C225.433 575.778 228.847 575.198 232.193 574.41C232.556 574.322 232.893 574.55 232.97 574.892C233.058 575.239 232.841 575.591 232.494 575.669C229.09 576.472 225.625 577.057 222.19 577.425C222.164 577.43 222.143 577.43 222.123 577.43V577.43ZM211.762 577.876H211.751C208.317 577.809 204.825 577.518 201.364 577.021C201.012 576.969 200.769 576.643 200.821 576.291C200.867 575.933 201.162 575.679 201.551 575.742C204.955 576.234 208.394 576.513 211.777 576.581C212.129 576.591 212.42 576.886 212.409 577.244C212.404 577.596 212.114 577.876 211.762 577.876V577.876Z" fill="#D8D5DB"/>
<mask id="mask1_0:402" style="mask-type:alpha" maskUnits="userSpaceOnUse" x="48" y="85" width="378" height="509">
<path fill-rule="evenodd" clip-rule="evenodd" d="M48.671 85.0934H425.485V594H48.671V85.0934Z" fill="white"/>
</mask>
<g mask="url(#mask1_0:402)">
<path fill-rule="evenodd" clip-rule="evenodd" d="M399.698 512.532C396.797 513.309 393.896 514.811 391.565 517.453C390.218 519.007 388.456 521.908 386.902 524.965C386.54 514.5 386.177 505.59 385.814 500.099C386.799 499.995 387.368 499.995 387.368 499.995C387.368 498.752 387.368 497.509 387.317 496.162C387.058 470.933 384.312 427.055 380.686 383.332C381.981 386.025 383.224 388.512 384.416 390.74C384.467 391.517 384.467 392.294 384.623 393.123C386.54 403.587 396.123 461.504 398.921 496.421C399.439 502.689 399.698 508.18 399.698 512.532M422.751 384.886V384.782C419.746 374.991 409.644 345.825 398.144 316.866L410.888 312.515C410.888 312.515 373.588 246.153 351.779 231.545C351.727 231.493 351.675 231.493 351.623 231.441C343.956 224.292 332.767 219.63 316.034 217.713C315.93 203.881 316.966 180.569 318.158 162.696C326.757 160.728 330.902 150.626 331.471 148.398C332.663 143.84 331.575 140.058 329.347 137.623C330.021 131.976 331.161 120.994 330.85 111.566C330.591 102.914 329.192 95.6097 325.151 94.7291C325.203 94.5737 325.307 94.47 325.358 94.3664C326.705 90.0667 324.167 85.3007 324.063 85.0934L321.784 86.3368C322.406 87.4246 323.701 90.8437 322.872 93.5376C319.038 89.2896 307.123 87.5801 293.758 87.8391C275.056 88.1499 253.609 92.4497 247.807 99.1843C243.767 103.847 244.958 106.385 249.154 107.525C248.533 111.876 248.274 115.658 248.17 119.129C247.548 120.735 246.978 122.393 246.409 124.154C244.906 125.19 243.456 126.692 242.368 129.024L244.751 130.111C244.803 130.008 244.854 129.956 244.906 129.852C244.285 132.495 243.715 135.188 243.3 138.141C238.638 170.26 231.023 202.223 262.882 202.586C262.831 206.212 262.623 209.735 262.261 213.05C262.002 215.692 261.639 218.179 261.173 220.407C249.051 223.359 239.57 228.022 232.991 234.29C209.576 253.613 179.995 315.675 179.995 315.675L189.942 320.596C182.585 334.894 175.333 349.503 169.893 361.366C144.716 343.96 100.475 311.686 87.4207 297.543C87.4207 297.492 87.3689 297.492 87.3171 297.44C87.8352 292 86.8509 283.194 85.4004 278.22C85.4004 278.117 85.4004 278.013 85.3486 277.858C85.245 277.599 85.1413 277.443 85.0895 277.236C84.9859 276.925 84.8823 276.563 84.7787 276.304C84.5197 275.63 84.3125 275.164 84.1053 274.749C80.6344 267.082 75.1431 264.078 71.8794 253.872C70.1699 248.433 65.9737 250.66 64.3678 254.287L52.0383 226.727L48.671 228.229L64.5232 263.819C60.7933 262.161 57.5296 261.177 55.302 261.954C52.2455 262.99 48.8782 278.376 50.3288 283.867C51.7793 289.307 66.6472 306.816 72.1902 309.821C72.6047 310.028 73.0709 310.184 73.4853 310.236C82.4475 322.772 141.867 393.33 165.749 405.556C180.565 413.067 191.703 406.592 195.381 396.956C200.147 389.289 208.902 374.318 218.434 357.015C215.326 405.193 209.368 459.484 198.127 497.56C199.163 497.716 200.251 497.871 201.339 498.027C198.179 513.827 195.847 534.601 194.19 555.685C205.897 560.658 217.813 565.165 229.831 569.206C283.449 587.337 339.087 596.403 387.472 593.45C388.249 591.067 388.612 588.581 388.56 585.939C388.301 575.578 387.99 562.886 387.679 550.349C390.269 557.084 393.637 562.627 396.331 564.025C399.18 565.476 412.649 557.239 415.602 552.318C418.503 547.552 420.73 524.654 419.021 518.541C418.917 518.127 418.606 517.816 418.399 517.453C419.021 514.034 419.953 506.574 420.99 496.835C424.305 463.991 428.242 404.986 422.751 384.886" fill="#D1CDD3"/>
</g>
<path fill-rule="evenodd" clip-rule="evenodd" d="M290.449 285.515L256.677 263.478C256.677 263.478 223.113 325.244 206.562 361.383C181.4 343.961 137.159 311.703 124.099 297.529C124.063 297.493 124.027 297.472 123.991 297.436C124.503 291.986 123.519 283.205 122.084 278.227C122.053 278.097 122.048 277.993 122.001 277.854C121.929 277.62 121.83 277.434 121.753 277.211C121.649 276.921 121.556 276.553 121.452 276.305C121.178 275.636 120.965 275.149 120.773 274.73C117.303 267.109 111.801 264.063 108.558 253.889C106.299 246.786 99.7875 252.744 100.43 257.867C100.43 257.867 101.399 261.193 102.492 264.395C98.1867 262.343 94.4672 261.1 91.9598 261.944C88.9241 262.965 85.5309 278.372 86.9866 283.878C88.4164 289.297 103.305 306.817 108.879 309.832C109.283 310.05 109.708 310.169 110.143 310.237C119.131 322.789 178.551 393.352 202.438 405.536C217.233 413.084 228.345 406.582 232.06 396.968C243.353 378.634 277.528 318.966 290.449 285.515" fill="#FFAD69"/>
<path fill-rule="evenodd" clip-rule="evenodd" d="M295.045 247.568C300.163 273.315 279.586 346.582 279.586 346.582L216.644 315.691C216.644 315.691 281.544 179.647 295.045 247.568" fill="#EA3939"/>
<path fill-rule="evenodd" clip-rule="evenodd" d="M425.238 585.938C425.238 586.767 425.238 587.596 425.135 588.425C413.272 591.015 400.631 592.725 387.473 593.45C339.088 596.403 283.45 587.337 229.832 569.205C231.697 541.542 234.598 512.687 239.053 493.208L387.318 496.161L398.922 496.42L420.991 496.835L422.286 496.886C423.322 508.698 424.565 556.513 425.238 585.938" fill="#232323"/>
<path fill-rule="evenodd" clip-rule="evenodd" d="M340.555 216.85C381.243 218.192 394.997 231.925 402.011 255.677C409.973 282.647 424.002 445.54 424.002 499.971C424.002 499.971 302.241 508.597 234.786 497.542C255.933 426.103 258.223 297.644 258.647 259.376C258.963 230.661 288.974 215.145 340.555 216.85" fill="#FF4E4A"/>
<path fill-rule="evenodd" clip-rule="evenodd" d="M304.712 150.24C300.703 147.225 279.794 149.96 285.819 107.393C288.011 91.8618 302.599 102.228 312.923 104.3C323.248 106.372 316.684 151.007 316.684 151.007L304.712 150.24Z" fill="#232323"/>
<path fill-rule="evenodd" clip-rule="evenodd" d="M356.77 140.043C355.034 151.326 351.563 212.373 353.009 226.547C354.454 240.725 285.886 244.776 294.853 229.152C303.825 213.528 297.459 161.739 297.459 161.739L356.77 140.043Z" fill="#FFAD69"/>
<path fill-rule="evenodd" clip-rule="evenodd" d="M352.022 141.769L297.467 161.744C297.467 161.744 301.15 191.91 298.927 213.145C340.526 209.928 351.203 157.388 351.908 147.27C352.022 145.364 352.079 143.525 352.022 141.769" fill="#D88344"/>
<path fill-rule="evenodd" clip-rule="evenodd" d="M279.951 138.124C274.895 172.972 266.311 207.718 308.552 201.998C350.799 196.279 357.362 142.118 357.238 131.902C356.58 77.3881 289.892 69.5967 279.951 138.124" fill="#FFAD69"/>
<path fill-rule="evenodd" clip-rule="evenodd" d="M361.793 94.7094C361.845 94.5747 361.959 94.4815 362.005 94.3468C363.378 90.0729 360.85 85.3121 360.741 85.11L358.462 86.3378C358.483 86.3793 360.555 90.3216 359.54 93.5283C350.287 83.3073 294.395 87.664 284.454 99.2112C271.824 113.882 310.667 107.267 332.555 103.563C335.621 116.379 349.515 137.603 353.52 140.618L365.492 141.39C365.492 141.39 372.024 96.9577 361.793 94.7094" fill="#232323"/>
<path fill-rule="evenodd" clip-rule="evenodd" d="M455.064 517.437C457.747 502.527 466.585 410.942 459.431 384.905C459.421 384.864 459.426 384.823 459.415 384.776C454.422 368.478 429.623 298.226 411.667 264.963L372.975 276.318C372.975 276.318 405.358 360.832 421.059 390.723C421.106 391.526 421.106 392.313 421.262 393.142C423.572 405.472 436.482 483.702 436.337 512.515C433.477 513.313 430.566 514.815 428.25 517.457C425.302 520.825 420.163 530.497 420.526 534.786C421.557 547.027 428.359 561.61 433.016 564.019C435.865 565.491 449.293 557.217 452.241 552.343C455.142 547.545 457.38 524.663 455.67 518.561C455.556 518.141 455.276 517.805 455.064 517.437" fill="#FFAD69"/>
<path fill-rule="evenodd" clip-rule="evenodd" d="M388.444 231.551C410.27 246.139 447.527 312.496 447.527 312.496L381.181 335.16C381.181 335.16 330.869 193.071 388.444 231.551" fill="#FF4E4A"/>
<path fill-rule="evenodd" clip-rule="evenodd" d="M315.524 136.398C315.658 138.098 314.741 139.553 313.467 139.657C312.192 139.755 311.053 138.465 310.918 136.766C310.778 135.072 311.7 133.611 312.975 133.513C314.244 133.409 315.384 134.699 315.524 136.398" fill="#232323"/>
<path fill-rule="evenodd" clip-rule="evenodd" d="M288.615 137.112C288.749 138.811 287.832 140.267 286.558 140.37C285.289 140.469 284.144 139.179 284.009 137.485C283.869 135.786 284.791 134.325 286.066 134.226C287.335 134.123 288.48 135.413 288.615 137.112" fill="#232323"/>
<path fill-rule="evenodd" clip-rule="evenodd" d="M322.14 126.864C318.54 121.337 312.344 122.653 312.282 122.663L311.712 120.135C312.039 120.068 319.737 118.436 324.311 125.45L322.14 126.864Z" fill="#232323"/>
<path fill-rule="evenodd" clip-rule="evenodd" d="M281.408 130.092L279.056 129.015C282.547 121.394 290.396 121.887 290.727 121.902L290.546 124.487C290.302 124.472 284.143 124.145 281.408 130.092" fill="#232323"/>
<path fill-rule="evenodd" clip-rule="evenodd" d="M306.875 168.485C305.155 168.485 304.067 168.293 304.026 168.283L304.497 165.739C304.974 165.828 316.345 167.755 322.681 157.212L324.898 158.549C319.671 167.242 311.253 168.485 306.875 168.485" fill="#232323"/>
<path fill-rule="evenodd" clip-rule="evenodd" d="M286.96 156.68L293.55 134.218L296.031 134.943L290.431 154.043L299.502 153.924L299.538 156.514L286.96 156.68Z" fill="#D88344"/>
<path fill-rule="evenodd" clip-rule="evenodd" d="M119.137 294.956L115.749 296.468L85.3397 228.237L88.7226 226.724L119.137 294.956Z" fill="#232323"/>
<path fill-rule="evenodd" clip-rule="evenodd" d="M346.525 144.478C342.707 153.077 337.931 161.397 349.913 162.941C361.896 164.49 367.47 151.036 368.149 148.4C371.77 134.34 354.027 127.569 346.525 144.478" fill="#FFAD69"/>
<path fill-rule="evenodd" clip-rule="evenodd" d="M167.279 0.0020752H45.3778C41.1298 0.0020752 37.6848 3.44189 37.6848 7.68985V51.0968C37.6848 55.3448 41.1298 58.7898 45.3778 58.7898H52.8013L61.1729 69.9743C63.0327 72.4609 66.9336 71.7201 67.7573 68.7258L70.4718 58.7898H167.279C171.527 58.7898 174.967 55.3448 174.967 51.0968V7.68985C174.967 3.44189 171.527 0.0020752 167.279 0.0020752" fill="#4D8DFF"/>
<mask id="mask2_0:402" style="mask-type:alpha" maskUnits="userSpaceOnUse" x="0" y="0" width="539" height="594">
<path fill-rule="evenodd" clip-rule="evenodd" d="M0.233887 594H538.777V0H0.233887V594Z" fill="white"/>
</mask>
<g mask="url(#mask2_0:402)">
<path fill-rule="evenodd" clip-rule="evenodd" d="M49.6604 13.982H157.44V11.3918H49.6604V13.982Z" fill="white"/>
<path fill-rule="evenodd" clip-rule="evenodd" d="M49.6604 26.239H120.829V23.6487H49.6604V26.239Z" fill="white"/>
<path fill-rule="evenodd" clip-rule="evenodd" d="M49.6604 38.4959H138.619V35.9057H49.6604V38.4959Z" fill="white"/>
<path fill-rule="evenodd" clip-rule="evenodd" d="M138.62 145.252H45.3767C41.1288 145.252 37.689 148.697 37.689 152.94V196.347C37.689 200.595 41.1288 204.04 45.3767 204.04H52.8003L61.1719 215.224C63.0317 217.711 66.9377 216.97 67.7563 213.976L70.4708 204.04H138.62C142.868 204.04 146.307 200.595 146.307 196.347V152.94C146.307 148.697 142.868 145.252 138.62 145.252" fill="#FF4E4A"/>
<path fill-rule="evenodd" clip-rule="evenodd" d="M49.6604 159.231H99.2735V156.641H49.6604V159.231Z" fill="white"/>
<path fill-rule="evenodd" clip-rule="evenodd" d="M109.541 159.231H126.647V156.641H109.541V159.231Z" fill="white"/>
<path fill-rule="evenodd" clip-rule="evenodd" d="M49.6604 171.488H84.903V168.898H49.6604V171.488Z" fill="white"/>
<path fill-rule="evenodd" clip-rule="evenodd" d="M49.6604 183.745H117.747V181.155H49.6604V183.745Z" fill="white"/>
<path fill-rule="evenodd" clip-rule="evenodd" d="M107.395 72.5863H220.919C225.162 72.5863 228.602 76.0313 228.602 80.2741V123.686C228.602 127.929 225.162 131.374 220.919 131.374H213.491L205.119 142.564C203.259 145.045 199.353 144.304 198.54 141.31L195.82 131.374H107.395C103.147 131.374 99.7073 127.929 99.7073 123.686V80.2741C99.7073 76.0313 103.147 72.5863 107.395 72.5863" fill="#FFC84D"/>
<path fill-rule="evenodd" clip-rule="evenodd" d="M171.126 86.5652H216.631V83.975H171.126V86.5652Z" fill="white"/>
<path fill-rule="evenodd" clip-rule="evenodd" d="M117.752 98.8273H216.631V96.2371H117.752V98.8273Z" fill="white"/>
<path fill-rule="evenodd" clip-rule="evenodd" d="M168.049 111.084H216.631V108.494H168.049V111.084Z" fill="white"/>
<path fill-rule="evenodd" clip-rule="evenodd" d="M137.593 111.084H159.833V108.494H137.593V111.084Z" fill="white"/>
<path fill-rule="evenodd" clip-rule="evenodd" d="M304.262 286.811C284.457 286.811 268.341 302.927 268.341 322.732C268.341 342.542 284.457 358.658 304.262 358.658C324.072 358.658 340.189 342.542 340.189 322.732C340.189 302.927 324.072 286.811 304.262 286.811M304.262 361.248C283.028 361.248 265.751 343.972 265.751 322.732C265.751 301.497 283.028 284.22 304.262 284.22C325.502 284.22 342.779 301.497 342.779 322.732C342.779 343.972 325.502 361.248 304.262 361.248" fill="white"/>
</g>
</svg>
