<svg width="538" height="525" viewBox="0 0 538 525" fill="none" xmlns="http://www.w3.org/2000/svg">
<mask id="mask0_0:273" style="mask-type:alpha" maskUnits="userSpaceOnUse" x="0" y="54" width="538" height="471">
<path fill-rule="evenodd" clip-rule="evenodd" d="M0.000640869 54.4522H537.593V524.895H0.000640869V54.4522Z" fill="white"/>
</mask>
<g mask="url(#mask0_0:273)">
<path fill-rule="evenodd" clip-rule="evenodd" d="M504.385 311.078C502.719 313.753 501.059 316.382 499.288 319.002C483.794 342.272 464.566 364.624 443.274 385.169C442.31 386.123 441.301 387.087 440.296 388.041C437.263 390.918 434.134 393.799 431.005 396.57C425.61 401.521 420.054 406.31 414.402 410.903C411.424 413.426 408.35 415.904 405.317 418.321C370.096 446.184 332.448 470.56 295.349 488.925C283.848 494.683 272.341 499.826 260.986 504.267C201.732 527.739 146.577 533.24 108.524 509.97C96.4072 502.602 86.0614 492.306 77.8352 478.736C76.523 476.561 75.2109 474.39 73.8987 472.225C61.7412 451.882 50.1286 431.448 39.9343 410.903C37.5118 406.108 35.2458 401.369 33.0253 396.57C-3.96724 317.084 -18.0527 236.639 34.3829 157.506C54.7716 126.726 88.2365 102.754 128.403 85.7924C139.865 80.9021 151.82 76.6578 164.24 72.9737C170.347 71.0559 176.499 69.3905 182.807 67.8815C190.736 65.8628 198.805 64.0965 206.981 62.5774C213.244 61.3713 219.497 60.3114 225.805 59.398C228.43 59.0498 231.054 58.6965 233.678 58.3382C252.301 55.9713 271.175 54.6541 289.954 54.5077C292.422 54.4522 294.895 54.4522 297.322 54.4522C308.678 54.5077 319.927 54.9569 331.03 55.8703C334.007 56.0722 336.985 56.3245 339.962 56.6727C396.637 62.1787 448.618 78.4242 483.945 105.379C491.667 111.283 498.586 117.637 504.587 124.556C505.702 125.818 506.762 127.08 507.766 128.387C508.119 128.791 508.427 129.194 508.775 129.603C516.093 138.783 521.947 148.276 526.343 157.966C548.801 206.868 535.674 260.813 504.385 311.078" fill="#FDE6D6"/>
</g>
<path fill-rule="evenodd" clip-rule="evenodd" d="M390.153 458.887C376.537 473.16 366.842 493.569 381.488 505.661C397.844 519.161 431.582 516.027 449.023 490.556C460.171 474.285 466.071 448.562 453.722 434.133C443.149 421.779 406.858 441.375 390.153 458.887" fill="#E8E5EA"/>
<path fill-rule="evenodd" clip-rule="evenodd" d="M192.145 455.166C188.764 455.312 185.332 455.418 182.001 455.418C181.648 455.418 181.396 455.716 181.396 456.074C181.396 456.372 181.648 456.68 182.001 456.68C185.383 456.68 188.764 456.574 192.196 456.428C192.549 456.428 192.801 456.12 192.801 455.772C192.751 455.469 192.448 455.166 192.145 455.166M171.908 455.267C168.476 455.166 165.044 454.964 161.814 454.762C161.36 454.712 161.158 454.964 161.108 455.312C161.108 455.671 161.36 455.973 161.713 456.024C164.994 456.226 168.425 456.428 171.857 456.529C172.211 456.529 172.513 456.276 172.513 455.918C172.513 455.57 172.261 455.267 171.908 455.267M212.332 453.702C208.951 454.051 205.569 454.359 202.239 454.611C201.885 454.611 201.633 454.909 201.633 455.267C201.683 455.62 201.936 455.873 202.289 455.873H202.34C205.67 455.62 209.052 455.312 212.433 454.964C212.786 454.909 213.039 454.611 213.039 454.253C212.988 453.904 212.685 453.647 212.332 453.702M151.721 453.753C148.39 453.395 145.009 452.895 141.728 452.335C141.375 452.289 141.072 452.491 140.971 452.844C140.921 453.193 141.173 453.501 141.526 453.551C144.807 454.157 148.188 454.611 151.569 455.015H151.67C151.973 455.015 152.225 454.813 152.276 454.454C152.326 454.106 152.074 453.798 151.721 453.753M232.418 451.028C228.986 451.527 225.655 452.037 222.375 452.491C222.022 452.537 221.769 452.844 221.82 453.193C221.87 453.501 222.173 453.753 222.476 453.753H222.526C225.807 453.299 229.188 452.789 232.62 452.239C232.923 452.188 233.175 451.886 233.125 451.527C233.074 451.179 232.771 450.977 232.418 451.028M131.837 450.321C128.506 449.564 125.226 448.706 122.046 447.798C121.693 447.697 121.34 447.848 121.239 448.201C121.138 448.55 121.34 448.908 121.693 449.004C124.771 449.862 127.9 450.725 131.08 451.482C131.231 451.527 131.383 451.527 131.534 451.583H131.685C131.786 451.583 131.887 451.527 131.988 451.482L132.039 451.431C132.19 451.381 132.24 451.23 132.291 451.073C132.341 450.775 132.14 450.422 131.837 450.321M252.302 447.243C249.022 447.944 245.64 448.656 242.461 449.261H242.36C242.007 449.312 241.805 449.61 241.855 449.968C241.906 450.266 242.209 450.467 242.511 450.467H242.612C244.883 450.064 247.205 449.61 249.526 449.11C250.536 448.908 251.545 448.706 252.554 448.454C252.908 448.403 253.11 448.05 253.059 447.697C252.958 447.394 252.655 447.142 252.302 447.243M271.984 442.443C268.805 443.301 265.525 444.159 262.194 444.967C261.84 445.073 261.639 445.375 261.74 445.729C261.79 446.026 262.042 446.228 262.345 446.228C262.396 446.228 262.446 446.228 262.497 446.183C265.827 445.375 269.158 444.517 272.338 443.705C272.64 443.609 272.842 443.256 272.792 442.897C272.691 442.6 272.338 442.398 271.984 442.443M112.457 444.563C111.347 444.159 110.287 443.755 109.177 443.301C107.108 442.494 105.139 441.59 103.171 440.682C102.868 440.53 102.465 440.682 102.313 440.98C102.162 441.287 102.313 441.691 102.616 441.838C104.736 442.852 106.956 443.755 109.177 444.669C110.085 445.073 111.044 445.421 112.003 445.779H112.255C112.508 445.779 112.76 445.623 112.861 445.375C112.962 445.073 112.811 444.719 112.457 444.563M291.414 436.791C290.758 436.993 290.102 437.245 289.396 437.447C286.923 438.209 284.349 439.016 281.775 439.768C281.422 439.874 281.22 440.172 281.321 440.53C281.422 440.833 281.674 440.98 281.926 440.98H282.128C284.652 440.228 287.225 439.471 289.648 438.709C290.405 438.456 291.111 438.254 291.818 438.007C292.121 437.906 292.323 437.553 292.222 437.195C292.121 436.897 291.768 436.695 291.414 436.791M94.1881 436.039L93.8349 435.787C91.0087 434.172 88.2834 432.456 85.6591 430.639C85.4068 430.437 85.0031 430.538 84.8012 430.841C84.5993 431.088 84.7003 431.497 84.9526 431.699C87.5769 433.46 90.3526 435.231 93.1788 436.897L93.5825 437.149C93.6834 437.195 93.7844 437.195 93.8853 437.195C94.1377 437.195 94.3395 437.099 94.4405 436.897C94.6423 436.589 94.4909 436.185 94.1881 436.039M310.592 430.281C307.412 431.446 304.182 432.557 301.054 433.662C300.7 433.768 300.549 434.121 300.65 434.424C300.751 434.722 300.953 434.873 301.255 434.873C301.306 434.873 301.356 434.873 301.457 434.828C304.637 433.768 307.816 432.602 310.996 431.446C311.349 431.34 311.5 430.992 311.399 430.639C311.248 430.281 310.844 430.134 310.592 430.281M330.274 423.22C330.123 422.867 329.769 422.71 329.467 422.867C326.388 424.129 323.209 425.436 320.029 426.652C319.726 426.803 319.575 427.152 319.676 427.51C319.777 427.757 320.029 427.914 320.282 427.914C320.332 427.914 320.433 427.863 320.534 427.863C323.713 426.602 326.893 425.289 329.921 424.028C330.274 423.876 330.426 423.518 330.274 423.22M77.5844 424.628C76.4236 423.725 75.2629 422.766 74.2031 421.853C72.7395 420.591 71.3769 419.284 70.0143 418.022C69.762 417.77 69.3582 417.77 69.1059 418.022C68.8535 418.269 68.8535 418.678 69.1059 418.925C70.7208 420.444 72.3863 421.959 74.1526 423.422C75.0106 424.174 75.8685 424.936 76.7769 425.638C76.8778 425.744 77.0292 425.794 77.1806 425.794C77.3825 425.794 77.5339 425.693 77.6853 425.542C77.8872 425.289 77.8367 424.886 77.5844 424.628M348.846 414.939C348.695 414.59 348.291 414.484 347.988 414.641C345.061 415.998 342.083 417.416 338.753 418.88C338.45 418.981 338.298 419.385 338.45 419.687C338.551 419.94 338.803 420.091 339.005 420.091C339.106 420.091 339.207 420.041 339.257 419.985C342.588 418.522 345.616 417.164 348.543 415.746C348.846 415.6 348.997 415.246 348.846 414.939M63.0498 410.699C60.8292 408.176 58.7096 405.506 56.7918 402.831C56.59 402.524 56.1862 402.478 55.8834 402.68C55.6311 402.882 55.5806 403.286 55.7825 403.538C57.5489 406.061 59.5171 408.534 61.5358 410.901C61.7376 411.108 61.889 411.355 62.0909 411.557C62.1918 411.663 62.3937 411.759 62.5451 411.759C62.6965 411.759 62.8479 411.714 62.9993 411.613C63.2012 411.411 63.2517 411.153 63.1507 410.901C63.1507 410.805 63.1003 410.75 63.0498 410.699M366.964 405.809C366.812 405.506 366.409 405.405 366.106 405.557C363.229 407.116 360.151 408.686 357.123 410.2C356.82 410.351 356.719 410.654 356.82 410.901C356.769 410.952 356.82 411.007 356.82 411.058C356.921 411.259 357.173 411.411 357.375 411.411C357.476 411.411 357.577 411.355 357.678 411.31C357.93 411.153 358.233 411.058 358.485 410.901C361.311 409.544 364.037 408.08 366.711 406.667C367.014 406.51 367.115 406.107 366.964 405.809M384.627 395.867C384.476 395.559 384.072 395.463 383.769 395.61C383.214 395.917 382.71 396.271 382.154 396.573C379.833 397.987 377.461 399.344 374.988 400.712C374.685 400.858 374.584 401.262 374.786 401.57C374.887 401.772 375.089 401.867 375.341 401.867C375.442 401.867 375.543 401.867 375.644 401.822C378.622 400.106 381.599 398.39 384.425 396.725C384.476 396.674 384.526 396.619 384.577 396.573C384.779 396.372 384.779 396.119 384.627 395.867M51.3414 394.348C49.6255 391.476 48.061 388.443 46.6984 385.42C46.547 385.117 46.1433 384.966 45.8405 385.117C45.5377 385.264 45.3863 385.622 45.5377 385.975C46.9507 389.003 48.5152 392.082 50.2311 395.009C50.332 395.211 50.5339 395.312 50.7863 395.312C50.8872 395.312 50.9881 395.261 51.0891 395.211C51.3919 395.059 51.4928 394.656 51.3414 394.348M401.837 385.168C401.837 385.117 401.786 385.062 401.786 385.016C401.584 384.714 401.181 384.658 400.928 384.815C400.726 384.916 400.575 385.062 400.373 385.168C398.96 386.122 397.446 387.136 395.983 388.039C394.822 388.847 393.611 389.609 392.45 390.366C392.147 390.512 392.046 390.921 392.248 391.224C392.349 391.426 392.551 391.527 392.753 391.527C392.854 391.527 393.005 391.476 393.106 391.426C394.872 390.31 396.588 389.205 398.304 388.039C399.414 387.338 400.525 386.631 401.635 385.874C401.837 385.718 401.938 385.42 401.837 385.168M418.289 373.258C418.087 372.955 417.683 372.899 417.431 373.101C414.756 375.125 411.981 377.144 409.255 379.112C408.953 379.314 408.902 379.667 409.104 379.97C409.255 380.121 409.407 380.217 409.609 380.217C409.76 380.217 409.861 380.217 410.012 380.121C412.738 378.148 415.513 376.134 418.188 374.11C418.491 373.909 418.541 373.505 418.289 373.258M39.9358 366.445C39.8348 366.091 39.4816 365.889 39.1283 365.99C38.8255 366.091 38.6236 366.445 38.6741 366.742C39.5825 370.078 40.5918 373.359 41.7021 376.487C41.8031 376.79 42.0049 376.942 42.3077 376.942C42.3582 376.942 42.4087 376.942 42.5096 376.886C42.8124 376.79 43.0143 376.432 42.8629 376.084C41.7526 372.955 40.7937 369.72 39.9358 366.445M434.085 360.434C433.833 360.187 433.429 360.187 433.177 360.388C430.704 362.508 428.13 364.673 425.405 366.899C425.153 367.101 425.102 367.504 425.304 367.757C425.455 367.908 425.607 368.004 425.809 368.004C425.96 368.004 426.061 367.959 426.212 367.853C428.938 365.688 431.562 363.467 433.984 361.347C434.287 361.09 434.287 360.742 434.085 360.434M36.3526 346.555C36.3526 346.258 36.0498 345.95 35.6965 346.005C35.3433 346.056 35.0909 346.353 35.1414 346.712C35.4947 350.139 35.9489 353.52 36.504 356.805C36.5545 357.103 36.8573 357.305 37.1601 357.305H37.261C37.6143 357.259 37.8161 356.957 37.7657 356.603C37.2105 353.318 36.7059 349.992 36.3526 346.555M448.923 346.661C448.67 346.404 448.267 346.404 448.014 346.661C445.693 348.983 443.22 351.355 440.747 353.676C440.495 353.878 440.444 354.282 440.697 354.534C440.797 354.686 440.999 354.736 441.151 354.736C441.302 354.736 441.454 354.686 441.605 354.58C444.078 352.258 446.551 349.891 448.923 347.519C449.175 347.267 449.175 346.863 448.923 346.661M462.599 331.668C462.347 331.415 461.943 331.466 461.691 331.723C459.622 334.246 457.351 336.82 455.029 339.344C454.777 339.596 454.827 340 455.08 340.247C455.181 340.353 455.332 340.403 455.483 340.403C455.685 340.403 455.837 340.297 455.938 340.202C458.31 337.628 460.581 335.049 462.7 332.525C462.902 332.273 462.852 331.869 462.599 331.668M35.5956 330.916C35.5956 329.452 35.5956 327.938 35.646 326.419C35.646 326.071 35.3937 325.763 35.0404 325.763C34.6872 325.763 34.3844 326.02 34.3844 326.368C34.3339 327.882 34.3339 329.401 34.3339 330.916C34.3339 332.833 34.3844 334.701 34.4348 336.568C34.4348 336.871 34.7376 337.173 35.0404 337.173H35.0909C35.4442 337.118 35.6965 336.871 35.6965 336.512C35.646 334.65 35.5956 332.783 35.5956 330.916M474.812 315.523C474.51 315.321 474.156 315.372 473.954 315.669C472.087 318.395 470.068 321.17 468.05 323.845C467.797 324.153 467.898 324.557 468.151 324.759C468.252 324.809 468.403 324.859 468.554 324.859C468.706 324.859 468.908 324.809 469.059 324.607C471.078 321.932 473.096 319.157 474.964 316.381C475.166 316.073 475.115 315.669 474.812 315.523M36.7563 305.576C36.3526 305.48 36.1003 305.732 36.0498 306.086C35.5956 309.517 35.2423 312.899 34.9395 316.23C34.9395 316.583 35.1919 316.886 35.5451 316.886H35.5956C35.8984 316.886 36.2012 316.633 36.2012 316.325C36.504 313 36.8573 309.618 37.3115 306.287C37.362 305.934 37.1096 305.576 36.7563 305.576M485.158 298.061C484.855 297.96 484.502 298.061 484.3 298.364C482.837 301.241 481.171 304.218 479.405 307.145C479.203 307.443 479.304 307.852 479.607 308.054C479.708 308.099 479.809 308.099 479.91 308.099C480.162 308.099 480.364 308.003 480.465 307.802C482.282 304.824 483.947 301.846 485.461 298.919C485.612 298.611 485.461 298.208 485.158 298.061M40.39 285.591C40.0367 285.545 39.7339 285.747 39.633 286.101C38.9264 289.431 38.2199 292.757 37.6143 296.043C37.5638 296.396 37.8162 296.699 38.119 296.8H38.2704C38.5732 296.8 38.8255 296.598 38.876 296.295C39.4816 293.015 40.1377 289.684 40.8947 286.353C40.9451 285.995 40.7433 285.697 40.39 285.591M493.132 279.439C492.779 279.338 492.426 279.484 492.325 279.843C491.265 282.921 490.003 286.101 488.64 289.23C488.489 289.578 488.64 289.936 488.994 290.088C489.044 290.088 489.145 290.138 489.246 290.138C489.448 290.138 489.7 289.987 489.801 289.734C491.164 286.555 492.426 283.375 493.485 280.246C493.637 279.939 493.435 279.59 493.132 279.439M45.6386 266.015C45.3358 265.914 44.9825 266.116 44.8816 266.464C43.8722 269.699 42.9134 272.974 42.0554 276.209C42.0049 276.557 42.2068 276.916 42.5096 276.961C42.5601 277.011 42.6106 277.011 42.7115 277.011C42.9638 277.011 43.2162 276.815 43.3171 276.557C44.1246 273.332 45.0835 270.047 46.0928 266.822C46.1937 266.464 45.9919 266.116 45.6386 266.015M498.482 259.908C498.128 259.807 497.826 260.059 497.725 260.357C497.018 263.592 496.16 266.868 495.252 270.203C495.201 270.506 495.353 270.854 495.706 270.96C495.756 270.96 495.807 271.011 495.857 271.011C496.16 271.011 496.412 270.809 496.463 270.506C497.371 267.226 498.229 263.895 498.986 260.665C499.037 260.312 498.835 259.953 498.482 259.908M52.2498 246.837C51.8965 246.731 51.5432 246.882 51.4423 247.19C50.2311 250.37 49.0703 253.6 48.0105 256.774C47.8591 257.082 48.061 257.43 48.3638 257.587H48.5657C48.8685 257.587 49.0703 257.43 49.1713 257.183C50.2816 254.003 51.4423 250.773 52.6031 247.645C52.704 247.337 52.5526 246.933 52.2498 246.837M502.115 239.923C501.812 239.873 501.459 240.125 501.409 240.478C500.954 243.809 500.399 247.135 499.794 250.466C499.743 250.824 499.945 251.122 500.298 251.228H500.399C500.702 251.228 500.954 251.026 501.055 250.718C501.661 247.337 502.216 243.955 502.67 240.68C502.67 240.327 502.468 239.968 502.115 239.923M59.9208 228.063C59.618 227.912 59.2648 228.063 59.1133 228.411C57.7507 231.495 56.3881 234.624 55.1264 237.753C55.0255 238.051 55.1769 238.459 55.4797 238.56C55.5806 238.611 55.6311 238.611 55.732 238.611C55.9844 238.611 56.1862 238.459 56.2872 238.207C57.5489 235.124 58.9115 231.995 60.2741 228.921C60.4255 228.568 60.2741 228.21 59.9208 228.063M503.882 219.736C503.579 219.782 503.276 219.983 503.225 220.342C503.074 223.723 502.872 227.104 502.569 230.435C502.519 230.788 502.771 231.091 503.125 231.137H503.175C503.478 231.137 503.781 230.889 503.781 230.531C504.134 227.205 504.336 223.824 504.487 220.387C504.538 220.089 504.235 219.782 503.882 219.736M68.6517 209.744C68.3489 209.592 67.9451 209.688 67.7937 209.996C66.2797 213.024 64.7657 216.102 63.3526 219.125C63.2012 219.484 63.3526 219.837 63.6554 219.983C63.7563 220.039 63.8068 220.039 63.9077 220.039C64.1601 220.039 64.362 219.938 64.4629 219.686C65.9264 216.653 67.4405 213.579 68.9545 210.602C69.1059 210.248 68.9545 209.89 68.6517 209.744M504.487 200.099C504.487 199.751 504.184 199.499 503.831 199.499C503.478 199.499 503.225 199.802 503.225 200.155C503.377 203.486 503.478 206.867 503.478 210.248C503.478 210.602 503.781 210.904 504.083 210.904C504.437 210.904 504.739 210.602 504.739 210.248C504.739 206.867 504.639 203.435 504.487 200.099M78.2404 191.828C77.9376 191.676 77.5339 191.777 77.3825 192.08C75.6666 195.053 74.0517 198.086 72.4872 201.013C72.3358 201.316 72.4367 201.669 72.7395 201.82C72.8404 201.871 72.9414 201.921 73.0423 201.921C73.2442 201.921 73.4965 201.82 73.5974 201.568C75.1619 198.691 76.7769 195.663 78.4928 192.686C78.6442 192.383 78.5432 192.03 78.2404 191.828M502.569 179.816C502.519 179.463 502.216 179.211 501.863 179.312C501.51 179.362 501.308 179.665 501.358 180.013C501.812 183.349 502.216 186.73 502.519 190.061C502.569 190.415 502.822 190.616 503.175 190.616H503.226C503.579 190.616 503.831 190.314 503.781 189.96C503.478 186.579 503.074 183.198 502.569 179.816M88.5862 174.416C88.3339 174.215 87.9302 174.316 87.7283 174.618C85.9619 177.49 84.1956 180.372 82.4797 183.299C82.2778 183.602 82.3788 183.955 82.6816 184.157C82.7825 184.207 82.8834 184.258 82.9844 184.258C83.2367 184.258 83.4386 184.157 83.5395 183.955C85.2554 181.028 87.0218 178.151 88.7881 175.274C88.99 174.967 88.889 174.618 88.5862 174.416M500.854 169.42H500.803C500.248 166.241 499.491 163.061 498.734 159.826C498.683 159.478 498.33 159.276 497.977 159.377C497.674 159.428 497.422 159.781 497.523 160.134C498.28 163.213 498.936 166.291 499.541 169.37C499.592 169.572 499.642 169.819 499.693 170.026C499.743 170.329 499.996 170.53 500.298 170.53H500.399C500.753 170.43 500.954 170.127 500.904 169.773C500.904 169.673 500.854 169.521 500.854 169.42M99.9414 157.106C99.689 156.904 99.2853 156.955 99.0834 157.258L98.8311 157.611C96.9638 160.387 95.046 163.213 93.2292 166.034C93.0273 166.342 93.0778 166.745 93.3806 166.947C93.4815 166.998 93.6329 167.048 93.7339 167.048C93.9358 167.048 94.1376 166.947 94.2386 166.745C96.1058 163.919 97.9731 161.088 99.8909 158.317L100.143 157.964C100.295 157.712 100.244 157.303 99.9414 157.106M495.403 147.719C494.646 145.196 493.839 142.723 493.031 140.301C492.93 139.947 492.526 139.796 492.224 139.897C491.87 140.048 491.719 140.402 491.82 140.704C492.779 143.48 493.687 146.306 494.545 149.183C494.646 149.587 494.797 149.94 494.898 150.344C494.999 150.646 495.252 150.798 495.504 150.798H495.706C496.009 150.697 496.211 150.344 496.11 149.99C495.908 149.233 495.655 148.471 495.403 147.719M111.599 140.502C111.297 140.301 110.893 140.351 110.691 140.654C108.773 143.379 106.805 146.104 104.837 148.93C104.635 149.183 104.736 149.587 104.988 149.788C105.14 149.889 105.24 149.889 105.392 149.889C105.543 149.889 105.745 149.839 105.897 149.632C107.814 146.861 109.782 144.086 111.751 141.36C111.953 141.058 111.852 140.704 111.599 140.502M123.611 124.151C123.308 123.949 122.954 124 122.702 124.252C120.683 126.922 118.665 129.652 116.646 132.428C116.444 132.68 116.545 133.084 116.797 133.286C116.898 133.387 117.05 133.437 117.151 133.437C117.353 133.437 117.554 133.331 117.706 133.134C119.674 130.409 121.693 127.684 123.711 125.009C123.913 124.757 123.863 124.353 123.611 124.151M489.448 130.762C489.145 130.005 488.792 129.198 488.439 128.39C488.287 127.987 488.085 127.532 487.883 127.078C487.126 125.211 486.268 123.293 485.411 121.426C485.259 121.123 484.906 120.972 484.553 121.123C484.25 121.274 484.098 121.628 484.25 121.93C484.855 123.238 485.461 124.555 486.016 125.867C486.42 126.725 486.773 127.583 487.076 128.39C487.48 129.248 487.833 130.056 488.136 130.914C488.186 131.015 488.237 131.116 488.287 131.216C488.388 131.469 488.59 131.62 488.842 131.62C488.943 131.62 488.994 131.62 489.095 131.57C489.347 131.469 489.549 131.216 489.498 130.914C489.498 130.863 489.498 130.808 489.448 130.762M136.076 108.097C135.773 107.901 135.42 107.951 135.168 108.203C133.098 110.727 131.13 113.351 129.111 115.925C129.061 116.026 128.96 116.076 128.91 116.177C128.657 116.48 128.708 116.884 129.011 117.086C129.111 117.187 129.263 117.237 129.364 117.237C129.515 117.237 129.667 117.187 129.768 117.086C129.818 117.035 129.818 117.035 129.868 116.985C131.988 114.259 134.057 111.635 136.177 109.011C136.379 108.759 136.328 108.355 136.076 108.097M480.969 112.291C480.313 111.08 479.708 109.919 479.052 108.759C478.093 106.942 477.083 105.175 476.024 103.409C475.872 103.106 475.468 103.005 475.166 103.157C474.863 103.359 474.762 103.712 474.964 104.015C476.024 105.831 477.033 107.699 478.093 109.616C478.648 110.676 479.254 111.782 479.809 112.897C479.96 113.099 480.162 113.2 480.364 113.2C480.465 113.2 480.566 113.2 480.667 113.144C480.969 112.998 481.121 112.594 480.969 112.291M149.046 92.508C148.743 92.3062 148.39 92.3566 148.138 92.609C145.968 95.1323 143.747 97.7062 141.577 100.33C141.375 100.633 141.375 101.037 141.678 101.239C141.779 101.34 141.93 101.39 142.082 101.39C142.233 101.39 142.435 101.289 142.536 101.138C144.706 98.5137 146.926 95.9398 149.097 93.4165C149.298 93.1641 149.298 92.7604 149.046 92.508M470.674 94.7286C468.857 91.9024 466.94 89.1267 464.971 86.351C464.769 86.0482 464.366 85.9978 464.063 86.1996C463.811 86.4015 463.71 86.8052 463.911 87.1081C465.88 89.8333 467.848 92.609 469.665 95.4352C469.766 95.5866 469.968 95.6875 470.169 95.6875C470.27 95.6875 470.422 95.6875 470.523 95.5866C470.825 95.4352 470.876 95.0314 470.674 94.7286M162.571 77.4183C162.319 77.2165 161.915 77.2165 161.713 77.4688C159.392 79.8912 157.121 82.4146 154.85 84.938C154.597 85.2408 154.648 85.594 154.9 85.8464C155.001 85.9473 155.153 85.9978 155.304 85.9978C155.455 85.9978 155.657 85.9473 155.758 85.7959C158.029 83.2725 160.351 80.7492 162.622 78.3267C162.874 78.0744 162.824 77.6707 162.571 77.4183M458.814 78.2763C456.695 75.6015 454.474 72.9772 452.254 70.4539C452.052 70.2015 451.648 70.2015 451.396 70.4034C451.093 70.6557 451.093 71.0595 451.345 71.3118C453.515 73.7847 455.736 76.409 457.805 79.0333C457.956 79.1847 458.108 79.2856 458.31 79.2856C458.461 79.2856 458.562 79.2352 458.713 79.1342C458.966 78.9324 459.016 78.5286 458.814 78.2763M176.803 62.9847C176.551 62.7324 176.197 62.7324 175.945 62.9847C173.573 65.2557 171.151 67.6782 168.728 70.146C168.476 70.4034 168.476 70.8071 168.728 71.009C168.829 71.1604 168.981 71.2109 169.183 71.2109C169.334 71.2109 169.485 71.1604 169.637 71.009C172.009 68.5866 174.431 66.1641 176.803 63.8931C177.055 63.6408 177.055 63.237 176.803 62.9847M445.39 63.0352C443.018 60.6127 440.596 58.1903 438.123 55.9193C437.87 55.6669 437.467 55.6669 437.214 55.9193C437.012 56.1716 437.012 56.5753 437.265 56.8277C439.738 59.0987 442.16 61.5211 444.482 63.8931C444.583 63.994 444.734 64.095 444.936 64.095C445.087 64.095 445.239 64.0445 445.34 63.8931C445.592 63.6408 445.592 63.237 445.39 63.0352M191.842 49.3585C191.59 49.1062 191.186 49.0557 190.934 49.3081C189.117 50.8725 187.3 52.437 185.534 54.052C185.08 54.4053 184.676 54.809 184.272 55.2127C183.969 55.4651 183.616 55.7174 183.313 56.0202C183.061 56.2675 183.061 56.6763 183.263 56.9286C183.414 57.0296 183.566 57.1305 183.768 57.1305C183.919 57.1305 184.07 57.08 184.171 56.9791C184.726 56.4744 185.282 55.9697 185.837 55.4651L187.654 53.7996C189.016 52.5834 190.379 51.4277 191.741 50.2669C191.994 50.0146 192.044 49.6109 191.842 49.3585M430.553 49.1566C427.979 46.9361 425.304 44.8165 422.68 42.7473C422.377 42.5454 421.973 42.5959 421.771 42.8482C421.569 43.151 421.62 43.5548 421.872 43.7516C424.547 45.7753 427.171 47.9454 429.745 50.1155C429.846 50.2165 429.997 50.2669 430.149 50.2669C430.3 50.2669 430.502 50.166 430.603 50.0146C430.855 49.7623 430.805 49.3585 430.553 49.1566M207.689 36.7417C207.487 36.4894 207.083 36.3884 206.831 36.6408C204.156 38.5585 201.482 40.6781 198.756 42.7978C198.504 43.0501 198.454 43.4034 198.655 43.7062C198.807 43.8576 198.958 43.9585 199.16 43.9585C199.311 43.9585 199.412 43.9081 199.564 43.8071C202.239 41.637 204.913 39.5679 207.588 37.6501C207.84 37.4432 207.891 37.0445 207.689 36.7417M414.454 36.7417C411.678 34.7735 408.852 32.9062 405.975 31.0894C405.723 30.938 405.319 30.9884 405.117 31.2912C404.915 31.594 405.016 31.9978 405.319 32.1492C408.145 33.966 410.971 35.8333 413.747 37.751C413.848 37.852 413.999 37.852 414.1 37.852C414.302 37.852 414.504 37.8015 414.605 37.5996C414.807 37.2968 414.756 36.9436 414.454 36.7417M224.545 25.437C224.343 25.1847 223.94 25.0838 223.687 25.2352C220.811 27.0015 217.934 28.8183 215.108 30.7361C214.805 30.938 214.754 31.3417 214.956 31.6445C215.057 31.7959 215.259 31.8968 215.461 31.8968C215.612 31.8968 215.713 31.8464 215.814 31.7959C218.64 29.8731 221.467 28.0613 224.343 26.3454C224.646 26.1436 224.697 25.7398 224.545 25.437M397.295 25.8912C394.317 24.2258 391.289 22.5604 388.311 21.0413C388.009 20.895 387.605 21.0413 387.454 21.3492C387.302 21.652 387.454 22.0053 387.756 22.2021C390.734 23.7211 393.711 25.2856 396.639 26.951C396.739 27.052 396.84 27.052 396.941 27.052C397.194 27.052 397.396 26.951 397.496 26.7492C397.698 26.4464 397.597 26.0426 397.295 25.8912M242.36 15.8482C242.209 15.495 241.855 15.394 241.502 15.5454C238.525 16.9585 235.446 18.518 232.468 20.138C232.166 20.3398 232.065 20.6931 232.216 20.9959C232.317 21.2482 232.569 21.3492 232.771 21.3492C232.872 21.3492 232.973 21.2987 233.074 21.2482C236.052 19.6333 239.08 18.1193 242.057 16.6557C242.36 16.5043 242.511 16.151 242.36 15.8482M379.126 16.6557C376.048 15.2931 372.919 13.9305 369.79 12.6688C369.487 12.5679 369.083 12.7193 368.982 13.0221C368.831 13.3703 368.982 13.7286 369.336 13.88C372.465 15.0912 375.594 16.4538 378.622 17.8165C378.723 17.8669 378.773 17.8669 378.874 17.8669C379.126 17.8669 379.379 17.7155 379.48 17.5137C379.631 17.1553 379.48 16.8071 379.126 16.6557M260.377 7.87441C257.197 8.93422 253.968 10.1454 250.839 11.4071C250.485 11.5585 250.334 11.9118 250.485 12.2095C250.586 12.4669 250.839 12.6183 251.04 12.6183C251.141 12.6183 251.242 12.6183 251.293 12.5679C254.422 11.3062 257.601 10.095 260.781 9.03516C261.083 8.93422 261.285 8.58095 261.134 8.27815C261.033 7.92488 260.68 7.77347 260.377 7.87441M360.252 9.13609C357.022 8.02581 353.792 7.01647 350.562 6.10806C350.209 6.00712 349.855 6.20899 349.754 6.56226C349.654 6.86507 349.855 7.21834 350.209 7.31927C353.388 8.22768 356.668 9.23703 359.848 10.3473H360.05C360.302 10.3473 360.554 10.1959 360.655 9.94357C360.756 9.58525 360.605 9.23703 360.252 9.13609M280.009 2.62581C276.678 3.27684 273.347 4.0389 270.117 4.94731C269.764 4.99777 269.562 5.35104 269.663 5.70432C269.713 5.95665 269.966 6.15852 270.268 6.15852H270.42C273.65 5.30058 276.981 4.53852 280.261 3.88749C280.564 3.83703 280.816 3.48376 280.766 3.13048C280.665 2.82768 280.362 2.57534 280.009 2.62581M340.67 3.63516C337.339 2.92862 333.958 2.27254 330.678 1.76787C330.325 1.7174 329.971 1.96974 329.921 2.27254C329.87 2.62581 330.123 2.97908 330.476 3.02955C333.756 3.53422 337.087 4.13983 340.418 4.84637C340.468 4.89684 340.519 4.89684 340.519 4.89684C340.822 4.89684 341.074 4.69497 341.175 4.39217C341.225 4.0389 341.024 3.73609 340.67 3.63516M300.246 0.152913H300.196C296.814 0.354782 293.383 0.657586 290.052 1.06132C289.698 1.11179 289.446 1.4146 289.497 1.76787C289.547 2.07067 289.799 2.32301 290.153 2.32301H290.203C293.534 1.91927 296.915 1.61646 300.297 1.4146C300.599 1.4146 300.902 1.11179 300.852 0.753474C300.852 0.455717 300.549 0.152913 300.246 0.152913M320.534 0.556655C317.203 0.253851 313.771 0.0519817 310.39 0.00151443C310.037 0.00151443 309.734 0.253851 309.734 0.607122C309.734 0.960393 309.986 1.2632 310.34 1.2632C313.721 1.31366 317.102 1.51553 320.433 1.81834H320.483C320.837 1.81834 321.089 1.566 321.14 1.21273C321.14 0.854412 320.887 0.556655 320.534 0.556655" fill="#D8D5DB"/>
<path fill-rule="evenodd" clip-rule="evenodd" d="M501.965 136.313L495.404 147.719L494.546 149.182L485.053 165.584L482.989 169.218L422.126 274.594L412.032 292.055L401.939 274.594L365.855 212.115L360.303 202.526L347.934 181.078L318.97 130.913H505.094L501.965 136.313ZM314.63 128.39L347.934 186.074L357.421 202.526L362.978 212.115L399.057 274.594L412.032 297.102L425.053 274.594L485.255 170.278L487.375 166.644L503.832 138.18L508.374 130.257L508.778 129.601L509.484 128.39H314.63Z" fill="white"/>
<path fill-rule="evenodd" clip-rule="evenodd" d="M346.019 385.67C346.17 386.225 345.918 387.038 345.363 388.042C344.101 390.414 341.078 393.795 337.899 396.571C337.238 397.131 336.581 397.681 335.925 398.135C334.008 399.7 332.14 400.916 330.677 401.365C325.529 403.081 303.273 400.154 297.873 397.227C297.525 397.025 297.267 396.823 297.015 396.571C294.8 396.722 291.514 396.773 287.527 396.571C285.71 396.475 283.742 396.319 281.623 396.016C276.626 395.461 270.924 394.3 264.767 392.332C261.738 391.428 258.559 390.263 255.329 388.849C252.301 387.487 249.172 385.922 246.043 384.106C245.286 383.702 244.731 383.197 244.075 382.798C244.681 387.441 245.286 392.029 245.942 396.571C246.144 397.833 246.346 399.094 246.497 400.306C247.053 403.889 247.608 407.426 248.213 410.904C250.585 424.58 253.31 437.449 256.591 448.956C256.894 450.167 257.247 451.383 257.6 452.539C256.54 452.691 255.481 452.847 254.471 452.993C254.724 454.154 254.925 455.37 255.127 456.577C257.651 470.203 259.568 487.008 260.981 504.268C201.733 527.735 146.572 533.236 108.52 509.971C96.4076 502.603 86.0619 492.307 77.8357 478.732C76.5235 476.562 75.2114 474.391 73.8992 472.221C74.1516 465.106 74.4544 459.1 74.7067 455.012C73.7478 454.911 73.2432 454.911 73.2432 454.911C73.2432 446.685 73.5964 435.885 74.1516 423.42C74.202 422.915 74.202 422.41 74.202 421.855C74.4039 418.322 74.6058 414.689 74.8581 410.904C75.06 406.261 75.3628 401.522 75.6656 396.571C76.1198 389.405 76.6245 381.935 77.1796 374.365C64.8656 371.085 54.5703 367.552 48.7665 364.02C41.1964 359.427 38.3198 353.018 38.5217 346.709C38.4207 345.448 38.4207 344.085 38.7235 342.672C41.6002 333.134 51.4918 304.72 62.6955 276.509L50.2805 272.27C50.2805 272.27 86.5665 207.621 107.864 193.39C107.965 193.339 108.015 193.289 108.116 193.238C115.636 186.274 126.486 181.782 142.737 179.965C142.838 166.491 141.778 143.73 140.667 126.319C135.368 125.107 131.785 120.717 129.767 117.083C129.514 116.679 129.262 116.276 129.11 115.922C128.303 114.358 127.849 113.046 127.647 112.39C126.537 107.949 127.596 104.264 129.767 101.892C129.312 98.2083 128.656 92.1523 128.404 85.7934C127.899 74.085 128.555 61.2663 133.854 60.1055C133.804 59.9541 133.703 59.8532 133.653 59.7523C132.29 55.5635 134.763 50.9205 134.864 50.7691L137.084 51.9298C137.084 51.9803 135.066 55.8158 136.024 58.9448C140.264 54.2513 154.546 52.7373 169.535 53.5953C170.393 53.5953 171.301 53.6962 172.159 53.7467C175.238 53.999 178.316 54.3018 181.344 54.756C182.353 54.8569 183.312 55.0083 184.271 55.2102C184.776 55.2607 185.331 55.3616 185.836 55.4625C189.116 56.0177 192.245 56.7242 195.122 57.5317C200.067 58.8943 204.206 60.6102 206.981 62.5784C207.89 63.184 208.596 63.8401 209.202 64.4962C211.725 67.4233 212.129 69.4924 211.019 70.8551C210.363 71.6121 209.303 72.1672 207.89 72.571C208.495 76.8102 208.748 80.4943 208.849 83.8756C209.152 84.6831 209.454 85.541 209.757 86.399C210.01 87.156 210.262 87.9635 210.514 88.771C210.565 88.8214 210.615 88.8214 210.666 88.8719C210.968 89.1242 211.271 89.3261 211.574 89.5784C212.684 90.5878 213.694 91.8495 214.451 93.5149L212.18 94.5747C212.129 94.4738 212.079 94.4233 212.028 94.3224C212.634 96.8962 213.189 99.571 213.593 102.397C214.198 106.586 214.854 110.775 215.51 114.863C215.712 116.427 215.914 117.992 216.116 119.506C216.57 122.635 216.974 125.713 217.226 128.64C217.327 129.549 217.428 130.406 217.428 131.264C218.488 144.588 217.226 155.64 209.253 161.192C207.738 162.302 205.922 163.21 203.853 163.816C201.228 164.674 198.099 165.128 194.466 165.178C194.567 168.711 194.768 172.143 195.071 175.373C195.223 176.634 195.374 177.896 195.576 179.057C195.727 180.268 195.929 181.479 196.181 182.59C209.656 185.82 219.8 191.27 226.21 198.689C226.512 198.992 226.866 199.294 227.168 199.648C230.752 203.13 234.234 208.484 237.514 214.889C241.653 222.913 245.538 232.658 248.97 242.393C249.223 243.15 249.475 243.958 249.778 244.715C250.03 245.573 250.333 246.38 250.585 247.238C251.998 251.427 253.31 255.616 254.522 259.608C255.43 262.58 256.238 265.462 257.045 268.182C260.931 281.864 263.202 291.957 263.202 291.957L257.045 293.416L254.522 294.021L252.705 294.481C253.31 296.898 253.916 299.27 254.522 301.692C254.572 301.945 254.673 302.248 254.724 302.505C255.531 305.634 256.288 308.813 257.045 311.887C260.931 327.683 264.211 342.319 265.675 352.008C270.015 355.592 273.195 361.193 277.888 366.397C282.632 371.64 289.041 376.384 299.892 378.251C299.942 378.251 299.942 378.302 299.993 378.302C304.237 374.971 312.105 371.04 316.899 369.576C317.555 369.42 318.116 369.268 318.615 369.167C319.019 369.066 319.377 369.016 319.675 369.016C321.699 368.612 321.996 368.763 323.208 369.52C323.662 369.874 324.267 370.328 325.226 370.883C329.163 373.205 333.301 375.375 336.884 377.494C341.325 380.073 344.808 382.541 345.817 385.165C345.918 385.322 345.968 385.519 346.019 385.67" fill="#D1CDD3"/>
<path fill-rule="evenodd" clip-rule="evenodd" d="M361.011 370.86C357.413 368.705 358.463 368.433 354.395 369.18C350.004 369.992 340.557 374.524 335.778 378.299C335.727 378.294 335.692 378.269 335.641 378.259C314.001 374.55 310.196 359.243 301.445 351.996C296.595 320.222 272.158 233.751 272.158 233.751L235.338 247.443C240.702 283.875 262.292 353.167 267.894 368.801C268.812 370.694 269.998 372.198 271.326 373.419C273.163 377.3 276.463 381.045 281.798 384.128C303.872 396.891 324.766 397.068 332.76 396.558C333.017 396.816 333.31 397.038 333.643 397.225C339.058 400.182 361.274 403.079 366.462 401.378C371.735 399.647 382.535 388.716 381.758 385.688C380.497 380.742 370.03 376.26 361.011 370.86" fill="#FFAD69"/>
<path fill-rule="evenodd" clip-rule="evenodd" d="M239.119 210.395C228.722 233.761 232.543 307.802 232.543 307.802L298.983 291.965C298.983 291.965 266.532 148.754 239.119 210.395" fill="#377ADB"/>
<path fill-rule="evenodd" clip-rule="evenodd" d="M295.349 488.926C283.848 494.684 272.336 499.827 260.981 504.268C201.732 527.735 146.577 533.236 108.519 509.971C109.074 488.119 109.831 465.358 110.437 455.012C110.538 453.801 110.639 452.741 110.689 451.883L131.078 451.479H131.987L132.037 451.429L242.359 449.264H242.465L249.525 449.107L256.59 448.956L289.192 448.3C289.551 449.814 289.899 451.429 290.202 453.049C292.321 463.344 293.987 475.704 295.349 488.926" fill="#232323"/>
<path fill-rule="evenodd" clip-rule="evenodd" d="M190.312 179.087C150.675 180.394 137.276 193.773 130.443 216.912C122.681 243.186 109.014 401.875 109.014 454.901C109.014 454.901 227.638 463.309 293.351 452.534C272.745 382.935 270.52 257.796 270.106 220.511C269.798 192.542 240.557 177.427 190.312 179.087" fill="#4D8DFF"/>
<mask id="mask1_0:273" style="mask-type:alpha" maskUnits="userSpaceOnUse" x="0" y="0" width="538" height="525">
<path fill-rule="evenodd" clip-rule="evenodd" d="M0 524.895H537.593V0H0V524.895Z" fill="white"/>
</mask>
<g mask="url(#mask1_0:273)">
<path fill-rule="evenodd" clip-rule="evenodd" d="M196.787 317.237H254.522V247.239H196.787V317.237ZM194.264 319.761H257.045V244.716H194.264V319.761Z" fill="white"/>
<path fill-rule="evenodd" clip-rule="evenodd" d="M225.23 114.196C229.131 111.254 249.5 113.924 243.635 72.4549C241.496 57.3248 227.289 67.4233 217.231 69.442C207.168 71.4607 213.567 114.943 213.567 114.943L225.23 114.196Z" fill="#232323"/>
<path fill-rule="evenodd" clip-rule="evenodd" d="M174.516 104.263C176.207 115.255 179.588 174.721 178.18 188.534C176.772 202.347 243.571 206.288 234.83 191.072C226.094 175.851 232.296 125.399 232.296 125.399L174.516 104.263Z" fill="#FFAD69"/>
<path fill-rule="evenodd" clip-rule="evenodd" d="M179.139 105.944L232.286 125.404C232.286 125.404 228.698 154.786 230.863 175.478C190.338 172.344 179.937 121.16 179.255 111.304C179.139 109.446 179.084 107.655 179.139 105.944" fill="#D88344"/>
<path fill-rule="evenodd" clip-rule="evenodd" d="M249.35 102.391C254.275 136.34 262.638 170.193 221.487 164.617C180.331 159.045 173.942 106.282 174.058 96.3345C174.699 43.2278 239.665 35.6324 249.35 102.391" fill="#FFAD69"/>
<path fill-rule="evenodd" clip-rule="evenodd" d="M244.961 64.4836C235.277 53.2344 180.827 48.9901 171.814 58.9524C170.825 55.8234 172.843 51.9778 172.864 51.9425L170.643 50.7464C170.537 50.9382 168.079 55.5761 169.417 59.7447C169.462 59.8759 169.573 59.9667 169.619 60.098C159.656 62.2933 166.015 105.574 166.015 105.574L177.678 104.827C181.579 101.89 195.12 81.2084 198.102 68.7279C219.425 72.3363 257.27 78.781 244.961 64.4836" fill="#232323"/>
<path fill-rule="evenodd" clip-rule="evenodd" d="M239.17 372.058C235.001 372.29 218.827 375.101 213.149 373.784C194.067 369.328 144.892 347.268 118.422 334.939C134.708 299.587 158.68 237.018 158.68 237.018L120.986 225.955C103.494 258.36 79.3351 326.799 74.47 342.681C74.1975 344.104 74.1773 345.442 74.2631 346.723C74.0915 353.007 76.9682 359.421 84.5231 364.024C105.477 376.787 184.524 389.171 206.417 391.589C206.821 392.406 207.355 393.148 208.223 393.638C213.578 396.646 237.944 398.896 242.955 399.785C249.238 400.895 268.31 402.51 267.487 399.956C266.14 395.773 259.069 370.943 239.17 372.058" fill="#FFAD69"/>
<path fill-rule="evenodd" clip-rule="evenodd" d="M143.61 193.409C122.348 207.621 86.0522 272.264 86.0522 272.264L150.686 294.344C150.686 294.344 199.7 155.922 143.61 193.409" fill="#4D8DFF"/>
<path fill-rule="evenodd" clip-rule="evenodd" d="M214.698 100.713C214.567 102.368 215.46 103.786 216.696 103.887C217.938 103.983 219.048 102.726 219.184 101.071C219.321 99.4206 218.422 97.9974 217.181 97.8965C215.944 97.8006 214.829 99.0572 214.698 100.713" fill="#232323"/>
<path fill-rule="evenodd" clip-rule="evenodd" d="M240.912 101.407C240.781 103.063 241.674 104.481 242.911 104.582C244.152 104.678 245.262 103.421 245.399 101.766C245.53 100.115 244.632 98.6923 243.395 98.5914C242.159 98.4955 241.043 99.7521 240.912 101.407" fill="#232323"/>
<path fill-rule="evenodd" clip-rule="evenodd" d="M208.249 91.4225L206.135 90.0448C210.596 83.2115 218.085 84.7962 218.408 84.8668L217.858 87.3296C217.616 87.2791 211.737 86.078 208.249 91.4225" fill="#232323"/>
<path fill-rule="evenodd" clip-rule="evenodd" d="M247.933 94.5691C245.263 88.7604 239.267 89.0783 239.03 89.1035L238.854 86.5852C239.177 86.565 246.817 86.0957 250.224 93.5144L247.933 94.5691Z" fill="#232323"/>
<path fill-rule="evenodd" clip-rule="evenodd" d="M223.12 131.968C218.856 131.968 210.655 130.757 205.563 122.289L207.723 120.987C213.895 131.252 224.968 129.379 225.437 129.294L225.896 131.772C225.856 131.782 224.791 131.968 223.12 131.968" fill="#232323"/>
<path fill-rule="evenodd" clip-rule="evenodd" d="M242.524 120.47L230.271 120.304L230.306 117.781L239.143 117.902L233.687 99.2944L236.105 98.5828L242.524 120.47Z" fill="#D88344"/>
<path fill-rule="evenodd" clip-rule="evenodd" d="M184.496 108.583C188.211 116.96 192.869 125.066 181.196 126.569C169.523 128.078 164.092 114.972 163.431 112.403C159.899 98.7014 177.184 92.1104 184.496 108.583" fill="#FFAD69"/>
<path fill-rule="evenodd" clip-rule="evenodd" d="M500.526 410.889H17.6141C13.6726 410.889 10.4478 407.664 10.4478 403.723C10.4478 399.781 13.6726 396.556 17.6141 396.556H500.526C504.467 396.556 507.692 399.781 507.692 403.723C507.692 407.664 504.467 410.889 500.526 410.889" fill="white"/>
<path fill-rule="evenodd" clip-rule="evenodd" d="M196.329 410.889H14.0314C10.0899 410.889 6.86508 407.664 6.86508 403.723C6.86508 399.781 10.0899 396.556 14.0314 396.556H196.329C200.271 396.556 203.496 399.781 203.496 403.723C203.496 407.664 200.271 410.889 196.329 410.889" fill="#D8D5DB"/>
<path fill-rule="evenodd" clip-rule="evenodd" d="M476.879 385.177H327.082C321.364 385.177 317.569 380.534 318.609 374.811L334.945 284.975C335.99 279.247 341.47 274.609 347.198 274.609H496.99C502.713 274.609 506.508 279.247 505.469 284.975L489.133 374.811C488.088 380.534 482.607 385.177 476.879 385.177" fill="#2B2B2B"/>
<path fill-rule="evenodd" clip-rule="evenodd" d="M480.541 385.177H330.744C325.026 385.177 321.231 380.534 322.27 374.811L338.607 284.975C339.646 279.247 345.132 274.609 350.855 274.609H500.647C506.375 274.609 510.17 279.247 509.131 284.975L492.789 374.811C491.75 380.534 486.264 385.177 480.541 385.177" fill="#232323"/>
<path fill-rule="evenodd" clip-rule="evenodd" d="M430.552 348.071H394.271L400.877 311.739H437.168L430.552 348.071ZM398.757 309.216L391.238 350.594H432.621L440.191 309.216H398.757Z" fill="white"/>
<path fill-rule="evenodd" clip-rule="evenodd" d="M300.81 388.051C300.81 392.729 304.641 396.559 309.324 396.559H466.02C470.703 396.559 474.534 392.729 474.534 388.051H300.81Z" fill="#232323"/>
<path fill-rule="evenodd" clip-rule="evenodd" d="M255.286 388.051C255.286 392.729 259.112 396.559 263.795 396.559H325.416C330.099 396.559 333.929 392.729 333.929 388.051H255.286Z" fill="#2B2B2B"/>
<path fill-rule="evenodd" clip-rule="evenodd" d="M427.407 109.238C422.103 109.238 417.803 113.543 417.803 118.847H437.016C437.016 113.543 432.716 109.238 427.407 109.238" fill="#377ADB"/>
<path fill-rule="evenodd" clip-rule="evenodd" d="M427.417 109.241V202.535C427.417 207.849 423.107 212.114 417.793 212.114H347.941V118.87C347.941 113.551 352.246 109.241 357.525 109.241H427.417Z" fill="#4D8DFF"/>
<path fill-rule="evenodd" clip-rule="evenodd" d="M408.211 202.534L338.324 202.524C338.324 207.828 342.629 212.128 347.938 212.128L417.789 212.113C412.48 212.113 408.211 207.849 408.211 202.534" fill="#6EA9FF"/>
<path fill-rule="evenodd" clip-rule="evenodd" d="M358.388 124.907H416.981V122.383H358.388V124.907Z" fill="white"/>
<path fill-rule="evenodd" clip-rule="evenodd" d="M358.388 134.465H416.981V131.942H358.388V134.465Z" fill="white"/>
<path fill-rule="evenodd" clip-rule="evenodd" d="M358.388 144.024H416.981V141.5H358.388V144.024Z" fill="white"/>
<path fill-rule="evenodd" clip-rule="evenodd" d="M358.388 153.582H416.981V151.059H358.388V153.582Z" fill="white"/>
<path fill-rule="evenodd" clip-rule="evenodd" d="M358.388 163.141H416.981V160.617H358.388V163.141Z" fill="white"/>
<path fill-rule="evenodd" clip-rule="evenodd" d="M358.388 172.699H416.981V170.176H358.388V172.699Z" fill="white"/>
<path fill-rule="evenodd" clip-rule="evenodd" d="M358.388 182.258H416.981V179.734H358.388V182.258Z" fill="white"/>
<path fill-rule="evenodd" clip-rule="evenodd" d="M358.388 191.816H416.981V189.293H358.388V191.816Z" fill="white"/>
<path fill-rule="evenodd" clip-rule="evenodd" d="M525.044 159.368C511.671 172.742 489.98 172.742 476.601 159.368C463.227 145.989 463.227 124.303 476.601 110.925C489.98 97.5457 511.671 97.5457 525.044 110.925C538.418 124.303 538.418 145.989 525.044 159.368" fill="#FFC84D"/>
<path fill-rule="evenodd" clip-rule="evenodd" d="M500.826 135.147L528.043 162.364C513.115 177.298 488.532 177.298 473.604 162.364C467.21 155.965 463.269 147.517 462.476 138.503L500.826 135.147Z" fill="#232323"/>
<path fill-rule="evenodd" clip-rule="evenodd" d="M500.826 135.147L462.592 139.604C462.088 135.289 462.32 130.918 463.279 126.674C464.232 122.435 465.898 118.387 468.209 114.703L500.826 135.147Z" fill="white"/>
<path fill-rule="evenodd" clip-rule="evenodd" d="M333.156 85.592H304.137C300.392 85.592 297.324 82.5287 297.324 78.7789V49.7653C297.324 46.0206 300.392 42.9522 304.137 42.9522H333.156C336.9 42.9522 339.969 46.0206 339.969 49.7653V78.7789C339.969 82.5287 336.9 85.592 333.156 85.592" fill="#232323"/>
<path fill-rule="evenodd" clip-rule="evenodd" d="M324.674 94.0735H295.655C291.91 94.0735 288.842 91.0102 288.842 87.2605V58.2468C288.842 54.5021 291.91 51.4337 295.655 51.4337H324.674C328.418 51.4337 331.487 54.5021 331.487 58.2468V87.2605C331.487 91.0102 328.418 94.0735 324.674 94.0735" fill="#FF4E4A"/>
</g>
</svg>
