<svg width="40" height="16" viewBox="0 0 40 16" fill="none" xmlns="http://www.w3.org/2000/svg">
<path d="M8.99243 8.97461H3.60181V12.3633H9.96899V15H0.174072V0.78125H9.98853V3.42773H3.60181V6.42578H8.99243V8.97461ZM24.0405 15H20.6323L15.5932 6.15234V15H12.1655V0.78125H15.5932L20.6225 9.62891V0.78125H24.0405V15ZM39.0491 13.2422C38.5217 13.8281 37.7502 14.3001 36.7346 14.6582C35.719 15.0163 34.6057 15.1953 33.3948 15.1953C31.5328 15.1953 30.0452 14.6257 28.9319 13.4863C27.8186 12.347 27.2229 10.7617 27.1448 8.73047L27.135 7.5C27.135 6.10026 27.3824 4.87956 27.8772 3.83789C28.372 2.78971 29.0784 1.98568 29.9963 1.42578C30.9208 0.859375 31.9885 0.576172 33.1995 0.576172C34.9703 0.576172 36.344 0.983073 37.3206 1.79688C38.3036 2.60417 38.8765 3.81185 39.0393 5.41992H35.7385C35.6213 4.62565 35.3674 4.05924 34.9768 3.7207C34.5862 3.38216 34.0328 3.21289 33.3167 3.21289C32.4573 3.21289 31.7932 3.57747 31.3245 4.30664C30.8557 5.03581 30.6181 6.07747 30.6116 7.43164V8.29102C30.6116 9.71029 30.8525 10.778 31.3342 11.4941C31.8225 12.2038 32.5875 12.5586 33.6292 12.5586C34.5211 12.5586 35.1851 12.36 35.6213 11.9629V9.75586H33.2385V7.40234H39.0491V13.2422Z" fill="white"/>
<path d="M8.99243 8.97461V9.97461H9.99243V8.97461H8.99243ZM3.60181 8.97461V7.97461H2.60181V8.97461H3.60181ZM3.60181 12.3633H2.60181V13.3633H3.60181V12.3633ZM9.96899 12.3633H10.969V11.3633H9.96899V12.3633ZM9.96899 15V16H10.969V15H9.96899ZM0.174072 15H-0.825928V16H0.174072V15ZM0.174072 0.78125V-0.21875H-0.825928V0.78125H0.174072ZM9.98853 0.78125H10.9885V-0.21875H9.98853V0.78125ZM9.98853 3.42773V4.42773H10.9885V3.42773H9.98853ZM3.60181 3.42773V2.42773H2.60181V3.42773H3.60181ZM3.60181 6.42578H2.60181V7.42578H3.60181V6.42578ZM8.99243 6.42578H9.99243V5.42578H8.99243V6.42578ZM8.99243 7.97461H3.60181V9.97461H8.99243V7.97461ZM2.60181 8.97461V12.3633H4.60181V8.97461H2.60181ZM3.60181 13.3633H9.96899V11.3633H3.60181V13.3633ZM8.96899 12.3633V15H10.969V12.3633H8.96899ZM9.96899 14H0.174072V16H9.96899V14ZM1.17407 15V0.78125H-0.825928V15H1.17407ZM0.174072 1.78125H9.98853V-0.21875H0.174072V1.78125ZM8.98853 0.78125V3.42773H10.9885V0.78125H8.98853ZM9.98853 2.42773H3.60181V4.42773H9.98853V2.42773ZM2.60181 3.42773V6.42578H4.60181V3.42773H2.60181ZM3.60181 7.42578H8.99243V5.42578H3.60181V7.42578ZM7.99243 6.42578V8.97461H9.99243V6.42578H7.99243ZM24.0405 15V16H25.0405V15H24.0405ZM20.6323 15L19.7633 15.4949L20.051 16H20.6323V15ZM15.5932 6.15234L16.4622 5.65744L14.5932 2.37592V6.15234H15.5932ZM15.5932 15V16H16.5932V15H15.5932ZM12.1655 15H11.1655V16H12.1655V15ZM12.1655 0.78125V-0.21875H11.1655V0.78125H12.1655ZM15.5932 0.78125L16.4626 0.287076L16.175 -0.21875H15.5932V0.78125ZM20.6225 9.62891L19.7531 10.1231L21.6225 13.4117V9.62891H20.6225ZM20.6225 0.78125V-0.21875H19.6225V0.78125H20.6225ZM24.0405 0.78125H25.0405V-0.21875H24.0405V0.78125ZM24.0405 14H20.6323V16H24.0405V14ZM21.5012 14.5051L16.4622 5.65744L14.7243 6.64724L19.7633 15.4949L21.5012 14.5051ZM14.5932 6.15234V15H16.5932V6.15234H14.5932ZM15.5932 14H12.1655V16H15.5932V14ZM13.1655 15V0.78125H11.1655V15H13.1655ZM12.1655 1.78125H15.5932V-0.21875H12.1655V1.78125ZM14.7239 1.27542L19.7531 10.1231L21.4919 9.13473L16.4626 0.287076L14.7239 1.27542ZM21.6225 9.62891V0.78125H19.6225V9.62891H21.6225ZM20.6225 1.78125H24.0405V-0.21875H20.6225V1.78125ZM23.0405 0.78125V15H25.0405V0.78125H23.0405ZM39.0491 13.2422L39.7924 13.9112L40.0491 13.6259V13.2422H39.0491ZM27.1448 8.73047L26.1448 8.73841L26.1449 8.75366L26.1455 8.7689L27.1448 8.73047ZM27.135 7.5H26.135L26.135 7.50794L27.135 7.5ZM27.8772 3.83789L28.7805 4.26695L28.7815 4.26477L27.8772 3.83789ZM29.9963 1.42578L30.5171 2.27951L30.5188 2.27847L29.9963 1.42578ZM37.3206 1.79688L36.6804 2.56512L36.6859 2.56969L37.3206 1.79688ZM39.0393 5.41992V6.41992H40.1456L40.0342 5.31922L39.0393 5.41992ZM35.7385 5.41992L34.7492 5.56588L34.8752 6.41992H35.7385V5.41992ZM31.3245 4.30664L32.1656 4.8474L31.3245 4.30664ZM30.6116 7.43164L29.6116 7.42683V7.43164H30.6116ZM31.3342 11.4941L30.5045 12.0523L30.5104 12.061L31.3342 11.4941ZM35.6213 11.9629L36.2946 12.7023L36.6213 12.4048V11.9629H35.6213ZM35.6213 9.75586H36.6213V8.75586H35.6213V9.75586ZM33.2385 9.75586H32.2385V10.7559H33.2385V9.75586ZM33.2385 7.40234V6.40234H32.2385V7.40234H33.2385ZM39.0491 7.40234H40.0491V6.40234H39.0491V7.40234ZM38.3058 12.5732C37.9238 12.9977 37.3151 13.3932 36.4021 13.7151L37.0671 15.6013C38.1854 15.2071 39.1197 14.6586 39.7924 13.9112L38.3058 12.5732ZM36.4021 13.7151C35.5057 14.0311 34.5064 14.1953 33.3948 14.1953V16.1953C34.705 16.1953 35.9323 16.0014 37.0671 15.6013L36.4021 13.7151ZM33.3948 14.1953C31.7528 14.1953 30.5404 13.7016 29.6471 12.7874L28.2167 14.1852C29.5499 15.5497 31.3128 16.1953 33.3948 16.1953V14.1953ZM29.6471 12.7874C28.7509 11.8703 28.2154 10.5462 28.144 8.69204L26.1455 8.7689C26.2304 10.9772 26.8863 12.8238 28.2167 14.1852L29.6471 12.7874ZM28.1447 8.72253L28.135 7.49206L26.135 7.50794L26.1448 8.73841L28.1447 8.72253ZM28.135 7.5C28.135 6.2175 28.3615 5.14897 28.7805 4.26695L26.9739 3.40883C26.4033 4.61014 26.135 5.98302 26.135 7.5H28.135ZM28.7815 4.26477C29.1997 3.37889 29.779 2.72966 30.5171 2.27951L29.4756 0.572051C28.3777 1.24169 27.5443 2.20054 26.9729 3.41101L28.7815 4.26477ZM30.5188 2.27847C31.2681 1.81935 32.1508 1.57617 33.1995 1.57617V-0.423828C31.8263 -0.423828 30.5735 -0.1006 29.4739 0.573094L30.5188 2.27847ZM33.1995 1.57617C34.8274 1.57617 35.9429 1.95052 36.6804 2.5651L37.9607 1.02865C36.7451 0.015624 35.1132 -0.423828 33.1995 -0.423828V1.57617ZM36.6859 2.56969C37.4134 3.16707 37.9007 4.10074 38.0444 5.52062L40.0342 5.31922C39.8524 3.52296 39.1939 2.04127 37.9552 1.02406L36.6859 2.56969ZM39.0393 4.41992H35.7385V6.41992H39.0393V4.41992ZM36.7278 5.27396C36.5941 4.36785 36.2799 3.52678 35.6317 2.96501L34.3219 4.47639C34.4549 4.59171 34.6485 4.88345 34.7492 5.56588L36.7278 5.27396ZM35.6317 2.96501C34.9998 2.41735 34.1809 2.21289 33.3167 2.21289V4.21289C33.8847 4.21289 34.1725 4.34697 34.3219 4.47639L35.6317 2.96501ZM33.3167 2.21289C32.1134 2.21289 31.1341 2.75352 30.4833 3.76588L32.1656 4.8474C32.4523 4.40143 32.8011 4.21289 33.3167 4.21289V2.21289ZM30.4833 3.76588C29.8691 4.72127 29.6185 5.98077 29.6116 7.42683L31.6116 7.43645C31.6176 6.17418 31.8423 5.35034 32.1656 4.8474L30.4833 3.76588ZM29.6116 7.43164V8.29102H31.6116V7.43164H29.6116ZM29.6116 8.29102C29.6116 9.79323 29.8611 11.0959 30.5045 12.0523L32.164 10.936C31.8438 10.4601 31.6116 9.62735 31.6116 8.29102H29.6116ZM30.5104 12.061C31.2257 13.1006 32.3368 13.5586 33.6292 13.5586V11.5586C32.8382 11.5586 32.4193 11.3069 32.1581 10.9273L30.5104 12.061ZM33.6292 13.5586C34.6462 13.5586 35.5995 13.3351 36.2946 12.7023L34.9481 11.2234C34.7707 11.3849 34.3959 11.5586 33.6292 11.5586V13.5586ZM36.6213 11.9629V9.75586H34.6213V11.9629H36.6213ZM35.6213 8.75586H33.2385V10.7559H35.6213V8.75586ZM34.2385 9.75586V7.40234H32.2385V9.75586H34.2385ZM33.2385 8.40234H39.0491V6.40234H33.2385V8.40234ZM38.0491 7.40234V13.2422H40.0491V7.40234H38.0491Z" fill="black"/>
</svg>
