<svg width="23" height="23" viewBox="0 0 23 23" fill="none" xmlns="http://www.w3.org/2000/svg">
<g clip-path="url(#clip0_16_27)">
<path d="M20.5922 2.88848C17.9957 0.705281 13.9842 1.03321 11.5 3.56231C9.01583 1.03321 5.0043 0.700789 2.40782 2.88848C-0.970307 5.73204 -0.476167 10.368 1.93165 12.8252L9.81094 20.8527C10.2602 21.3109 10.8621 21.567 11.5 21.567C12.1424 21.567 12.7399 21.3154 13.1891 20.8572L21.0684 12.8297C23.4717 10.3725 23.9748 5.73653 20.5922 2.88848Z" fill="#474747"/>
<path d="M19.532 11.3113L11.6527 19.3388C11.5449 19.4467 11.4551 19.4467 11.3472 19.3388L3.46794 11.3113C1.8283 9.64021 1.49587 6.47771 3.79587 4.54158C5.54333 3.07263 8.23865 3.29275 9.92771 5.01326L11.5 6.61697L13.0722 5.01326C14.7703 3.28376 17.4656 3.07263 19.2041 4.53708C21.4996 6.47322 21.1582 9.65368 19.532 11.3113Z" fill="#474747"/>
</g>
<defs>
<clipPath id="clip0_16_27">
<rect width="23" height="23" fill="white"/>
</clipPath>
</defs>
</svg>
