<svg width="23" height="23" viewBox="0 0 23 23" fill="none" xmlns="http://www.w3.org/2000/svg">
<g clip-path="url(#clip0_16_16)">
<path d="M20.5922 2.88847C17.9957 0.705266 13.9842 1.0332 11.5 3.5623C9.01583 1.0332 5.0043 0.700774 2.40782 2.88847C-0.970307 5.73202 -0.476167 10.368 1.93165 12.8252L9.81094 20.8527C10.2602 21.3109 10.8621 21.567 11.5 21.567C12.1424 21.567 12.7399 21.3154 13.1891 20.8572L21.0684 12.8297C23.4717 10.3725 23.9748 5.73652 20.5922 2.88847Z" fill="#474747"/>
<path d="M19.532 11.3113L11.6527 19.3389C11.5449 19.4467 11.4551 19.4467 11.3473 19.3389L3.46797 11.3113C1.82833 9.64022 1.49591 6.47772 3.7959 4.54159C5.54337 3.07265 8.23868 3.29276 9.92774 5.01327L11.5 6.61698L13.0723 5.01327C14.7703 3.28378 17.4656 3.07265 19.2041 4.5371C21.4996 6.47323 21.1582 9.6537 19.532 11.3113Z" fill="#474747"/>
</g>
<defs>
<clipPath id="clip0_16_16">
<rect width="23" height="23" fill="white"/>
</clipPath>
</defs>
</svg>
