<?xml version="1.0" encoding="UTF-8" standalone="no" ?>
<!DOCTYPE svg PUBLIC "-//W3C//DTD SVG 1.1//EN" "http://www.w3.org/Graphics/SVG/1.1/DTD/svg11.dtd">
<svg xmlns="http://www.w3.org/2000/svg" xmlns:xlink="http://www.w3.org/1999/xlink" version="1.1" width="195" height="44" viewBox="154 229 195 44" xml:space="preserve">
<desc>Created with Fabric.js 4.6.0</desc>
<defs>
</defs>
<g transform="matrix(1 0 0 1 251.57 250.64)" id="MQjnXxZZnpSXZNSEIT6mY"  >
<g style="" vector-effect="non-scaling-stroke"   >
		<g transform="matrix(1 0 0 1 19.54 0.85)" id="aLvBJhnOvR0REn8ORZCki"  >
<path style="stroke: none; stroke-width: 1; stroke-dasharray: none; stroke-linecap: butt; stroke-dashoffset: 0; stroke-linejoin: miter; stroke-miterlimit: 4; fill: rgb(23,58,86); fill-rule: evenodd; opacity: 1;" vector-effect="non-scaling-stroke"  transform=" translate(-114.71, -17.49)" d="M 101.575 8.8752 C 100.686 8.3184 99.6231 8.04 98.386 8.04 C 97.0523 8.04 95.8587 8.3712 94.8052 9.0336 C 93.7517 9.696 92.9206 10.6464 92.3117 11.8848 C 91.7028 13.1232 91.3983 14.5872 91.3983 16.2768 C 91.3983 17.9472 91.7028 19.4064 92.3117 20.6544 C 92.9206 21.9024 93.7517 22.8576 94.8052 23.52 C 95.8587 24.1824 97.0523 24.5136 98.386 24.5136 C 99.6231 24.5136 100.686 24.2352 101.575 23.6784 C 102.465 23.1216 103.112 22.3632 103.518 21.4032 L 103.518 24.312 L 108.476 24.312 L 108.476 3 L 103.518 3 L 103.518 11.1504 C 103.112 10.1904 102.465 9.432 101.575 8.8752 Z M 48.1094 24.312 L 48.1094 17.1696 L 51.1828 17.1696 C 52.7872 17.1696 54.1499 16.8864 55.2711 16.32 C 56.3922 15.7536 57.2379 14.976 57.8081 13.9872 C 58.3783 12.9984 58.6634 11.8704 58.6634 10.6032 C 58.6634 8.56799 58.0256 6.95041 56.7498 5.7504 C 55.474 4.55039 53.6184 3.9504 51.1828 3.9504 L 43.1513 3.9504 L 43.1513 24.312 L 48.1094 24.312 Z M 53.6184 10.6032 C 53.6184 12.3504 52.6229 13.224 50.6319 13.224 L 48.1094 13.224 L 48.1094 7.9248 L 50.6319 7.9248 C 52.6229 7.9248 53.6184 8.81759 53.6184 10.6032 Z M 66.0571 11.2656 C 66.6756 10.2864 67.473 9.5088 68.4491 8.9328 C 69.4253 8.3568 70.4836 8.0688 71.624 8.0688 L 71.624 13.3392 L 70.2033 13.3392 C 68.8889 13.3392 67.8692 13.6176 67.1444 14.1744 C 66.4195 14.7312 66.0571 15.672 66.0571 16.9968 L 66.0571 24.312 L 61.099 24.312 L 61.099 8.2416 L 66.0571 8.2416 L 66.0571 11.2656 Z M 85.5849 9.0336 C 84.3188 8.3712 82.8836 8.04 81.2792 8.04 C 79.6749 8.04 78.2348 8.3712 76.959 9.0336 C 75.6833 9.696 74.683 10.6512 73.9581 11.8992 C 73.2332 13.1472 72.8708 14.6064 72.8708 16.2768 C 72.8708 17.9472 73.2332 19.4064 73.9581 20.6544 C 74.683 21.9024 75.6833 22.8576 76.959 23.52 C 78.2348 24.1824 79.6749 24.5136 81.2792 24.5136 C 82.8836 24.5136 84.3188 24.1824 85.5849 23.52 C 86.851 22.8576 87.8465 21.9024 88.5714 20.6544 C 89.2962 19.4064 89.6587 17.9472 89.6587 16.2768 C 89.6587 14.6064 89.2962 13.1472 88.5714 11.8992 C 87.8465 10.6512 86.851 9.696 85.5849 9.0336 Z M 81.2792 12.3024 C 80.3321 12.3024 79.5347 12.6432 78.8872 13.3248 C 78.2396 14.0064 77.9159 14.9904 77.9159 16.2768 C 77.9159 17.5632 78.2396 18.5424 78.8872 19.2144 C 79.5347 19.8864 80.3321 20.2224 81.2792 20.2224 C 82.2264 20.2224 83.0189 19.8864 83.6568 19.2144 C 84.2947 18.5424 84.6136 17.5632 84.6136 16.2768 C 84.6136 14.9904 84.2947 14.0064 83.6568 13.3248 C 83.0189 12.6432 82.2264 12.3024 81.2792 12.3024 Z M 99.9807 12.36 C 98.9176 12.36 98.0623 12.7056 97.4147 13.3968 C 96.7672 14.088 96.4434 15.048 96.4434 16.2768 C 96.4434 17.5056 96.7672 18.4656 97.4147 19.1568 C 98.0623 19.848 98.9176 20.1936 99.9807 20.1936 C 101.025 20.1936 101.88 19.8384 102.547 19.128 C 103.214 18.4176 103.547 17.4672 103.547 16.2768 C 103.547 15.0672 103.214 14.112 102.547 13.4112 C 101.88 12.7104 101.025 12.36 99.9807 12.36 Z M 123.002 24.312 L 127.99 24.312 L 127.99 8.2416 L 123.002 8.2416 L 123.002 16.7664 C 123.002 17.9376 122.713 18.84 122.133 19.4736 C 121.553 20.1072 120.76 20.424 119.755 20.424 C 118.789 20.424 118.02 20.1216 117.45 19.5168 C 116.88 18.912 116.595 18.0624 116.595 16.968 L 116.595 8.2416 L 111.666 8.2416 L 111.666 17.5728 C 111.666 19.7232 112.212 21.4128 113.304 22.6416 C 114.396 23.8704 115.87 24.4848 117.725 24.4848 C 118.943 24.4848 120.011 24.2064 120.929 23.6496 C 121.848 23.0928 122.539 22.344 123.002 21.4032 L 123.002 24.312 Z M 138.718 8.04 C 140.805 8.04 142.554 8.61119 143.966 9.7536 C 145.377 10.896 146.266 12.4656 146.633 14.4624 L 141.385 14.4624 C 141.23 13.7712 140.911 13.2336 140.428 12.8496 C 139.945 12.4656 139.336 12.2736 138.602 12.2736 C 137.732 12.2736 137.017 12.6144 136.456 13.296 C 135.895 13.9776 135.615 14.9712 135.615 16.2768 C 135.615 17.5824 135.895 18.576 136.456 19.2576 C 137.017 19.9392 137.732 20.28 138.602 20.28 C 139.336 20.28 139.945 20.088 140.428 19.704 C 140.911 19.32 141.23 18.7824 141.385 18.0912 L 146.633 18.0912 C 146.266 20.088 145.377 21.6576 143.966 22.8 C 142.554 23.9424 140.805 24.5136 138.718 24.5136 C 137.132 24.5136 135.726 24.1824 134.499 23.52 C 133.271 22.8576 132.31 21.9024 131.614 20.6544 C 130.918 19.4064 130.57 17.9472 130.57 16.2768 C 130.57 14.5872 130.913 13.1232 131.599 11.8848 C 132.286 10.6464 133.247 9.696 134.484 9.0336 C 135.721 8.3712 137.132 8.04 138.718 8.04 Z M 158.376 24.312 L 158.376 20.0784 L 156.81 20.0784 C 156.192 20.0784 155.752 19.9536 155.491 19.704 C 155.23 19.4544 155.099 19.0128 155.099 18.3792 L 155.099 12.3888 L 158.347 12.3888 L 158.347 8.2416 L 155.099 8.2416 L 155.099 4.296 L 150.141 4.296 L 150.141 8.2416 L 147.967 8.2416 L 147.967 12.3888 L 150.141 12.3888 L 150.141 18.2928 C 150.141 20.4432 150.668 21.984 151.722 22.9152 C 152.775 23.8464 154.249 24.312 156.143 24.312 L 158.376 24.312 Z M 166.117 3 L 166.117 24.312 L 161.159 24.312 L 161.159 3 L 166.117 3 Z M 177.164 18.0912 L 173.279 8.2416 L 167.741 8.2416 L 174.526 23.7072 L 170.728 31.9728 L 176.179 31.9728 L 186.269 8.2416 L 180.789 8.2416 L 177.164 18.0912 Z" stroke-linecap="round" />
</g>
		<g transform="matrix(1 0 0 1 -77.66 -1.83)" id="R5hWrWmdebV1NDybcL19x"  >
<g style="" vector-effect="non-scaling-stroke"   >
		<g transform="matrix(0.94 0 0 0.94 -9.01 0.44)" id="mjUxezKInIL0uEOzuqLf8"  >
<path style="stroke: rgb(0,0,0); stroke-width: 0; stroke-dasharray: none; stroke-linecap: butt; stroke-dashoffset: 0; stroke-linejoin: miter; stroke-miterlimit: 4; fill: rgb(254,204,47); fill-rule: nonzero; opacity: 1;" vector-effect="non-scaling-stroke"  transform=" translate(0, 0)" d="M -5.24393 -8.81357 C -5.24393 -11.268180000000001 -3.8240299999999996 -13.39212 -1.7585199999999999 -14.41337 L 5.24393 14.41337 L 1.0210999999999997 14.41337 C -2.4389800000000004 14.41337 -5.243930000000001 11.616610000000001 -5.243930000000001 8.166640000000001 z" stroke-linecap="round" />
</g>
		<g transform="matrix(0.88 0 0 0.82 -0.79 -6.03)" id="7dHVYjWPM5Lx27iXbTNoE"  >
<path style="stroke: rgb(0,0,0); stroke-width: 0; stroke-dasharray: none; stroke-linecap: butt; stroke-dashoffset: 0; stroke-linejoin: miter; stroke-miterlimit: 4; fill: rgb(252,59,54); fill-rule: nonzero; opacity: 1;" vector-effect="non-scaling-stroke"  transform=" translate(-10.6, -9.71)" d="M 4.74972 19.42793 L 0 0.6622899999999987 C 0.84523 0.23855999999999872 1.79991 -1.3322676295501878e-15 2.81047 -1.3322676295501878e-15 L 19.754089999999998 -1.3322676295501878e-15 C 20.254299999999997 -1.3322676295501878e-15 20.74082 0.05844999999999867 21.20715 0.16886999999999866 z" stroke-linecap="round" />
</g>
		<g transform="matrix(0.88 0 0 0.88 7.66 -5.61)" id="Grz2xMpd3I01dNrQxTblJ"  >
<path style="stroke: rgb(255,255,255); stroke-width: 0; stroke-dasharray: none; stroke-linecap: butt; stroke-dashoffset: 0; stroke-linejoin: miter; stroke-miterlimit: 4; fill: rgb(53,183,75); fill-rule: nonzero; opacity: 1;" vector-effect="non-scaling-stroke"  transform=" translate(0, 0)" d="M 7.16325 -3.1978 L 7.16325 9.174109999999999 L -7.16324 1.434759999999999 L 2.7227999999999994 -9.17411 C 5.29176 -8.401800000000001 7.16325 -6.018350000000001 7.16325 -3.1977900000000004 z" stroke-linecap="round" />
</g>
		<g transform="matrix(0.91 0 0 0.95 4.26 5.21)" id="MaRZzdiUlMiM6OzkWRAz2"  >
<path style="stroke: rgb(255,255,255); stroke-width: 0; stroke-dasharray: none; stroke-linecap: butt; stroke-dashoffset: 0; stroke-linejoin: miter; stroke-miterlimit: 4; fill: rgb(21,127,251); fill-rule: nonzero; opacity: 1;" vector-effect="non-scaling-stroke"  transform=" translate(-10.69, -9.27)" d="M 21.38293 12.30012 C 21.38293 15.7501 18.577980000000004 18.54685 15.117900000000002 18.54685 L 2.174210000000002 18.54685 L 2.220446049250313e-15 7.372449999999999 L 7.2874500000000015 -8.881784197001252e-16 L 21.38293 7.437589999999999 z" stroke-linecap="round" />
</g>
</g>
</g>
</g>
</g>
</svg>