<svg width="440" height="280" viewBox="0 0 440 280" fill="none" xmlns="http://www.w3.org/2000/svg">
<path d="M432 280H8C3.6 280 0 276.4 0 272V8C0 3.6 3.6 0 8 0H432C436.4 0 440 3.6 440 8V272C440 276.4 436.4 280 432 280Z" fill="black"/>
<g clip-path="url(#clip0_14713:76)">
<path d="M229.766 139.475C227.285 139.475 225.496 140.289 223.682 141.118V159.876C225.419 160.042 226.415 160.042 228.064 160.042C234.02 160.042 234.836 157.314 234.836 153.506V144.546C234.836 141.734 233.903 139.475 229.766 139.475V139.475ZM190.21 138.451C186.077 138.451 185.134 140.72 185.134 143.529V145.108H195.28V143.529C195.28 140.72 194.337 138.451 190.21 138.451ZM113.581 157.976C113.581 160.199 114.629 161.353 116.944 161.353C119.427 161.353 120.897 160.544 122.71 159.712V155.262H117.281C114.71 155.262 113.581 155.741 113.581 157.976ZM268.245 139.475C264.105 139.475 262.671 141.734 262.671 144.546V154.81C262.671 157.63 264.105 159.896 268.245 159.896C272.373 159.896 273.818 157.63 273.818 154.81V144.546C273.817 141.734 272.372 139.475 268.245 139.475V139.475ZM93.2946 169.485H81.1263V140.033H75.0464V129.884H81.1277V123.789C81.1277 115.508 84.5593 110.586 94.3128 110.586H102.433V120.737H97.3577C93.5603 120.737 93.3099 122.156 93.3099 124.803L93.2946 129.883H102.489L101.414 140.031H93.2946V169.485V169.485ZM134.881 169.562H124.739L124.301 166.997C119.67 169.562 115.538 169.978 112.811 169.978C105.374 169.978 101.415 165.009 101.415 158.138C101.415 150.031 106.035 147.138 114.298 147.138H122.71V145.385C122.71 141.247 122.235 140.033 115.872 140.033H105.467L106.484 129.884H117.857C131.819 129.884 134.881 134.295 134.881 145.467V169.562V169.562ZM169.367 140.777C163.056 139.695 161.244 139.457 158.207 139.457C152.753 139.457 151.105 140.66 151.105 145.292V154.054C151.105 158.686 152.753 159.894 158.207 159.894C161.244 159.894 163.056 159.652 169.367 158.566V168.466C163.839 169.705 160.238 170.03 157.195 170.03C144.131 170.03 138.938 163.16 138.938 153.236V146.126C138.938 136.193 144.131 129.311 157.195 129.311C160.238 129.311 163.839 129.638 169.367 130.883V140.777V140.777ZM207.447 153.236H185.133V154.054C185.133 158.686 186.782 159.894 192.235 159.894C197.137 159.894 200.129 159.652 206.428 158.566V168.466C200.353 169.705 197.187 170.03 191.226 170.03C178.161 170.03 172.966 163.16 172.966 153.236V145.107C172.966 136.423 176.82 129.311 190.208 129.311C203.596 129.311 207.447 136.341 207.447 145.107V153.236V153.236ZM247.002 153.424C247.002 163.016 244.26 170.012 227.652 170.012C221.654 170.012 218.136 169.485 211.517 168.467V113.635L223.681 111.605V130.785C226.31 129.809 229.712 129.312 232.808 129.312C244.974 129.312 247 134.766 247 143.531V153.424H247.002ZM285.995 153.632C285.995 161.907 282.579 169.933 268.285 169.933C253.985 169.933 250.504 161.907 250.504 153.632V145.642C250.504 137.363 253.985 129.336 268.285 129.336C282.579 129.336 285.995 137.363 285.995 145.642V153.632ZM324.962 153.632C324.962 161.907 321.542 169.933 307.251 169.933C292.95 169.933 289.47 161.907 289.47 153.632V145.642C289.47 137.363 292.95 129.336 307.251 129.336C321.542 129.336 324.962 137.363 324.962 145.642V153.632ZM364.951 169.485H351.766L340.615 150.87V169.485H328.446V113.633L340.615 111.604V147.559L351.766 129.884H364.951L352.777 149.173L364.951 169.485V169.485ZM307.209 139.475C303.076 139.475 301.642 141.734 301.642 144.546V154.81C301.642 157.63 303.076 159.896 307.209 159.896C311.336 159.896 312.796 157.63 312.796 154.81V144.546C312.796 141.734 311.336 139.475 307.209 139.475ZM371.896 162.539C373.945 162.539 375.577 164.209 375.577 166.296C375.577 168.414 373.944 170.067 371.881 170.067C369.828 170.067 368.163 168.414 368.163 166.296C368.163 164.209 369.828 162.539 371.881 162.539H371.896V162.539ZM371.881 163.123C370.23 163.123 368.879 164.543 368.879 166.296C368.879 168.08 370.231 169.482 371.896 169.482C373.563 169.499 374.894 168.08 374.894 166.312C374.894 164.544 373.563 163.123 371.896 163.123H371.881V163.123ZM371.181 168.482H370.514V164.29C370.864 164.241 371.198 164.192 371.699 164.192C372.333 164.192 372.748 164.326 373.002 164.508C373.248 164.693 373.38 164.976 373.38 165.375C373.38 165.928 373.016 166.261 372.567 166.396V166.428C372.933 166.496 373.182 166.827 373.266 167.443C373.364 168.096 373.465 168.345 373.531 168.481H372.831C372.732 168.345 372.631 167.962 372.547 167.41C372.45 166.877 372.18 166.677 371.646 166.677H371.183V168.482H371.181ZM371.181 166.162H371.665C372.213 166.162 372.679 165.96 372.679 165.442C372.679 165.074 372.415 164.709 371.665 164.709C371.447 164.709 371.295 164.725 371.181 164.741V166.162Z" fill="white"/>
</g>
<defs>
<clipPath id="clip0_14713:76">
<rect width="370" height="139.12" fill="white" transform="translate(35 70.4753)"/>
</clipPath>
</defs>
</svg>
