<svg width="440" height="281" viewBox="0 0 440 281" fill="none" xmlns="http://www.w3.org/2000/svg">
<path d="M432 280.525H8C3.6 280.525 0 276.925 0 272.525V8.52466C0 4.12466 3.6 0.524658 8 0.524658H432C436.4 0.524658 440 4.12466 440 8.52466V272.525C440 276.925 436.4 280.525 432 280.525Z" fill="#E6E6E6"/>
<g clip-path="url(#clip0_14708:99)">
<path d="M229.766 139.999C227.285 139.999 225.496 140.813 223.682 141.642V160.401C225.419 160.566 226.415 160.566 228.064 160.566C234.02 160.566 234.836 157.839 234.836 154.03V145.071C234.836 142.258 233.903 139.999 229.766 139.999ZM190.21 138.976C186.077 138.976 185.134 141.244 185.134 144.054V145.633H195.28V144.054C195.28 141.244 194.337 138.976 190.21 138.976ZM113.581 158.501C113.581 160.724 114.629 161.878 116.944 161.878C119.427 161.878 120.897 161.069 122.71 160.237V155.787H117.281C114.71 155.787 113.581 156.266 113.581 158.501ZM268.245 139.999C264.105 139.999 262.671 142.258 262.671 145.071V155.335C262.671 158.154 264.105 160.42 268.245 160.42C272.373 160.42 273.818 158.154 273.818 155.335V145.071C273.817 142.258 272.372 139.999 268.245 139.999ZM93.2946 170.01H81.1263V140.557H75.0464V130.409H81.1277V124.313C81.1277 116.033 84.5593 111.11 94.3128 111.11H102.433V121.262H97.3577C93.5603 121.262 93.3099 122.68 93.3099 125.327L93.2946 130.407H102.489L101.414 140.556H93.2946V170.01ZM134.881 170.086H124.739L124.301 167.521C119.67 170.086 115.538 170.502 112.811 170.502C105.374 170.502 101.415 165.534 101.415 158.662C101.415 150.556 106.035 147.662 114.298 147.662H122.71V145.91C122.71 141.772 122.235 140.557 115.872 140.557H105.467L106.484 130.409H117.857C131.819 130.409 134.881 134.819 134.881 145.992V170.086ZM169.367 141.301C163.056 140.219 161.244 139.981 158.207 139.981C152.753 139.981 151.105 141.185 151.105 145.817V154.578C151.105 159.21 152.753 160.419 158.207 160.419C161.244 160.419 163.056 160.177 169.367 159.091V168.99C163.839 170.23 160.238 170.555 157.195 170.555C144.131 170.555 138.938 163.685 138.938 153.76V146.651C138.938 136.718 144.131 129.836 157.195 129.836C160.238 129.836 163.839 130.162 169.367 131.407V141.301ZM207.447 153.76H185.133V154.578C185.133 159.21 186.782 160.419 192.235 160.419C197.137 160.419 200.129 160.177 206.428 159.091V168.99C200.353 170.23 197.187 170.555 191.226 170.555C178.161 170.555 172.966 163.685 172.966 153.76V145.632C172.966 136.948 176.82 129.836 190.208 129.836C203.596 129.836 207.447 136.866 207.447 145.632V153.76ZM247.002 153.948C247.002 163.54 244.26 170.537 227.652 170.537C221.654 170.537 218.136 170.01 211.517 168.992V114.159L223.681 112.13V131.31C226.31 130.334 229.712 129.837 232.808 129.837C244.974 129.837 247 135.291 247 144.056V153.948H247.002ZM285.995 154.157C285.995 162.432 282.579 170.458 268.285 170.458C253.985 170.458 250.504 162.432 250.504 154.157V146.167C250.504 137.888 253.985 129.861 268.285 129.861C282.579 129.861 285.995 137.888 285.995 146.167V154.157ZM324.962 154.157C324.962 162.432 321.542 170.458 307.251 170.458C292.95 170.458 289.47 162.432 289.47 154.157V146.167C289.47 137.888 292.95 129.861 307.251 129.861C321.542 129.861 324.962 137.888 324.962 146.167V154.157ZM364.951 170.01H351.766L340.615 151.394V170.01H328.446V114.158L340.615 112.128V148.084L351.766 130.409H364.951L352.777 149.697L364.951 170.01ZM307.209 139.999C303.076 139.999 301.642 142.258 301.642 145.071V155.335C301.642 158.154 303.076 160.42 307.209 160.42C311.336 160.42 312.796 158.154 312.796 155.335V145.071C312.796 142.258 311.336 139.999 307.209 139.999ZM371.896 163.063C373.945 163.063 375.577 164.734 375.577 166.82C375.577 168.939 373.944 170.591 371.881 170.591C369.828 170.591 368.163 168.939 368.163 166.82C368.163 164.734 369.828 163.063 371.881 163.063H371.896ZM371.881 163.647C370.23 163.647 368.879 165.068 368.879 166.82C368.879 168.605 370.231 170.007 371.896 170.007C373.563 170.024 374.894 168.605 374.894 166.837C374.894 165.069 373.563 163.647 371.896 163.647H371.881ZM371.181 169.007H370.514V164.814C370.864 164.766 371.198 164.717 371.699 164.717C372.333 164.717 372.748 164.851 373.002 165.033C373.248 165.218 373.38 165.5 373.38 165.899C373.38 166.453 373.016 166.785 372.567 166.92V166.952C372.933 167.021 373.182 167.352 373.266 167.968C373.364 168.62 373.465 168.869 373.531 169.005H372.831C372.732 168.869 372.631 168.487 372.547 167.934C372.45 167.402 372.18 167.201 371.646 167.201H371.183V169.007H371.181ZM371.181 166.687H371.665C372.213 166.687 372.679 166.485 372.679 165.966C372.679 165.599 372.415 165.233 371.665 165.233C371.447 165.233 371.295 165.25 371.181 165.265V166.687Z" fill="black"/>
</g>
<defs>
<clipPath id="clip0_14708:99">
<rect width="370" height="139.12" fill="white" transform="translate(35 71)"/>
</clipPath>
</defs>
</svg>
