<svg width="245" height="51" viewBox="0 0 245 51" fill="none" xmlns="http://www.w3.org/2000/svg">
<path fill-rule="evenodd" clip-rule="evenodd" d="M10.8798 30.4699L8.4998 34.9499V49.9999H0.799805V0.999941H8.4998V22.3499L18.5798 0.999941H26.2798L15.5698 22.8399L26.2798 49.9999H18.3698L10.8798 30.4699ZM37.1498 38.7299C37.1498 40.5033 37.5115 41.7516 38.2348 42.4749C38.9581 43.1983 39.9265 43.5599 41.1398 43.5599C42.3531 43.5599 43.3215 43.1983 44.0448 42.4749C44.7681 41.7516 45.1298 40.5033 45.1298 38.7299V12.2699C45.1298 10.4966 44.7681 9.24828 44.0448 8.52494C43.3215 7.8016 42.3531 7.43994 41.1398 7.43994C39.9265 7.43994 38.9581 7.8016 38.2348 8.52494C37.5115 9.24828 37.1498 10.4966 37.1498 12.2699V38.7299ZM29.4498 12.7599C29.4498 8.79325 30.4531 5.74829 32.4598 3.62494C34.4665 1.5016 37.3598 0.439941 41.1398 0.439941C44.9198 0.439941 47.8131 1.5016 49.8198 3.62494C51.8265 5.74829 52.8298 8.79325 52.8298 12.7599V38.2399C52.8298 42.2066 51.8265 45.2516 49.8198 47.3749C47.8131 49.4983 44.9198 50.5599 41.1398 50.5599C37.3598 50.5599 34.4665 49.4983 32.4598 47.3749C30.4531 45.2516 29.4498 42.2066 29.4498 38.2399V12.7599ZM65.4498 14.5099V49.9999H58.5198V0.999941H68.1798L76.0898 30.3299V0.999941H82.9498V49.9999H75.0398L65.4498 14.5099ZM88.2898 12.7599C88.2898 8.79325 89.2348 5.74829 91.1248 3.62494C93.0148 1.5016 95.8498 0.439941 99.6298 0.439941C103.41 0.439941 106.245 1.5016 108.135 3.62494C110.025 5.74829 110.97 8.79325 110.97 12.7599V14.2999H103.69V12.2699C103.69 10.4966 103.351 9.24828 102.675 8.52494C101.998 7.8016 101.053 7.43994 99.8398 7.43994C98.6265 7.43994 97.6815 7.8016 97.0048 8.52494C96.3281 9.24828 95.9898 10.4966 95.9898 12.2699C95.9898 13.9499 96.3631 15.4316 97.1098 16.7149C97.8565 17.9983 98.7898 19.2116 99.9098 20.3549C101.03 21.4983 102.231 22.6416 103.515 23.7849C104.798 24.9283 106 26.1766 107.12 27.5299C108.24 28.8833 109.173 30.4233 109.92 32.1499C110.666 33.8766 111.04 35.9066 111.04 38.2399C111.04 42.2066 110.071 45.2516 108.135 47.3749C106.198 49.4983 103.34 50.5599 99.5598 50.5599C95.7798 50.5599 92.9215 49.4983 90.9848 47.3749C89.0481 45.2516 88.0798 42.2066 88.0798 38.2399V35.2299H95.3598V38.7299C95.3598 40.5033 95.7215 41.7399 96.4448 42.4399C97.1681 43.1399 98.1365 43.4899 99.3498 43.4899C100.563 43.4899 101.531 43.1399 102.255 42.4399C102.978 41.7399 103.34 40.5033 103.34 38.7299C103.34 37.0499 102.966 35.5683 102.22 34.2849C101.473 33.0016 100.54 31.7883 99.4198 30.6449C98.2998 29.5016 97.0981 28.3583 95.8148 27.2149C94.5315 26.0716 93.3298 24.8233 92.2098 23.4699C91.0898 22.1166 90.1565 20.5766 89.4098 18.8499C88.6631 17.1233 88.2898 15.0933 88.2898 12.7599ZM114 0.999941H137.8V7.99994H129.75V49.9999H122.05V7.99994H114V0.999941ZM158.05 49.9999C157.956 49.6733 157.863 49.3699 157.77 49.0899C157.676 48.8099 157.595 48.4599 157.525 48.0399C157.455 47.6199 157.408 47.0833 157.385 46.4299C157.361 45.7766 157.35 44.9599 157.35 43.9799V36.2799C157.35 33.9933 156.953 32.3833 156.16 31.4499C155.366 30.5166 154.083 30.0499 152.31 30.0499H149.65V49.9999H141.95V0.999941H153.57C157.583 0.999941 160.488 1.93327 162.285 3.79994C164.081 5.66662 164.98 8.48992 164.98 12.2699V16.1199C164.98 21.16 163.3 24.4733 159.94 26.0599C161.9 26.8533 163.241 28.1483 163.965 29.9449C164.688 31.7416 165.05 33.9233 165.05 36.4899V44.0499C165.05 45.2633 165.096 46.3249 165.19 47.2349C165.283 48.1449 165.516 49.0666 165.89 49.9999H158.05ZM149.65 7.99994V23.0499H152.66C154.106 23.0499 155.238 22.6766 156.055 21.9299C156.871 21.1833 157.28 19.83 157.28 17.8699V13.0399C157.28 11.2666 156.965 9.98328 156.335 9.18994C155.705 8.3966 154.713 7.99994 153.36 7.99994H149.65ZM178.23 0.999941V38.7999C178.23 40.5733 178.591 41.8099 179.315 42.5099C180.038 43.2099 181.006 43.5599 182.22 43.5599C183.433 43.5599 184.401 43.2099 185.125 42.5099C185.848 41.8099 186.21 40.5733 186.21 38.7999V0.999941H193.49V38.3099C193.49 42.2766 192.521 45.3216 190.585 47.4449C188.648 49.5683 185.79 50.6299 182.01 50.6299C178.23 50.6299 175.371 49.5683 173.435 47.4449C171.498 45.3216 170.53 42.2766 170.53 38.3099V0.999941H178.23ZM220.57 0.999941H244.37V7.99994H236.32V49.9999H228.62V7.99994H220.57V0.999941Z" fill="#1A1A1A"/>
</svg>
