<svg width="90" height="88" viewBox="0 0 90 88" fill="none" xmlns="http://www.w3.org/2000/svg">
<path d="M4.29516 3.95255H86.0556V84.0554H4.29516V3.95255ZM0.57959 87.797H89.7891V0.210938H0.57959V87.797ZM59.0105 31.439C59.0105 31.1332 59.1177 30.9893 59.4571 30.9893H65.2984C65.6021 30.9893 65.745 31.0972 65.745 31.439V60.9761C65.745 61.2819 65.6736 61.4258 65.2984 61.4258H59.5286C59.1535 61.4258 59.0463 61.246 59.0463 60.9402V31.439H59.0105ZM58.5997 22.9304C58.5997 20.538 60.2788 19.1169 62.3867 19.1169C64.6554 19.1169 66.1737 20.6459 66.1737 22.9304C66.1737 25.3949 64.5839 26.744 62.3153 26.744C60.1717 26.762 58.5997 25.4128 58.5997 22.9304ZM41.8796 43.7431C40.8435 39.5878 38.3784 30.5396 37.4495 26.1504H37.3781C36.5921 30.5216 34.6271 37.9328 33.073 43.7431H41.8796ZM31.5546 49.8053L28.625 61.0301C28.5536 61.3359 28.4464 61.4079 28.0713 61.4079H22.6051C22.2299 61.4079 22.1585 61.2999 22.2299 60.8502L32.7872 23.65C32.9658 22.9844 33.0909 22.3728 33.1623 20.538C33.1623 20.2681 33.2695 20.1602 33.466 20.1602H41.2723C41.5402 20.1602 41.6474 20.2321 41.7188 20.538L53.5444 60.9222C53.6158 61.228 53.5444 61.4079 53.2407 61.4079H47.0778C46.7742 61.4079 46.5955 61.3359 46.5241 61.0661L43.4694 49.8053H31.5546Z" fill="#FF7F18"/>
</svg>
