<svg width="13" height="18" viewBox="0 0 13 18" fill="none" xmlns="http://www.w3.org/2000/svg">
<path d="M12.5884 5.81641C12.5884 3.23157 10.4799 1.12891 7.88793 1.12891H0.837158V17.5352H7.88793C10.4799 17.5352 12.5884 15.4325 12.5884 12.8477C12.5884 11.4487 11.97 10.1917 10.9919 9.33203C11.97 8.47235 12.5884 7.21533 12.5884 5.81641ZM10.2382 12.8477C10.2382 14.1401 9.18393 15.1914 7.88793 15.1914H3.18741V10.5039H7.88793C9.18393 10.5039 10.2382 11.5552 10.2382 12.8477ZM3.18741 8.16016V3.47266H7.88793C9.18393 3.47266 10.2382 4.52399 10.2382 5.81641C10.2382 7.10883 9.18393 8.16016 7.88793 8.16016H3.18741Z" fill="#070707" stroke="#070707" stroke-width="0.5"/>
</svg>
