<svg width="40" height="41" viewBox="0 0 40 41" fill="none" xmlns="http://www.w3.org/2000/svg">
<path d="M31.0039 7.45072L31.3097 7.06648L30.931 6.75384C28.0157 4.34669 24.313 2.9088 20.2621 2.9088C18.8429 2.9088 17.467 3.10762 16.1642 3.43333L15.4371 3.61512L15.8842 4.21667C17.2748 6.08755 19.2725 8.91311 21.6649 13.3384L21.8715 13.7206L22.2788 13.5694C26.8061 11.8883 29.519 9.31687 31.0039 7.45072ZM13.7036 4.69294L13.4586 4.37016L13.0921 4.54305C8.59593 6.66388 5.18957 10.7147 3.84491 15.6617L3.67883 16.2727L4.31168 16.2926C6.78757 16.3705 12.7058 16.2538 19.2634 14.497L19.8819 14.3313L19.5712 13.7715C17.0278 9.18777 14.8888 6.25423 13.7036 4.69294ZM33.1574 8.95193L32.7697 8.49129L32.3881 8.95702C30.7321 10.9782 27.8569 13.6036 23.3045 15.3849L22.7982 15.583L23.0379 16.071C24.0194 18.0691 24.9716 20.1984 25.8392 22.4979L25.9821 22.8767L26.3825 22.8156C29.6757 22.3128 32.7199 22.3127 35.0193 22.4928C35.5784 22.5392 35.9392 22.5913 36.3591 22.652C36.4475 22.6647 36.5386 22.6779 36.6347 22.6915L37.1467 22.7637L37.2017 22.2495C37.2691 21.6189 37.3079 20.9857 37.3079 20.3311C37.3079 15.9775 35.7306 12.009 33.1574 8.95193ZM21.0104 16.5792L20.8253 16.2081L20.4263 16.3214C12.7131 18.5127 5.91836 18.4458 3.80231 18.3604L3.32048 18.3409L3.28361 18.8217L3.28103 18.8554C3.24446 19.3319 3.20693 19.821 3.20693 20.3407C3.20693 25.5744 5.4713 30.2464 9.04225 33.4433L9.41504 33.7771L9.74852 33.4041C10.6436 32.4027 11.8442 31.1274 13.3039 29.7962L13.3058 29.7944C16.0521 27.2627 19.5855 24.5839 23.4345 23.4151L23.9514 23.2582L23.7551 22.7549C22.8935 20.5472 21.9659 18.495 21.0104 16.5792ZM30.5 24.4754L30.5 24.4754L30.4946 24.4756C29.4834 24.5244 28.4071 24.6219 27.3126 24.7679L26.7178 24.8473L26.9032 25.418C27.8269 28.2618 28.591 31.2744 29.0846 34.4082L29.2089 35.1971L29.8643 34.7407C33.0503 32.5221 35.4604 29.2251 36.5831 25.3547L36.7483 24.7851L36.159 24.7186C34.6989 24.5538 32.8476 24.3876 30.5 24.4754ZM24.8439 25.6607L24.6903 25.2073L24.2307 25.3411C20.8494 26.3249 17.3126 28.876 14.6322 31.3363C13.3369 32.515 12.2908 33.6338 11.4513 34.5503L11.0386 35.0009L11.5619 35.3163C14.1075 36.8506 17.0634 37.7533 20.2527 37.7533C22.6464 37.7533 24.9041 37.2476 26.966 36.3566L27.314 36.2062L27.2631 35.8305C26.7788 32.2566 25.9246 28.8505 24.8439 25.6607ZM1.20801 20.3311C1.20801 9.57784 9.77525 0.832031 20.2621 0.832031C30.749 0.832031 39.3163 9.57784 39.3163 20.3311C39.3163 31.0843 30.749 39.8301 20.2621 39.8301C9.77525 39.8301 1.20801 31.0843 1.20801 20.3311Z" fill="#070707" stroke="#070707"/>
</svg>
