<svg width="41" height="41" viewBox="0 0 41 41" fill="none" xmlns="http://www.w3.org/2000/svg">
<path d="M34.9434 0.332031H6.58365C3.34378 0.332031 0.708008 2.96051 0.708008 6.19141V34.4727C0.708008 37.7036 3.34378 40.332 6.58365 40.332H34.9434C38.1833 40.332 40.819 37.7036 40.819 34.4727V6.19141C40.819 2.96051 38.1833 0.332031 34.9434 0.332031ZM38.4688 34.4727C38.4688 36.4111 36.8873 37.9883 34.9434 37.9883H6.58365C4.63979 37.9883 3.05826 36.4111 3.05826 34.4727V6.19141C3.05826 4.25293 4.63979 2.67578 6.58365 2.67578H34.9434C36.8873 2.67578 38.4688 4.25293 38.4688 6.19141V34.4727Z" fill="#070707" stroke="#070707" stroke-width="0.5"/>
</svg>
