<svg width="42" height="41" viewBox="0 0 42 41" fill="none" xmlns="http://www.w3.org/2000/svg">
<path d="M35.2829 0.332031H6.8838C3.63944 0.332031 1 2.9351 1 6.13476V34.1426C1 37.3422 3.63944 39.9453 6.8838 39.9453H35.2829C38.5273 39.9453 41.1667 37.3422 41.1667 34.1426V6.13476C41.1667 2.9351 38.5273 0.332031 35.2829 0.332031ZM38.8132 34.1426C38.8132 36.0623 37.2295 37.6242 35.2829 37.6242H6.8838C4.93724 37.6242 3.35352 36.0623 3.35352 34.1426V6.13476C3.35352 4.21502 4.93724 2.65312 6.8838 2.65312H35.2829C37.2295 2.65312 38.8132 4.21502 38.8132 6.13476V34.1426Z" fill="#070707" stroke="#070707" stroke-width="0.5"/>
</svg>
