<svg width="40" height="41" viewBox="0 0 40 41" fill="none" xmlns="http://www.w3.org/2000/svg">
<path d="M12.0644 0.841641H12.5644V0.832031H28.4692C34.4338 0.832031 39.3163 5.81672 39.3163 11.9441V28.718C39.3163 34.8457 34.4335 39.8301 28.4786 39.8301H12.0644C6.09854 39.8301 1.20801 34.8536 1.20801 28.7373V11.9537C1.20801 5.82688 6.09934 0.841641 12.0644 0.841641ZM3.21634 11.9623V11.9633V28.7469C3.21634 33.733 7.14389 37.7637 12.0644 37.7637H28.4786C33.3818 37.7637 37.3079 33.7315 37.3079 28.7277V11.9537C37.3079 6.94943 33.3815 2.91768 28.4692 2.91768H12.0644C7.15168 2.91768 3.22626 6.94976 3.21634 11.9623ZM31.3007 8.03173C31.3007 7.4418 31.7547 6.99371 32.3048 6.99371C32.855 6.99371 33.309 7.4418 33.309 8.03173C33.309 8.62166 32.855 9.06975 32.3048 9.06975C31.7547 9.06975 31.3007 8.62166 31.3007 8.03173ZM10.2424 20.3359C10.2424 14.6801 14.7671 10.0697 20.2715 10.0697C25.776 10.0697 30.3007 14.6801 30.3007 20.3359C30.3007 25.9916 25.776 30.602 20.2715 30.602C14.7671 30.602 10.2424 25.9916 10.2424 20.3359ZM28.2924 20.3359C28.2924 15.8023 24.7322 12.1458 20.2715 12.1458C15.8109 12.1458 12.2507 15.8023 12.2507 20.3359C12.2507 24.8695 15.8109 28.5259 20.2715 28.5259C24.7322 28.5259 28.2924 24.8695 28.2924 20.3359Z" fill="#070707" stroke="#070707"/>
</svg>
