<svg width="5" height="14" viewBox="0 0 5 14" fill="none" xmlns="http://www.w3.org/2000/svg">
<path d="M4.31911 13.7054H4.31764H4.30925H4.30086H4.29247H4.28409H4.2757H4.26731H4.25893H4.25054H4.24216H4.23377H4.22539H4.21701H4.20862H4.20024H4.19185H4.18347H4.17509H4.16671H4.15832H4.14994H4.14156H4.13318H4.1248H4.11642H4.10804H4.09966H4.09128H4.0829H4.07452H4.06614H4.05776H4.04938H4.041H4.03263H4.02425H4.01587H4.00749H3.99912H3.99074H3.98236H3.97399H3.96561H3.95724H3.94886H3.94049H3.93211H3.92374H3.91536H3.90699H3.89862H3.89024H3.88187H3.8735H3.86512H3.85675H3.84838H3.84001H3.83164H3.82326H3.81489H3.80652H3.79815H3.78978H3.78141H3.77304H3.76467H3.7563H3.74793H3.73956H3.73119H3.72283H3.71446H3.70609H3.69772H3.68935H3.68099H3.67262H3.66425H3.65588H3.64752H3.63915H3.63079H3.62242H3.61405H3.60569H3.59732H3.58896H3.58059H3.57223H3.56386H3.5555H3.54714H3.53877H3.53041H3.52204H3.51368H3.50532H3.49695H3.48859H3.48023H3.47187H3.46351H3.45514H3.44678H3.43842H3.43006H3.4217H3.41334H3.40498H3.39661H3.38825H3.37989H3.37153H3.36317H3.35481H3.34645H3.3381H3.32974H3.32138H3.31302H3.30466H3.2963H3.28794H3.27958H3.27123H3.26287H3.25451H3.24615H3.23779H3.22944H3.22108H3.21272H3.20437H3.19601H3.18765H3.1793H3.17094H3.16258H3.15423H3.14587H3.13752H3.12916H3.12081H3.11245H3.1041H3.09574H3.08739H3.07903H3.07068H3.06232H3.05397H3.04561H3.03726H3.02891H3.02055H3.0122H3.00384H2.99549H2.98714H2.97879H2.97043H2.96208H2.95373H2.94537H2.93702H2.92867H2.92032H2.91196H2.90361H2.89526H2.88691H2.87856H2.8702H2.86185H2.8535H2.84515H2.8368H2.82845H2.8201H2.81174H2.80339H2.79504H2.78669H2.77834H2.76999H2.76164H2.75329H2.74494H2.73659H2.72824H2.71989H2.71154H2.70319H2.69484H2.68649H2.67814H2.66979H2.66144H2.65309H2.64474H2.63639H2.62804H2.61969H2.61135H2.603H2.59465H2.5863H2.57795H2.5696H2.56125H2.5529H2.54455H2.53621H2.52786H2.51951H2.51116H2.50281H2.49446H2.48612H2.47777H2.46942H2.46107H2.45272H2.44437H2.43603H2.42768H2.41933H2.41098H2.40263H2.39429H2.38594H2.37759H2.36924H2.3609H2.35255H2.3442H2.33585H2.32751H2.31916H2.31081H2.30246H2.29412H2.28577H2.27742H2.26907H2.26073H2.25238H2.24403H2.23568H2.22734H2.21899H2.21064H2.20229H2.19395H2.1856H2.17725H2.1689H2.16056H2.15221H2.14386H2.13551H2.12717H2.11882H2.11047H2.10212H2.09378H2.08543H2.07708H2.06873H2.06039H2.05204H2.04369H2.03534H2.027H2.01865H2.0103H2.00195H1.99361H1.98526H1.97691H1.96856H1.96022H1.95187H1.94352H1.93517H1.92682H1.91848H1.91013H1.90178H1.89343H1.88508H1.87674H1.86839H1.86004H1.85169H1.84334H1.835H1.82665H1.8183H1.80995H1.8016H1.79325H1.7849H1.77656H1.76821H1.75986H1.75151H1.74316H1.73481H1.72646H1.71811H1.70976H1.70141H1.69307H1.68472H1.67637H1.66802H1.65967H1.65132H1.64297H1.63462H1.62627H1.61792H1.60957H1.60122H1.59287H1.58452H1.57617H1.56782H1.55947H1.55111H1.54276H1.53441H1.52606H1.51771H1.50936H1.50101H1.49266H1.48431H1.47595H1.4676H1.45925H1.4509H1.44255H1.43419H1.42584H1.41749H1.40914H1.40079H1.39243H1.38408H1.37573H1.36737H1.35902H1.35067H1.34231H1.33396H1.32561H1.31725H1.3089H1.30055H1.29219H1.28384H1.27548H1.26713H1.25877H1.25042H1.24206H1.23371H1.22535H1.217H1.20864H1.20029H1.19193H1.18358H1.17522H1.16686H1.15851H1.15015H1.1418H1.13344H1.12508H1.11672H1.10837H1.10001H1.09165H1.0833H1.07494H1.06658H1.05822H1.04986H1.0415H1.03315H1.02479H1.01643H1.00807H0.99971H0.99135H0.982991H0.974631H0.966271H0.957911H0.94955H0.94119H0.932829H0.924468H0.916107H0.907746H0.899384H0.891023H0.882661H0.874299H0.865937H0.857574H0.849212H0.840849H0.832486H0.824123H0.81576H0.807396H0.799032H0.790668H0.782304H0.77394H0.765575H0.75721H0.748845H0.74048H0.732115H0.723749H0.715383H0.707017H0.698651H0.690285H0.681918H0.673551H0.665184H0.656817H0.648449H0.640081H0.631713H0.623345H0.614977H0.606608H0.598239H0.58987H0.581501H0.573131H0.564761H0.556391H0.548021H0.53965H0.53128H0.522909H0.514537H0.506166H0.497794H0.489422H0.48105H0.472677H0.464305H0.455932H0.447558H0.439185H0.430811H0.422437H0.414063H0.405688H0.397314H0.388939H0.380563H0.372188H0.363812H0.355436H0.34706H0.338683H0.330306H0.321929H0.313552H0.305174H0.296796H0.288418H0.280039H0.27166H0.263281H0.254902H0.246522H0.238142H0.229762H0.221382H0.213001H0.20462H0.196239H0.187857H0.179475H0.171093H0.16271H0.154328H0.145945H0.137561H0.129178H0.120794H0.112409H0.104025H0.0956399H0.0872547H0.0788692H0.0704834H0.0690146V13.6949V13.669V13.6432V13.6174V13.5916V13.5657V13.5399V13.5141V13.4882V13.4624V13.4366V13.4108V13.3849V13.3591V13.3333V13.3074V13.2816V13.2558V13.23V13.2041V13.1783V13.1525V13.1266V13.1008V13.075V13.0492V13.0233V12.9975V12.9717V12.9458V12.92V12.8942V12.8684V12.8425V12.8167V12.7909V12.7651V12.7392V12.7134V12.6876V12.6617V12.6359V12.6101V12.5843V12.5584V12.5326V12.5068V12.481V12.4551V12.4293V12.4035V12.3776V12.3518V12.326V12.3002V12.2743V12.2485V12.2227V12.1969V12.171V12.1452V12.1194V12.0935V12.0677V12.0419V12.0161V11.9902V11.9644V11.9386V11.9128V11.8869V11.8611V11.8353V11.8095V11.7836V11.7578V11.732V11.7062V11.6803V11.6545V11.6287V11.6028V11.577V11.5512V11.5254V11.4995V11.4737V11.4479V11.4221V11.3962V11.3704V11.3446V11.3188V11.2929V11.2671V11.2413V11.2155V11.1896V11.1638V11.138V11.1121V11.0863V11.0605V11.0347V11.0088V10.983V10.9572V10.9314V10.9055V10.8797V10.8539V10.8281V10.8022V10.7764V10.7506V10.7248V10.6989V10.6731V10.6473V10.6214V10.5956V10.5698V10.544V10.5181V10.4923V10.4665V10.4407V10.4148V10.389V10.3632V10.3374V10.3115V10.2857V10.2599V10.2341V10.2082V10.1824V10.1566V10.1307V10.1049V10.0791V10.0533V10.0274V10.0016V9.97579V9.94996V9.92414V9.89831V9.87249V9.84666V9.82083V9.795V9.76918V9.74335V9.71753V9.6917V9.66587V9.64005V9.61422V9.58839V9.56256V9.53674V9.51091V9.48508V9.45926V9.43343V9.4076V9.38178V9.35595V9.33012V9.3043V9.27847V9.25264V9.22681V9.20099V9.17516V9.14933V9.1235V9.09768V9.07185V9.04602V9.0202V8.99437V8.96854V8.94271V8.91689V8.89106V8.86523V8.8394V8.81357V8.78775V8.76192V8.73609V8.71026V8.68443V8.65861V8.63278V8.60695V8.58112V8.55529V8.52947V8.50364V8.47781V8.45198V8.42615V8.40033V8.3745V8.34867V8.32284V8.29701V8.27118V8.24535V8.21952V8.1937V8.16787V8.14204V8.11621V8.09038V8.06455V8.03872V8.01289V7.98706V7.96123V7.9354V7.90958V7.88375V7.85792V7.83209V7.80626V7.78043V7.7546V7.72877V7.70294V7.67711V7.65128V7.62545V7.59962V7.57379V7.54796V7.52213V7.4963V7.47047V7.44464V7.4188V7.39297V7.36714V7.34131V7.31548V7.28965V7.26382V7.23799V7.21216V7.18633V7.1605V7.13466V7.10883V7.083V7.05717V7.03134V7.00551V6.97967V6.95384V6.92801V6.90218V6.87635V6.85051V6.82468V6.79885V6.77302V6.74718V6.72135V6.69552V6.66969V6.64385V6.61802V6.59219V6.56635V6.54052V6.51469V6.48885V6.46302V6.43719V6.41135V6.38552V6.35969V6.33385V6.30802V6.28219V6.25635V6.23052V6.20468V6.17885V6.15301V6.12718V6.10134V6.07551V6.04967V6.02384V5.99801V5.97217V5.94633V5.9205V5.89466V5.86883V5.84299V5.81716V5.79132V5.76549V5.73965V5.71381V5.68798V5.66214V5.6363V5.61047V5.58463V5.55879V5.53296V5.50712V5.48128V5.45545V5.42961V5.40377V5.37794V5.3521V5.32626V5.30042V5.27458V5.24875V5.22291V5.19707V5.17123V5.14539V5.11955V5.09372V5.06788V5.04204V5.0162V4.99036V4.96452V4.93868V4.91284V4.887V4.86116V4.83532V4.80948V4.78364V4.7578V4.73196V4.70612V4.68028V4.65444V4.6286V4.60276V4.57692V4.55108V4.52524V4.4994V4.47355V4.44771V4.42187V4.39603V4.37019V4.34435V4.3185V4.29266V4.26682V4.24098V4.21513V4.18929V4.16345V4.1376V4.11176V4.08592V4.06007V4.03423V4.00839V3.98254V3.9567V3.93086V3.90501V3.87917V3.85332V3.82748V3.80163V3.77579V3.74994V3.7241V3.69825V3.67241V3.64656V3.62071V3.59487V3.56902V3.54318V3.51733V3.49148V3.46564V3.43979V3.41394V3.3881V3.36225V3.3364V3.31055V3.28471V3.25886V3.23301V3.20716V3.18131V3.15547V3.12962V3.10377V3.07792V3.05207V3.02622V3.00037V2.97452V2.94867V2.92282V2.89697V2.87112V2.84527V2.81942V2.79357V2.76772V2.74187V2.71602V2.69017V2.66432V2.63847V2.61261V2.58676V2.56091V2.53506V2.50921V2.48335V2.4575V2.43165V2.40579V2.37994V2.35409V2.32824V2.30238V2.27653V2.25067V2.22482V2.19897V2.17311V2.14726V2.1214V2.09555V2.06969V2.04384V2.01798V1.99213V1.96627V1.94041V1.91456V1.8887V1.86284V1.83699V1.81113V1.78527V1.75942V1.73356V1.7077V1.68184V1.65599V1.63013V1.60427V1.57841V1.55255V1.52669V1.50083V1.47498V1.44912V1.42326V1.3974V1.37154V1.34568V1.31982V1.29396V1.2681V1.24223V1.21637V1.19051V1.16465V1.13879V1.11293V1.08707V1.0612V1.03534V1.00948V0.983616V0.957753V0.93189V0.906027V0.880163V0.8543V0.828436V0.802572V0.776707V0.750843V0.724978V0.699113V0.673248V0.647383V0.621518V0.595652V0.569786V0.54392V0.518054V0.507491H0.0703903H0.07873H0.0870696H0.0954092H0.103749H0.112088H0.120428H0.128767H0.137107H0.145446H0.153785H0.162125H0.170464H0.178803H0.187143H0.195482H0.203821H0.21216H0.2205H0.228839H0.237178H0.245517H0.253856H0.262195H0.270534H0.278873H0.287212H0.295551H0.30389H0.312229H0.320568H0.328907H0.337246H0.345585H0.353924H0.362263H0.370602H0.378941H0.387279H0.395618H0.403957H0.412296H0.420635H0.428974H0.437313H0.445651H0.45399H0.462329H0.470668H0.479007H0.487346H0.495684H0.504023H0.512362H0.520701H0.52904H0.537379H0.545718H0.554056H0.562395H0.570734H0.579073H0.587412H0.595751H0.60409H0.612429H0.620768H0.629106H0.637445H0.645784H0.654123H0.662462H0.670801H0.67914H0.687479H0.695818H0.704158H0.712497H0.720836H0.729175H0.737514H0.745853H0.754192H0.762532H0.770871H0.77921H0.787549H0.795889H0.804228H0.812567H0.820907H0.829246H0.837586H0.845925H0.854265H0.862604H0.870944H0.879283H0.887623H0.895963H0.904302H0.912642H0.920982H0.929322H0.937661H0.946001H0.954341H0.962681H0.971021H0.979361H0.987701H0.996041H1.00438H1.01272H1.02106H1.0294H1.03774H1.04608H1.05442H1.06276H1.0711H1.07945H1.08779H1.09613H1.10447H1.11281H1.12115H1.12949H1.13783H1.14617H1.15451H1.16285H1.17119H1.17954H1.18788H1.19622H1.20456H1.2129H1.22124H1.22958H1.23793H1.24627H1.25461H1.26295H1.27129H1.27964H1.28798H1.29632H1.30466H1.313H1.32135H1.32969H1.33803H1.34637H1.35472H1.36306H1.3714H1.37974H1.38809H1.39643H1.40477H1.41312H1.42146H1.4298H1.43815H1.44649H1.45483H1.46318H1.47152H1.47986H1.48821H1.49655H1.5049H1.51324H1.52158H1.52993H1.53827H1.54662H1.55496H1.56331H1.57165H1.57999H1.58834H1.59668H1.60503H1.61337H1.62172H1.63007H1.63841H1.64676H1.6551H1.66345H1.67179H1.68014H1.68849H1.69683H1.70518H1.71352H1.72187H1.73022H1.73856H1.74691H1.75526H1.7636H1.77195H1.7803H1.78865H1.79699H1.80534H1.81369H1.82203H1.83038H1.83873H1.84708H1.85543H1.86377H1.87212H1.88047H1.88882H1.89717H1.90552H1.91387H1.92222H1.93056H1.93891H1.94726H1.95561H1.96396H1.97231H1.98066H1.98901H1.99736H2.00571H2.01406H2.02241H2.03076H2.03911H2.04747H2.05582H2.06417H2.07252H2.08087H2.08922H2.09757H2.10593H2.11428H2.12263H2.13098H2.13933H2.14769H2.15604H2.16439H2.17274H2.1811H2.18945H2.1978H2.20616H2.21451H2.22287H2.23122H2.23957H2.24793H2.25628H2.26464H2.27299H2.28135H2.2897H2.29806H2.30641H2.31477H2.32312H2.33148H2.33983H2.34819H2.35654H2.3649H2.37326H2.38161H2.38997H2.39833H2.40668H2.41504H2.4234H2.43176H2.44011H2.44847H2.45683H2.46519H2.47355H2.48191H2.49026H2.49862H2.50698H2.51534H2.5237H2.53206H2.54042H2.54878H2.55714H2.5655H2.57386H2.58222H2.59058H2.59894H2.6073H2.61566H2.62403H2.63239H2.64075H2.64911H2.65747H2.66584H2.6742H2.68256H2.69092H2.69929H2.70765H2.71601H2.72438H2.73274H2.7411H2.74947H2.75783H2.7662H2.77456H2.78293H2.79129H2.79966H2.80802H2.81639H2.82475H2.83312H2.84149H2.84985H2.85822H2.86659H2.87495H2.88332H2.89169H2.90005H2.90842H2.91679H2.92516H2.93353H2.9419H2.95026H2.95863H2.967H2.97537H2.98374H2.99211H3.00048H3.00885H3.01722H3.02559H3.03396H3.04234H3.05071H3.05908H3.06745H3.07582H3.08419H3.09257H3.10094H3.10931H3.11768H3.12606H3.13443H3.1428H3.15118H3.15955H3.16793H3.1763H3.18468H3.19305H3.20143H3.2098H3.21818H3.22655H3.23493H3.24331H3.25168H3.26006H3.26844H3.27681H3.28519H3.29357H3.30195H3.31032H3.3187H3.32708H3.33546H3.34384H3.35222H3.3606H3.36898H3.37736H3.38574H3.39412H3.4025H3.41088H3.41926H3.42764H3.43602H3.44441H3.45279H3.46117H3.46955H3.47794H3.48632H3.4947H3.50309H3.51147H3.51985H3.52824H3.53662H3.54501H3.55339H3.56178H3.57017H3.57855H3.58694H3.59532H3.60371H3.6121H3.62048H3.62887H3.63726H3.64565H3.65404H3.66242H3.67081H3.6792H3.68759H3.69598H3.70437H3.71276H3.72115H3.72954H3.73793H3.74632H3.75472H3.76311H3.7715H3.77989H3.78828H3.79668H3.80507H3.81346H3.82186H3.83025H3.83864H3.84704H3.85543H3.86383H3.87222H3.88062H3.88902H3.89741H3.90581H3.9142H3.9226H3.931H3.9394H3.94779H3.95619H3.96459H3.97299H3.98139H3.98979H3.99819H4.00659H4.01499H4.02339H4.03179H4.04019H4.04859H4.05699H4.06539H4.0738H4.0822H4.0906H4.099H4.10741H4.11581H4.12421H4.13262H4.14102H4.14943H4.15783H4.16624H4.17464H4.18305H4.19146H4.19986H4.20827H4.21668H4.22509H4.23349H4.2419H4.25031H4.25872H4.26713H4.27554H4.28395H4.29236H4.30077H4.30918H4.31759H4.31911V0.517994V0.5438V0.569606V0.595412V0.621219V0.647025V0.672831V0.698638V0.724444V0.750251V0.776057V0.801864V0.82767V0.853477V0.879283V0.90509V0.930897V0.956703V0.98251V1.00832V1.03412V1.05993V1.08574V1.11154V1.13735V1.16316V1.18897V1.21477V1.24058V1.26639V1.29219V1.318V1.34381V1.36962V1.39542V1.42123V1.44704V1.47285V1.49865V1.52446V1.55027V1.57608V1.60189V1.62769V1.6535V1.67931V1.70512V1.73093V1.75673V1.78254V1.80835V1.83416V1.85997V1.88577V1.91158V1.93739V1.9632V1.98901V2.01482V2.04063V2.06644V2.09224V2.11805V2.14386V2.16967V2.19548V2.22129V2.2471V2.27291V2.29872V2.32453V2.35034V2.37615V2.40196V2.42777V2.45358V2.47939V2.5052V2.53101V2.55682V2.58263V2.60844V2.63425V2.66006V2.68587V2.71168V2.73749V2.7633V2.78911V2.81492V2.84073V2.86654V2.89235V2.91816V2.94398V2.96979V2.9956V3.02141V3.04722V3.07303V3.09884V3.12466V3.15047V3.17628V3.20209V3.2279V3.25372V3.27953V3.30534V3.33115V3.35697V3.38278V3.40859V3.4344V3.46022V3.48603V3.51184V3.53766V3.56347V3.58928V3.6151V3.64091V3.66672V3.69254V3.71835V3.74416V3.76998V3.79579V3.82161V3.84742V3.87324V3.89905V3.92486V3.95068V3.97649V4.00231V4.02812V4.05394V4.07975V4.10557V4.13139V4.1572V4.18302V4.20883V4.23465V4.26046V4.28628V4.3121V4.33791V4.36373V4.38954V4.41536V4.44118V4.467V4.49281V4.51863V4.54445V4.57026V4.59608V4.6219V4.64772V4.67353V4.69935V4.72517V4.75099V4.77681V4.80262V4.82844V4.85426V4.88008V4.9059V4.93172V4.95754V4.98336V5.00917V5.03499V5.06081V5.08663V5.11245V5.13827V5.16409V5.18991V5.21573V5.24155V5.26737V5.29319V5.31902V5.34484V5.37066V5.39648V5.4223V5.44812V5.47394V5.49976V5.52559V5.55141V5.57723V5.60305V5.62887V5.6547V5.68052V5.70634V5.73217V5.75799V5.78381V5.80963V5.83546V5.86128V5.88711V5.91293V5.93875V5.96458V5.9904V6.01623V6.04205V6.06788V6.0937V6.11953V6.14535V6.17118V6.197V6.22283V6.24865V6.27448V6.3003V6.32613V6.35196V6.37778V6.40361V6.42944V6.45526V6.48109V6.50692V6.53275V6.55857V6.5844V6.61023V6.63606V6.66189V6.68771V6.71354V6.73937V6.7652V6.79103V6.81686V6.84269V6.86852V6.89435V6.92018V6.94601V6.97184V6.99767V7.0235V7.04933V7.07516V7.10099V7.12682V7.15265V7.17848V7.20431V7.23015V7.25598V7.28181V7.30764V7.33348V7.35931V7.38514V7.41097V7.43681V7.46264V7.48847V7.51431V7.54014V7.56598V7.59181V7.61764V7.64348V7.66931V7.69515V7.72098V7.74682V7.77265V7.79849V7.82433V7.85016V7.876V7.90183V7.92767V7.95351V7.97934V8.00518V8.03102V8.05686V8.08269V8.10853V8.13437V8.16021V8.18605V8.21188V8.23772V8.26356V8.2894V8.31524V8.34108V8.36692V8.39276V8.4186V8.44444V8.47028V8.49612V8.52196V8.5478V8.57364V8.59949V8.62533V8.65117V8.67701V8.70285V8.7287V8.75454V8.78038V8.80623V8.83207V8.85791V8.88376V8.9096V8.93544V8.96129V8.98713V9.01298V9.03882V9.06467V9.09051V9.11636V9.1422V9.16805V9.1939V9.21974V9.24559V9.27144V9.29728V9.32313V9.34898V9.37483V9.40067V9.42652V9.45237V9.47822V9.50407V9.52992V9.55577V9.58161V9.60746V9.63331V9.65916V9.68501V9.71087V9.73672V9.76257V9.78842V9.81427V9.84012V9.86597V9.89182V9.91768V9.94353V9.96938V9.99524V10.0211V10.0469V10.0728V10.0986V10.1245V10.1504V10.1762V10.2021V10.2279V10.2538V10.2796V10.3055V10.3313V10.3572V10.3831V10.4089V10.4348V10.4606V10.4865V10.5123V10.5382V10.5641V10.5899V10.6158V10.6416V10.6675V10.6934V10.7192V10.7451V10.7709V10.7968V10.8227V10.8485V10.8744V10.9002V10.9261V10.952V10.9778V11.0037V11.0295V11.0554V11.0813V11.1071V11.133V11.1589V11.1847V11.2106V11.2365V11.2623V11.2882V11.314V11.3399V11.3658V11.3916V11.4175V11.4434V11.4692V11.4951V11.521V11.5468V11.5727V11.5986V11.6245V11.6503V11.6762V11.7021V11.7279V11.7538V11.7797V11.8055V11.8314V11.8573V11.8832V11.909V11.9349V11.9608V11.9866V12.0125V12.0384V12.0643V12.0901V12.116V12.1419V12.1677V12.1936V12.2195V12.2454V12.2712V12.2971V12.323V12.3489V12.3747V12.4006V12.4265V12.4524V12.4783V12.5041V12.53V12.5559V12.5818V12.6076V12.6335V12.6594V12.6853V12.7112V12.737V12.7629V12.7888V12.8147V12.8406V12.8664V12.8923V12.9182V12.9441V12.97V12.9959V13.0217V13.0476V13.0735V13.0994V13.1253V13.1512V13.177V13.2029V13.2288V13.2547V13.2806V13.3065V13.3324V13.3583V13.3841V13.41V13.4359V13.4618V13.4877V13.5136V13.5395V13.5654V13.5912V13.6171V13.643V13.6689V13.6948V13.7054Z" fill="#070707" stroke="#070707" stroke-width="0.0306072"/>
</svg>
