<svg width="105" height="32" viewBox="0 0 105 32" fill="none" xmlns="http://www.w3.org/2000/svg">
<path d="M53 11.94C52.9067 12.0933 52.81 12.2067 52.71 12.28C52.6167 12.3467 52.4933 12.38 52.34 12.38C52.1933 12.38 52.0333 12.33 51.86 12.23C51.6933 12.1233 51.4967 12.01 51.27 11.89C51.0433 11.77 50.7833 11.66 50.49 11.56C50.1967 11.4533 49.8533 11.4 49.46 11.4C48.7667 11.4 48.2467 11.5567 47.9 11.87C47.5533 12.1767 47.38 12.58 47.38 13.08C47.38 13.4 47.4733 13.6667 47.66 13.88C47.8533 14.0867 48.1033 14.2667 48.41 14.42C48.7233 14.5733 49.0767 14.71 49.47 14.83C49.8633 14.95 50.2667 15.0833 50.68 15.23C51.0933 15.37 51.4967 15.5367 51.89 15.73C52.2833 15.9233 52.6333 16.1667 52.94 16.46C53.2533 16.7533 53.5033 17.1133 53.69 17.54C53.8833 17.96 53.98 18.4733 53.98 19.08C53.98 19.74 53.8633 20.36 53.63 20.94C53.4033 21.5133 53.0733 22.0167 52.64 22.45C52.2067 22.8767 51.67 23.2133 51.03 23.46C50.3967 23.7067 49.6767 23.83 48.87 23.83C48.41 23.83 47.95 23.7833 47.49 23.69C47.0367 23.5967 46.5967 23.4667 46.17 23.3C45.75 23.1333 45.3533 22.9333 44.98 22.7C44.6067 22.4667 44.28 22.2067 44 21.92L44.88 20.5C44.9533 20.3933 45.05 20.3067 45.17 20.24C45.29 20.1667 45.4167 20.13 45.55 20.13C45.73 20.13 45.92 20.1967 46.12 20.33C46.32 20.4633 46.55 20.61 46.81 20.77C47.07 20.93 47.37 21.0767 47.71 21.21C48.0567 21.3433 48.47 21.41 48.95 21.41C49.65 21.41 50.19 21.25 50.57 20.93C50.9567 20.61 51.15 20.1333 51.15 19.5C51.15 19.1333 51.0533 18.8367 50.86 18.61C50.6733 18.3833 50.4267 18.1933 50.12 18.04C49.8133 17.8867 49.4633 17.7567 49.07 17.65C48.6767 17.5367 48.2733 17.4133 47.86 17.28C47.4467 17.1467 47.0433 16.9867 46.65 16.8C46.2567 16.6133 45.9067 16.3667 45.6 16.06C45.2933 15.7533 45.0433 15.3733 44.85 14.92C44.6633 14.4667 44.57 13.9033 44.57 13.23C44.57 12.69 44.6767 12.1667 44.89 11.66C45.1033 11.1533 45.4167 10.7033 45.83 10.31C46.2433 9.91667 46.75 9.6 47.35 9.36C47.9567 9.12 48.65 9 49.43 9C50.3033 9 51.11 9.13667 51.85 9.41C52.5967 9.67667 53.2267 10.05 53.74 10.53L53 11.94Z" fill="white"/>
<path d="M71.7756 16.41C71.7756 17.47 71.5956 18.4533 71.2356 19.36C70.8823 20.2667 70.379 21.05 69.7256 21.71C69.079 22.37 68.299 22.89 67.3856 23.27C66.4723 23.6433 65.459 23.83 64.3456 23.83C63.2323 23.83 62.219 23.6433 61.3056 23.27C60.3923 22.89 59.609 22.37 58.9556 21.71C58.3023 21.05 57.7956 20.2667 57.4356 19.36C57.0823 18.4533 56.9056 17.47 56.9056 16.41C56.9056 15.35 57.0823 14.37 57.4356 13.47C57.7956 12.5633 58.3023 11.78 58.9556 11.12C59.609 10.46 60.3923 9.94333 61.3056 9.57C62.219 9.19 63.2323 9 64.3456 9C65.459 9 66.4723 9.19 67.3856 9.57C68.299 9.94333 69.079 10.4633 69.7256 11.13C70.379 11.79 70.8823 12.5733 71.2356 13.48C71.5956 14.38 71.7756 15.3567 71.7756 16.41ZM68.7056 16.41C68.7056 15.65 68.6056 14.97 68.4056 14.37C68.2056 13.7633 67.9156 13.25 67.5356 12.83C67.1623 12.4033 66.7056 12.08 66.1656 11.86C65.6323 11.6333 65.0256 11.52 64.3456 11.52C63.6656 11.52 63.0556 11.6333 62.5156 11.86C61.9756 12.08 61.5156 12.4033 61.1356 12.83C60.7623 13.25 60.4756 13.7633 60.2756 14.37C60.0756 14.97 59.9756 15.65 59.9756 16.41C59.9756 17.1767 60.0756 17.8633 60.2756 18.47C60.4756 19.07 60.7623 19.58 61.1356 20C61.5156 20.42 61.9756 20.7433 62.5156 20.97C63.0556 21.19 63.6656 21.3 64.3456 21.3C65.0256 21.3 65.6323 21.19 66.1656 20.97C66.7056 20.7433 67.1623 20.42 67.5356 20C67.9156 19.58 68.2056 19.07 68.4056 18.47C68.6056 17.8633 68.7056 17.1767 68.7056 16.41Z" fill="white"/>
<path d="M84.1766 21.23V23.67H75.5666V9.16H78.5666V21.23H84.1766Z" fill="white"/>
<path d="M90.6358 23.67H87.6158V9.16H90.6358V23.67Z" fill="white"/>
<path d="M103.13 11.94C103.037 12.0933 102.94 12.2067 102.84 12.28C102.747 12.3467 102.624 12.38 102.47 12.38C102.324 12.38 102.164 12.33 101.99 12.23C101.824 12.1233 101.627 12.01 101.4 11.89C101.174 11.77 100.914 11.66 100.62 11.56C100.327 11.4533 99.9838 11.4 99.5905 11.4C98.8971 11.4 98.3771 11.5567 98.0305 11.87C97.6838 12.1767 97.5105 12.58 97.5105 13.08C97.5105 13.4 97.6038 13.6667 97.7905 13.88C97.9838 14.0867 98.2338 14.2667 98.5405 14.42C98.8538 14.5733 99.2071 14.71 99.6005 14.83C99.9938 14.95 100.397 15.0833 100.81 15.23C101.224 15.37 101.627 15.5367 102.02 15.73C102.414 15.9233 102.764 16.1667 103.07 16.46C103.384 16.7533 103.634 17.1133 103.82 17.54C104.014 17.96 104.11 18.4733 104.11 19.08C104.11 19.74 103.994 20.36 103.76 20.94C103.534 21.5133 103.204 22.0167 102.77 22.45C102.337 22.8767 101.8 23.2133 101.16 23.46C100.527 23.7067 99.8071 23.83 99.0005 23.83C98.5405 23.83 98.0805 23.7833 97.6205 23.69C97.1671 23.5967 96.7271 23.4667 96.3005 23.3C95.8805 23.1333 95.4838 22.9333 95.1105 22.7C94.7371 22.4667 94.4105 22.2067 94.1305 21.92L95.0105 20.5C95.0838 20.3933 95.1805 20.3067 95.3005 20.24C95.4205 20.1667 95.5471 20.13 95.6805 20.13C95.8605 20.13 96.0505 20.1967 96.2505 20.33C96.4505 20.4633 96.6805 20.61 96.9405 20.77C97.2005 20.93 97.5005 21.0767 97.8405 21.21C98.1871 21.3433 98.6005 21.41 99.0805 21.41C99.7805 21.41 100.32 21.25 100.7 20.93C101.087 20.61 101.28 20.1333 101.28 19.5C101.28 19.1333 101.184 18.8367 100.99 18.61C100.804 18.3833 100.557 18.1933 100.25 18.04C99.9438 17.8867 99.5938 17.7567 99.2005 17.65C98.8071 17.5367 98.4038 17.4133 97.9905 17.28C97.5771 17.1467 97.1738 16.9867 96.7805 16.8C96.3871 16.6133 96.0371 16.3667 95.7305 16.06C95.4238 15.7533 95.1738 15.3733 94.9805 14.92C94.7938 14.4667 94.7005 13.9033 94.7005 13.23C94.7005 12.69 94.8071 12.1667 95.0205 11.66C95.2338 11.1533 95.5471 10.7033 95.9605 10.31C96.3738 9.91667 96.8805 9.6 97.4805 9.36C98.0871 9.12 98.7805 9 99.5605 9C100.434 9 101.24 9.13667 101.98 9.41C102.727 9.67667 103.357 10.05 103.87 10.53L103.13 11.94Z" fill="white"/>
<path d="M29.4672 0.5L23.5 6.46721L21.7805 4.74767L25.9722 0.5H29.4672ZM31.5 6.92025L29.2861 4.74673L31.5 2.53279V6.92025ZM12.2467 14.2826L13.9636 15.9994L8.4973 21.4657L6.78046 19.7489L12.2467 14.2826ZM21.7788 19.7505L27.2451 14.2842L28.962 16.0011L23.4957 21.4674L21.7788 19.7505ZM14.2792 19.7499L15.996 18.0331L21.4623 23.4994L19.7455 25.2162L14.2792 19.7499ZM10.531 23.5018L12.25 21.7828L17.7217 27.2545L15.9973 29.0233L10.531 23.5018ZM29.2907 19.7513L31.058 18.0283L31.5 18.4703V21.9203L29.2907 19.7513ZM3.03127 15.9989L8.49756 10.5326L10.2144 12.2494L4.74811 17.7157L3.03127 15.9989ZM18.0296 16.0005L23.4959 10.5342L25.2128 12.2511L19.7465 17.7174L18.0296 16.0005ZM31.5 14.4121L25.5343 8.49845L27.2523 6.78046L31.5 10.9722V14.4121ZM14.2783 4.74553L16.0027 2.97665L21.469 8.49822L19.75 10.2172L14.2783 4.74553ZM15.9971 13.967L10.5308 8.50067L12.2477 6.78383L17.714 12.2501L15.9971 13.967ZM17.5879 31.5L23.5015 25.5343L25.2195 27.2523L21.0278 31.5H17.5879ZM13.5297 31.5H10.0797L12.2487 29.2907L13.9717 31.058L13.5297 31.5ZM2.5328 31.5L8.5 25.5328L10.2195 27.2523L6.02777 31.5H2.5328ZM25.5328 23.5L27.2523 21.7805L31.5 25.9722V29.4672L25.5328 23.5ZM2.71393 27.2533L0.5 29.4672V25.0797L2.71393 27.2533ZM29.4672 31.5H25.0797L27.2533 29.2861L29.4672 31.5ZM21.9203 0.5L19.7513 2.70932L18.0283 0.941971L18.4703 0.5H21.9203ZM6.92026 0.5L4.74673 2.71394L2.5328 0.5H6.92026ZM0.5 17.5879L6.46566 23.5015L4.74767 25.2195L0.5 21.0278V17.5879ZM10.9722 0.5H14.4121L8.49845 6.46566L6.78046 4.74767L10.9722 0.5ZM0.5 2.53279L6.46721 8.5L4.74767 10.2195L0.5 6.02776V2.53279ZM0.941971 13.9717L0.5 13.5297V10.0797L2.70932 12.2487L0.941971 13.9717Z" fill="white" stroke="black"/>
</svg>
