<svg width="11" height="17" viewBox="0 0 11 17" fill="none" xmlns="http://www.w3.org/2000/svg">
<path d="M10.1161 9.87531L0.973214 0.732456C0.866071 0.616385 0.723214 0.562813 0.571429 0.562813C0.5 0.562813 0.419643 0.58067 0.357143 0.607456C0.142857 0.696742 0 0.902099 0 1.13424V14.5628C0 14.795 0.142857 15.0003 0.357143 15.0896C0.419643 15.1164 0.5 15.1342 0.571429 15.1342C0.723214 15.1342 0.866071 15.0717 0.973214 14.9646L3.75893 12.1789L5.46429 16.2146C5.58929 16.5003 5.91964 16.6432 6.21429 16.5182L7.79464 15.8485C8.08036 15.7235 8.22322 15.3932 8.09822 15.0985L6.30357 10.8485H9.71429C9.94643 10.8485 10.1518 10.7057 10.2411 10.4914C10.3304 10.286 10.2857 10.036 10.1161 9.87531Z" fill="white"/>
</svg>
