<svg width="21" height="22" viewBox="0 0 21 22" fill="none" xmlns="http://www.w3.org/2000/svg">
<path d="M10.5 0C4.6996 0 0 4.76953 0 10.6562C0 16.543 4.6996 21.3125 10.5 21.3125C16.3004 21.3125 21 16.543 21 10.6562C21 4.76953 16.3004 0 10.5 0ZM10.5 19.25C5.83004 19.25 2.03226 15.3957 2.03226 10.6562C2.03226 5.9168 5.83004 2.0625 10.5 2.0625C15.17 2.0625 18.9677 5.9168 18.9677 10.6562C18.9677 15.3957 15.17 19.25 10.5 19.25ZM10.5 13.0625C9.07742 13.0625 7.73952 13.6984 6.825 14.807C6.46512 15.2453 6.5244 15.8941 6.95625 16.2594C7.3881 16.6246 8.02742 16.5688 8.3873 16.1305C9.4373 14.8543 11.5627 14.8543 12.6127 16.1305C12.9556 16.5473 13.595 16.6418 14.0438 16.2594C14.4756 15.8941 14.5306 15.2453 14.175 14.807C13.2605 13.6984 11.9226 13.0625 10.5 13.0625ZM8.46774 9.96875C8.90383 9.96875 9.31028 9.68086 9.44153 9.23398C9.60242 8.68828 9.29758 8.1125 8.75988 7.94922L5.37278 6.91797C4.83085 6.75039 4.26774 7.06406 4.10685 7.60977C3.94597 8.15547 4.25081 8.73125 4.78851 8.89453L5.98246 9.25977C5.85121 9.47031 5.75806 9.70664 5.75806 9.97305C5.75806 10.7336 6.36351 11.348 7.1129 11.348C7.8623 11.348 8.46774 10.7293 8.46774 9.96875ZM16.8931 7.60977C16.7323 7.06406 16.1692 6.75469 15.6272 6.91797L12.2401 7.94922C11.7024 8.1125 11.3976 8.68828 11.5585 9.23398C11.6897 9.68086 12.0962 9.96875 12.5323 9.96875C12.5323 10.7293 13.1377 11.3438 13.8871 11.3438C14.6365 11.3438 15.2419 10.7293 15.2419 9.96875C15.2419 9.70234 15.1488 9.46602 15.0175 9.25547L16.2115 8.89023C16.7492 8.73125 17.054 8.15547 16.8931 7.60977Z" fill="#474747"/>
</svg>
