<svg width="80" height="63" viewBox="0 0 80 63" fill="none" xmlns="http://www.w3.org/2000/svg">
<circle cx="39.5" cy="31.5" r="31.5" fill="white"/>
<path d="M80 36.0001H68.5714L68 45C69.5 40.5 74.2857 36.0001 80 36.0001Z" fill="white"/>
<path d="M7.43867e-06 36C4.49999 36.556 8.99999 40.5001 11.3796 45.7167L11.5 40.0001L8.91088 34.5579C5.43097 35.0992 7.43867e-06 36 7.43867e-06 36Z" fill="white"/>
<path d="M34.7165 48.2237C34.6668 48.2739 34.599 48.3021 34.5283 48.3021C34.4577 48.3021 34.3899 48.2739 34.3402 48.2237L33.7782 47.6618C33.727 47.6137 33.6979 47.5465 33.6979 47.4762C33.6979 47.4059 33.727 47.3388 33.7782 47.2907L38.6501 42.4188C38.7246 42.3442 38.8257 42.3022 38.9311 42.3021L39.0689 42.3021C39.1744 42.3022 39.2754 42.3442 39.3499 42.4188L44.2218 47.2907C44.2731 47.3388 44.3022 47.4059 44.3022 47.4762C44.3022 47.5465 44.2731 47.6137 44.2218 47.6618L43.6599 48.2237C43.6101 48.2739 43.5424 48.3021 43.4717 48.3021C43.401 48.3021 43.3333 48.2739 43.2835 48.2237L39 43.9402L34.7165 48.2237Z" fill="#474747"/>
</svg>
