<svg width="20" height="20" viewBox="0 0 20 20" fill="none" xmlns="http://www.w3.org/2000/svg">
<path d="M12.1951 10.1429C12.1951 11.3333 11.2195 12.2857 10 12.2857C8.78049 12.2857 7.80488 11.3333 7.80488 10.1429C7.80488 8.95238 8.78049 8 10 8C11.2195 8 12.1951 8.95238 12.1951 10.1429ZM17.8049 8C16.5854 8 15.6098 8.95238 15.6098 10.1429C15.6098 11.3333 16.5854 12.2857 17.8049 12.2857C19.0244 12.2857 20 11.3333 20 10.1429C20 8.95238 19.0244 8 17.8049 8ZM2.19512 8C0.97561 8 0 8.95238 0 10.1429C0 11.3333 0.97561 12.2857 2.19512 12.2857C3.41463 12.2857 4.39024 11.3333 4.39024 10.1429C4.39024 8.95238 3.41463 8 2.19512 8Z" fill="#7D90B2"/>
</svg>
