<svg width="98" height="95" viewBox="0 0 98 95" fill="none" xmlns="http://www.w3.org/2000/svg">
<g filter="url(#filter0_d_254:464)">
<g clip-path="url(#clip0_254:464)">
<path d="M8.19629 3.70898H89.7808V83.0685H8.19629V3.70898Z" fill="url(#paint0_radial_254:464)"/>
<path d="M8.19634 3.70952H89.7809V83.069H8.19634V3.70952ZM4.48682 86.775H93.4868V0H4.48682V86.775ZM57.8868 36.6395C57.8868 36.1945 57.8868 35.1194 57.7017 33.0439C57.7017 32.7484 57.7373 32.6737 57.9972 32.5633C60.2578 31.6377 65.5622 30.0037 71.5679 30.0037C71.8634 30.0037 72.0129 30.0784 72.0129 30.3739V35.7495C72.0129 36.045 71.9025 36.1198 71.6035 36.1198C69.2681 36.0094 65.8933 36.3049 64.5939 36.8602V60.2245C64.5939 60.52 64.4835 60.6695 64.1489 60.6695H58.3283C58.0328 60.6695 57.8833 60.5592 57.8833 60.2245L57.8868 36.6395ZM34.1523 40.0144C35.0067 40.0892 35.6724 40.0892 37.1569 40.0892C41.4966 40.0892 45.5763 38.569 45.5763 32.6737C45.5763 27.9638 42.6821 25.5893 37.7159 25.5893C36.2313 25.5893 34.8251 25.664 34.1559 25.6996L34.1523 40.0144ZM27.5912 20.3205C27.5912 20.0606 27.666 19.8755 27.9615 19.8755C30.336 19.7651 33.8212 19.6904 37.4916 19.6904C47.7622 19.6904 52.2513 25.3258 52.2513 32.5598C52.2513 41.9795 45.4268 46.0201 37.0466 46.0201C35.6368 46.0201 35.1562 45.9454 34.1523 45.9454V60.1854C34.1523 60.4808 34.0419 60.6304 33.7073 60.6304H27.9971C27.7016 60.6304 27.5521 60.52 27.5521 60.1854V20.3205H27.5912Z" fill="#E579FF"/>
</g>
</g>
<defs>
<filter id="filter0_d_254:464" x="0.486816" y="0" width="97" height="94.7754" filterUnits="userSpaceOnUse" color-interpolation-filters="sRGB">
<feFlood flood-opacity="0" result="BackgroundImageFix"/>
<feColorMatrix in="SourceAlpha" type="matrix" values="0 0 0 0 0 0 0 0 0 0 0 0 0 0 0 0 0 0 127 0" result="hardAlpha"/>
<feOffset dy="4"/>
<feGaussianBlur stdDeviation="2"/>
<feComposite in2="hardAlpha" operator="out"/>
<feColorMatrix type="matrix" values="0 0 0 0 0 0 0 0 0 0 0 0 0 0 0 0 0 0 0.25 0"/>
<feBlend mode="normal" in2="BackgroundImageFix" result="effect1_dropShadow_254:464"/>
<feBlend mode="normal" in="SourceGraphic" in2="effect1_dropShadow_254:464" result="shape"/>
</filter>
<radialGradient id="paint0_radial_254:464" cx="0" cy="0" r="1" gradientUnits="userSpaceOnUse" gradientTransform="translate(35.067 21.4951) scale(62.0035 60.0306)">
<stop stop-color="#4B2D4F" stop-opacity="0.98"/>
<stop offset="1" stop-color="#180024"/>
</radialGradient>
<clipPath id="clip0_254:464">
<rect width="89" height="86.775" fill="white" transform="translate(4.48682)"/>
</clipPath>
</defs>
</svg>
