<svg width="14" height="17" viewBox="0 0 14 17" fill="none" xmlns="http://www.w3.org/2000/svg">
<path d="M12.5714 1.70567H13.4286C13.5893 1.70567 13.7143 1.58067 13.7143 1.41996V0.848528C13.7143 0.687814 13.5893 0.562813 13.4286 0.562813H0.285714C0.125 0.562813 0 0.687814 0 0.848528V1.41996C0 1.58067 0.125 1.70567 0.285714 1.70567H1.14286C1.14286 5.00924 2.72321 7.4021 4.47321 8.56281C2.72321 9.72353 1.14286 12.1164 1.14286 15.42H0.285714C0.125 15.42 0 15.545 0 15.7057V16.2771C0 16.4378 0.125 16.5628 0.285714 16.5628H13.4286C13.5893 16.5628 13.7143 16.4378 13.7143 16.2771V15.7057C13.7143 15.545 13.5893 15.42 13.4286 15.42H12.5714C12.5714 12.1164 10.9911 9.72353 9.24107 8.56281C10.9911 7.4021 12.5714 5.00924 12.5714 1.70567ZM11.4286 1.70567C11.4286 3.00924 11.1339 4.16103 10.6696 5.13424H3.04464C2.58036 4.16103 2.28571 3.00924 2.28571 1.70567H11.4286ZM10.9196 12.5628H2.79464C3.45536 10.8396 4.64286 9.61638 5.83036 9.13424H7.88393C9.07143 9.61638 10.2589 10.8396 10.9196 12.5628Z" fill="white"/>
</svg>
