<svg width="22" height="22" viewBox="0 0 22 22" fill="none" xmlns="http://www.w3.org/2000/svg">
<path d="M20.9457 12.3187C21.3397 11.6806 21.5625 11 21.5625 10.1771C21.5625 8.28588 19.8906 6.49988 17.7073 6.49988H16.0686C16.2896 5.94945 16.4661 5.29117 16.4661 4.50012C16.4661 1.37225 14.773 0 12.1864 0C9.4189 0 9.57676 4.07915 8.96281 4.66641C7.94097 5.64382 6.73401 7.52155 5.87398 8.25H1.4375C0.643596 8.25 0 8.86561 0 9.625V19.9375C0 20.6969 0.643596 21.3125 1.4375 21.3125H4.3125C4.98152 21.3125 5.54372 20.8753 5.70409 20.2834C7.70352 20.3264 9.07593 21.9996 13.6913 21.9996C14.0156 21.9996 14.375 22 14.6895 22C18.1537 22 19.7201 20.306 19.7629 17.9038C20.3612 17.1121 20.6748 16.0509 20.5419 15.0253C20.9845 14.2325 21.1557 13.2918 20.9457 12.3187ZM18.1718 14.6317C18.736 15.5396 18.2284 16.7548 17.5456 17.1054C17.8915 19.2014 16.7546 19.9371 15.1593 19.9371H13.4604C10.2422 19.9371 8.15831 18.312 5.75 18.312V10.3125H6.24055C7.51453 10.3125 9.29434 7.26645 10.4875 6.12477C11.7614 4.90617 11.3369 2.87504 12.1864 2.0625C14.3099 2.0625 14.3099 3.47961 14.3099 4.50012C14.3099 6.1832 13.0359 6.9373 13.0359 8.56238H17.7073C18.6556 8.56238 19.4022 9.37492 19.4062 10.1875C19.4103 10.9996 18.8304 11.8121 18.4058 11.8121C19.0118 12.4375 19.1413 13.7558 18.1718 14.6317ZM3.95312 18.5625C3.95312 19.1321 3.47044 19.5938 2.875 19.5938C2.27956 19.5938 1.79688 19.1321 1.79688 18.5625C1.79688 17.9929 2.27956 17.5312 2.875 17.5312C3.47044 17.5312 3.95312 17.9929 3.95312 18.5625Z" fill="#01620B"/>
</svg>
