<svg width="539" height="441" viewBox="0 0 539 441" fill="none" xmlns="http://www.w3.org/2000/svg">
<path fill-rule="evenodd" clip-rule="evenodd" d="M294.948 415.265C185.163 404.095 94.2935 323.611 54.4771 221.021C14.6607 118.431 164.57 31.0391 272.543 26.0322C380.517 21.0254 463.866 117.013 463.866 226.345C463.866 335.676 404.734 426.434 294.948 415.265Z" fill="#FFE5D2"/>
<path fill-rule="evenodd" clip-rule="evenodd" d="M430.021 306.304C430.111 306.252 430.671 306.992 431.498 308.448C432.33 309.899 433.364 312.103 434.325 314.947C436.295 320.616 437.531 328.985 436.798 338.111C436.071 347.236 433.963 355.246 432.337 360.948C430.673 366.652 429.448 370.114 429.237 370.056C429.004 369.991 429.831 366.409 431.196 360.649C432.526 354.89 434.424 346.923 435.136 337.985C435.85 329.049 434.833 320.916 433.199 315.293C431.611 309.643 429.759 306.44 430.021 306.304" fill="white"/>
<path fill-rule="evenodd" clip-rule="evenodd" d="M435.64 260.635C435.745 260.589 436.422 261.829 437.552 264.116C438.681 266.402 440.267 269.735 442.143 273.893C445.866 282.209 450.876 293.85 454.509 307.365C456.296 314.126 457.513 320.698 458.13 326.734C458.751 332.768 458.814 338.251 458.504 342.827C458.203 347.405 457.625 351.079 457.069 353.577C456.519 356.08 456.083 357.428 455.985 357.406C455.677 357.346 457.037 351.837 457.326 342.772C457.686 333.726 456.499 321.158 452.898 307.795C449.305 294.427 444.5 282.78 441.061 274.36C439.329 270.147 437.928 266.737 436.958 264.38C436.012 262.013 435.535 260.682 435.64 260.635" fill="white"/>
<path fill-rule="evenodd" clip-rule="evenodd" d="M227.685 314.237C227.878 314.445 225.987 316.249 223.533 319.6C222.923 320.442 222.262 321.362 221.643 322.414C220.966 323.427 220.377 324.589 219.722 325.789C218.503 328.234 217.347 331.014 216.455 334.04C215.601 337.078 215.104 340.047 214.835 342.767C214.754 344.131 214.635 345.429 214.669 346.646C214.635 347.866 214.706 348.999 214.774 350.037C215.071 354.179 215.714 356.713 215.44 356.787C215.274 356.845 214.215 354.396 213.601 350.157C213.454 349.098 213.314 347.934 213.287 346.675C213.192 345.417 213.26 344.071 213.303 342.654C213.494 339.83 213.965 336.732 214.852 333.579C215.777 330.436 217.024 327.563 218.365 325.068C219.081 323.844 219.737 322.669 220.488 321.655C221.178 320.602 221.917 319.691 222.604 318.873C225.377 315.609 227.575 314.101 227.685 314.237" fill="white"/>
<path fill-rule="evenodd" clip-rule="evenodd" d="M232.123 328.859C232.262 329.082 231.209 329.888 229.832 331.431C229.136 332.192 228.402 333.18 227.679 334.323C226.988 335.487 226.325 336.822 225.804 338.293C225.307 339.773 225.007 341.232 224.836 342.577C224.699 343.922 224.668 345.151 224.748 346.182C224.882 348.244 225.216 349.53 224.967 349.62C224.788 349.695 224.038 348.519 223.58 346.339C223.34 345.252 223.242 343.921 223.304 342.447C223.401 340.977 223.683 339.366 224.228 337.749C224.794 336.14 225.566 334.699 226.395 333.481C227.253 332.281 228.151 331.295 229.008 330.587C230.712 329.151 232.028 328.687 232.123 328.859" fill="white"/>
<path fill-rule="evenodd" clip-rule="evenodd" d="M170.512 192.598C170.598 192.522 171.345 193.257 172.625 194.659C173.276 195.352 174.044 196.225 174.857 197.302C175.679 198.37 176.667 199.555 177.594 200.979C178.072 201.683 178.575 202.419 179.097 203.186C179.614 203.958 180.082 204.804 180.604 205.657C181.672 207.353 182.63 209.267 183.671 211.263C185.637 215.313 187.517 219.91 189.015 224.892C190.464 229.89 191.384 234.771 191.934 239.239C192.143 241.482 192.379 243.61 192.403 245.612C192.429 246.613 192.494 247.577 192.48 248.508C192.459 249.435 192.437 250.326 192.418 251.176C192.413 252.878 192.227 254.408 192.118 255.753C192.02 257.098 191.85 258.248 191.68 259.183C191.367 261.057 191.14 262.08 191.026 262.064C190.732 262.025 191.285 257.873 191.239 251.163C191.224 250.324 191.209 249.448 191.193 248.532C191.174 247.617 191.077 246.668 191.022 245.685C190.94 243.717 190.656 241.629 190.409 239.43C189.784 235.05 188.837 230.271 187.415 225.366C185.944 220.476 184.144 215.948 182.288 211.931C181.302 209.951 180.405 208.045 179.406 206.347C178.917 205.492 178.482 204.643 178.003 203.865C177.519 203.089 177.055 202.343 176.612 201.632C173.006 195.974 170.285 192.791 170.512 192.598" fill="white"/>
<path fill-rule="evenodd" clip-rule="evenodd" d="M189.395 200.415C189.537 200.288 191.452 202.081 193.888 205.536C195.113 207.255 196.405 209.423 197.662 211.922C198.883 214.439 200.048 217.296 200.978 220.393C201.88 223.498 202.452 226.532 202.795 229.308C203.096 232.09 203.189 234.611 203.093 236.722C202.925 240.945 202.29 243.492 202.103 243.463C201.835 243.43 202.05 240.852 201.914 236.72C201.859 234.656 201.647 232.204 201.272 229.508C200.855 226.817 200.253 223.883 199.379 220.866C198.475 217.858 197.387 215.068 196.275 212.583C195.126 210.114 193.973 207.942 192.897 206.177C190.767 202.636 189.188 200.588 189.395 200.415" fill="white"/>
<path fill-rule="evenodd" clip-rule="evenodd" d="M123.275 336.947L121.824 333.981L81.4132 364.875L99.043 393.453L139.269 359.516L123.275 336.947Z" fill="#FF7B5B"/>
<path fill-rule="evenodd" clip-rule="evenodd" d="M83.1067 365.536L98.5943 392.336L99.5847 391.894L85.7925 366.836L83.1067 365.536Z" fill="#D7D4D4"/>
<path fill-rule="evenodd" clip-rule="evenodd" d="M122.477 336.36L83.1067 365.536C83.1067 365.536 83.2717 366.162 84.2488 366.548C85.227 366.935 85.7925 366.836 85.7925 366.836L127.184 338.491C127.184 338.491 124.797 337.936 123.932 337.29C123.066 336.641 122.477 336.36 122.477 336.36" fill="#F5F3F3"/>
<path fill-rule="evenodd" clip-rule="evenodd" d="M128.196 337.348L85.0532 366.181L99.065 392.752L101.322 396.432L144.466 364.482C144.466 364.482 139.922 357.696 137.194 353.599C134.465 349.501 129.109 339.838 128.818 339.219C128.526 338.6 128.196 337.348 128.196 337.348" fill="#FF7B5B"/>
<path fill-rule="evenodd" clip-rule="evenodd" d="M483.978 138.286L485.196 135.795L519.131 161.738L504.326 185.736L470.547 157.238L483.978 138.286Z" fill="#775298"/>
<path fill-rule="evenodd" clip-rule="evenodd" d="M517.709 162.293L504.704 184.797L503.872 184.426L515.454 163.384L517.709 162.293Z" fill="#D7D4D4"/>
<path fill-rule="evenodd" clip-rule="evenodd" d="M484.649 137.792L517.709 162.292C517.709 162.292 517.57 162.818 516.75 163.142C515.929 163.467 515.453 163.384 515.453 163.384L480.696 139.582C480.696 139.582 482.7 139.117 483.427 138.573C484.154 138.029 484.649 137.792 484.649 137.792" fill="#F5F3F3"/>
<path fill-rule="evenodd" clip-rule="evenodd" d="M479.846 138.623L516.074 162.834L504.309 185.148L502.413 188.237L466.183 161.407C466.183 161.407 470 155.708 472.29 152.268C474.583 148.827 479.079 140.713 479.323 140.193C479.568 139.674 479.846 138.623 479.846 138.623" fill="#775298"/>
<path fill-rule="evenodd" clip-rule="evenodd" d="M75.0299 91.5916C75.0299 91.5916 72.4679 93.3658 73.7483 96.3241C75.0299 99.2824 80.6468 108.058 88.2346 107.761C88.5453 107.75 78.6758 91.5916 78.6758 91.5916H75.0299Z" fill="#FF7B5B"/>
<path fill-rule="evenodd" clip-rule="evenodd" d="M63.4225 253.366C63.4225 253.366 53.934 244.885 50.8962 246.404C47.1848 248.261 25.9419 269.087 26.7721 278.898C27.1131 282.916 31.7882 279.474 40.1188 270.827C48.4519 262.182 58.944 265.887 58.944 265.887L63.4225 253.366Z" fill="#775298"/>
<path fill-rule="evenodd" clip-rule="evenodd" d="M86.4757 267.67L75.0211 260.794C75.0211 260.794 45.3299 288.646 49.9685 292.36C53.487 295.176 55.555 292.65 63.8869 284.004C72.2175 275.359 82.7728 280.33 82.7728 280.33L86.4757 267.67Z" fill="#775298"/>
<path fill-rule="evenodd" clip-rule="evenodd" d="M156.447 176.037L158.595 206.557L110.913 194.128L156.447 176.037Z" fill="#F3A683"/>
<path fill-rule="evenodd" clip-rule="evenodd" d="M110.913 195.178C110.913 195.178 152.622 197.809 158.175 195.954C158.175 195.954 166.326 276.077 151.823 284.721C137.318 293.368 104.77 280.707 104.77 280.707L113.558 263.417L132.506 262.182V231.305L131.147 231.614L110.913 195.178Z" fill="#112129"/>
<path fill-rule="evenodd" clip-rule="evenodd" d="M58.6296 249.831C58.6296 249.831 48.1386 254.154 51.5332 264.653C51.5332 264.653 87.345 292.751 104.771 286.266C114.534 282.633 125.021 254.918 132.358 231.24L158.176 195.954C158.176 195.954 145.999 196.564 141.937 196.548C134.173 196.519 110.913 195.178 110.913 195.178C110.913 195.178 98.7632 258.786 94.434 260.33C90.1049 261.872 58.6296 249.831 58.6296 249.831" fill="#22343D"/>
<path fill-rule="evenodd" clip-rule="evenodd" d="M120.632 115.4C120.632 115.4 145.629 91.9329 149.948 85.7565C154.268 79.5812 163.528 58.8939 174.943 50.2485L169.389 38.515C169.389 38.515 172.785 36.663 174.943 41.602C174.943 41.602 182.965 25.5476 184.817 25.8548C186.67 26.1633 181.115 38.2065 181.115 38.2065C181.115 38.2065 188.832 27.0899 190.991 27.3995C193.149 27.708 185.436 39.8957 185.436 39.8957C185.436 39.8957 194.075 29.8696 195.31 31.1047C196.545 32.3397 188.521 39.8957 188.521 39.8957C188.521 39.8957 197.161 34.9325 198.087 36.5683C199.013 38.2065 189.447 42.5286 189.447 42.5286C189.447 42.5286 188.521 49.6304 182.659 52.7174C182.659 52.7174 171.05 84.1 160.558 94.2889L126.853 129.339L120.632 115.4Z" fill="#FFC6B2"/>
<path fill-rule="evenodd" clip-rule="evenodd" d="M90.7935 127.562C90.7935 127.562 67.1087 152.353 60.8971 156.617C54.6844 160.88 33.9245 169.952 25.1788 181.295L13.5046 175.627C13.5046 175.627 11.6221 179.006 16.5387 181.212C16.5387 181.212 0.417554 189.09 0.710048 190.947C1.00012 192.803 13.087 187.357 13.087 187.357C13.087 187.357 1.90551 194.974 2.19437 197.137C2.48322 199.3 14.734 191.695 14.734 191.695C14.734 191.695 4.63384 200.246 5.85722 201.492C7.07817 202.739 14.7061 194.783 14.7061 194.783C14.7061 194.783 9.6645 203.381 11.2932 204.322C12.9196 205.264 17.3288 195.733 17.3288 195.733C17.3288 195.733 24.4336 194.876 27.5758 189.037C27.5758 189.037 57.2828 177.21 67.565 166.807L104.533 140.597L90.7935 127.562Z" fill="#FFC6B2"/>
<path fill-rule="evenodd" clip-rule="evenodd" d="M99.6726 117.682L87.6937 129.415L90.7315 142.643C90.7315 142.643 102.533 170.993 104.317 177.909C107.091 188.664 102.605 205.062 102.605 205.062C102.605 205.062 122.612 203.399 140.817 202.782C159.021 202.164 164.977 196.296 164.977 196.296C164.977 196.296 149.193 143.696 138.295 128.992C127.396 114.29 123.433 109.687 123.433 109.687L107.387 113.197L99.6726 117.682Z" fill="white"/>
<path fill-rule="evenodd" clip-rule="evenodd" d="M134.829 127.258L147.31 119.278C147.31 119.278 149.217 110.728 134.165 100.644L116.514 111.711L134.829 127.258Z" fill="white"/>
<path fill-rule="evenodd" clip-rule="evenodd" d="M90.2181 128.487C83.3754 129.448 70.8709 146.801 69.4764 146.768C69.4764 146.768 78.2768 161.138 85.2481 161.604C85.2481 161.604 115.926 124.879 90.2181 128.487" fill="white"/>
<path fill-rule="evenodd" clip-rule="evenodd" d="M114.372 117.197C114.372 117.197 104.426 109.761 104.771 106.797C104.858 106.05 106.237 104.838 106.595 103.762C108.524 97.9727 99.2258 83.0562 93.5131 79.9121C89.0188 77.4395 90.9886 77.221 81.5305 82.8449C72.0724 88.4688 77.4611 98.1937 81.6846 103.224C85.6776 107.978 90.2507 110.015 94.3651 110.358L100.215 123.36L114.372 117.197Z" fill="#FFC6B2"/>
<path fill-rule="evenodd" clip-rule="evenodd" d="M96.4258 127.519C94.5446 122.901 98.1067 117.086 104.383 114.525C110.661 111.962 117.272 113.628 119.157 118.243C121.037 122.859 114.721 129.798 111.195 131.237C107.669 132.676 98.3058 132.133 96.4258 127.519" fill="#FFC6B2"/>
<path fill-rule="evenodd" clip-rule="evenodd" d="M81.6852 103.224C81.6852 103.224 78.4593 103.045 78.1012 105.196C77.742 107.348 84.0142 107.348 86.3445 105.734L81.6852 103.224Z" fill="#FFC6B2"/>
<path fill-rule="evenodd" clip-rule="evenodd" d="M83.2982 105.196C82.6853 101.309 78.5454 98.4186 78.7518 94.6309C80.7361 94.6467 82.0105 92.1875 81.1075 90.0854C80.7519 89.2596 80.1499 88.5528 79.7652 87.7379C79.3817 86.9243 79.2797 85.858 79.8683 85.3978C80.1475 85.1804 80.5249 85.1428 80.8866 85.1063C83.8285 84.8039 88.8689 85.6868 91.5766 84.6825C94.1544 83.7268 96.9168 81.8675 96.6485 78.7076C96.4143 75.9558 93.9857 73.7249 91.755 72.0394C90.477 71.0727 86.8251 68.5455 85.4476 68.775C83.3443 69.1248 82.8346 71.9325 82.6828 74.2824C81.2119 72.8809 79.0418 73.1056 77.7626 74.2459C76.4834 75.3862 75.8778 77.1981 75.3207 78.9469C74.7624 80.6968 74.1714 82.5136 72.9092 83.6758C71.7331 84.759 69.8726 85.5787 70.1165 87.421C70.4066 89.6166 73.2733 90.3975 74.5986 92.2701C74.2721 91.811 73.9954 94.7426 74.1835 95.2393C74.7491 96.7367 76.1606 97.7276 77.1813 98.8728C79.355 101.314 80.4181 103.772 83.2982 105.196" fill="#FF7B5B"/>
<path fill-rule="evenodd" clip-rule="evenodd" d="M101.319 96.3076L93.9695 100.111C93.9695 100.111 102.798 106.523 101.319 96.3076" fill="white"/>
<path fill-rule="evenodd" clip-rule="evenodd" d="M91.2076 97.8154C91.6094 98.5781 91.0147 99.6808 89.8799 100.278C88.7451 100.876 87.4999 100.742 87.0982 99.9795C86.6976 99.2169 87.2911 98.1154 88.4259 97.5167C89.5619 96.9192 90.8059 97.0528 91.2076 97.8154" fill="#FFB2A0"/>
<path fill-rule="evenodd" clip-rule="evenodd" d="M101.94 90.4799C102.342 91.2425 101.747 92.3452 100.612 92.9427C99.4773 93.5402 98.2321 93.4066 97.8303 92.6439C97.4298 91.8813 98.0233 90.7786 99.1581 90.1811C100.294 89.5836 101.538 89.7172 101.94 90.4799" fill="#FFB2A0"/>
<path fill-rule="evenodd" clip-rule="evenodd" d="M96.1887 96.0379C96.1548 95.9954 96.2919 95.8144 96.6099 95.5849C96.9133 95.3505 97.4412 95.0979 97.8333 94.6753C98.2216 94.2661 98.3612 93.4123 97.7665 93.2921C97.1487 93.082 96.4472 93.7912 95.6426 94.4652C95.4435 94.6304 95.2469 94.7943 95.0515 94.9558C94.8695 95.1234 94.486 95.3687 94.0879 95.319C93.3293 95.1963 93.0065 94.6899 92.7152 94.3511C92.1327 93.603 91.7734 92.8197 91.5744 92.1421C91.1799 90.7722 91.3571 89.8881 91.4518 89.8954C91.5841 89.8894 91.6278 90.7394 92.129 91.9441C92.3815 92.5428 92.7589 93.2229 93.3087 93.8653C93.5769 94.1908 93.9143 94.4944 94.1546 94.5041C94.2554 94.5089 94.3342 94.4749 94.5236 94.3159C94.7166 94.1543 94.9107 93.9904 95.1074 93.8252C95.5127 93.4973 95.8635 93.1658 96.3271 92.8574C96.7774 92.5538 97.4194 92.3619 97.9947 92.5574C98.6088 92.7189 98.9693 93.4354 98.8625 93.9333C98.7933 94.4409 98.5408 94.815 98.2544 95.0882C97.6488 95.5946 97.1075 95.7173 96.7664 95.8703C96.4169 96.0027 96.2251 96.0852 96.1887 96.0379" fill="#FF7B5B"/>
<path fill-rule="evenodd" clip-rule="evenodd" d="M94.3651 110.358C94.3651 110.358 99.0535 110.385 101.597 108.817C101.597 108.817 99.4455 111.462 95.1394 112.147L94.3651 110.358Z" fill="#FFA192"/>
<path fill-rule="evenodd" clip-rule="evenodd" d="M96.3985 89.3205C96.356 89.5525 95.7006 89.6241 95.0076 89.9302C94.3049 90.2143 93.7976 90.6357 93.6022 90.5046C93.4019 90.3989 93.7332 89.561 94.6823 89.1615C95.6302 88.7595 96.4604 89.1019 96.3985 89.3205" fill="#22343D"/>
<path fill-rule="evenodd" clip-rule="evenodd" d="M87.2105 95.351C87.0333 95.2199 87.3112 94.4645 87.986 93.708C88.6693 92.9356 89.542 92.6781 89.6342 92.8943C89.7313 93.1044 89.1997 93.5938 88.6014 94.2727C87.9933 94.9491 87.4023 95.4943 87.2105 95.351" fill="#22343D"/>
<path fill-rule="evenodd" clip-rule="evenodd" d="M83.649 94.1853C83.2691 93.9036 82.973 92.6977 84.427 91.0728C85.8943 89.4115 87.5339 89.7042 87.7306 90.1657C87.9417 90.6186 87.3956 91.2635 86.1079 92.7244C84.8008 94.1805 84.0604 94.4938 83.649 94.1853" fill="#FF7B5B"/>
<path fill-rule="evenodd" clip-rule="evenodd" d="M91.3672 87.7848C91.1572 87.3913 91.389 86.2462 93.2799 85.4483C95.1975 84.6237 96.4755 85.5333 96.4573 86.0057C96.4537 86.4757 95.7316 86.8048 94.047 87.531C92.3503 88.2438 91.5942 88.2135 91.3672 87.7848" fill="#FF7B5B"/>
<path fill-rule="evenodd" clip-rule="evenodd" d="M494.684 99.1763C494.808 99.2989 492.771 101.592 488.545 104.089C484.372 106.583 477.804 109.055 470.251 109.111C462.697 109.167 456.093 106.792 451.883 104.359C447.622 101.926 445.551 99.662 445.673 99.5369C445.849 99.3147 448.164 101.224 452.431 103.314C456.657 105.412 463.027 107.495 470.237 107.443C477.45 107.388 483.787 105.212 487.982 103.051C492.217 100.898 494.506 98.9552 494.684 99.1763" fill="#775298"/>
<path fill-rule="evenodd" clip-rule="evenodd" d="M448.6 95.7127C448.485 95.9665 446.23 95.0302 442.431 94.1826C440.538 93.7357 438.24 93.3908 435.682 93.0726C433.114 92.7885 430.275 92.5626 427.277 92.3488C424.278 92.1388 421.408 91.8971 418.801 91.5741C416.194 91.2279 413.852 90.8163 411.922 90.2941C408.048 89.2825 405.854 88.0851 405.93 87.9163C406.031 87.6612 408.338 88.4494 412.174 89.1404C414.088 89.5059 416.398 89.7889 418.97 90.0451C421.548 90.2807 424.395 90.4738 427.397 90.6851C430.402 90.8988 433.278 91.1745 435.882 91.5486C438.486 91.9578 440.821 92.4339 442.731 93.0411C446.567 94.213 448.686 95.5537 448.6 95.7127" fill="#775298"/>
<mask id="mask0_0:574" style="mask-type:alpha" maskUnits="userSpaceOnUse" x="387" y="31" width="152" height="75">
<path fill-rule="evenodd" clip-rule="evenodd" d="M387.684 31.3756H539V105.556H387.684V31.3756Z" fill="white"/>
</mask>
<g mask="url(#mask0_0:574)">
<path fill-rule="evenodd" clip-rule="evenodd" d="M402.904 46.4008C410.106 44.8719 417.567 46.1883 424.829 47.3991C432.091 48.6098 439.631 49.7016 446.731 47.7512C459.549 44.2307 469.281 31.2718 482.574 31.3762C488.048 31.4187 493.207 33.7577 498.54 34.9952C505.162 36.5326 512.06 36.3674 518.768 37.464C525.477 38.5606 532.407 41.2603 536.199 46.906C540.697 53.6059 539.463 63.0564 534.744 69.602C530.024 76.1488 522.465 80.1345 514.72 82.3933C509.318 83.9684 503.563 84.8792 498.888 88.0136C494.16 91.1844 491.072 96.2873 486.666 99.8929C475.611 108.939 458.406 106.346 446.987 97.7652C444.118 95.6096 441.458 93.108 438.235 91.5305C425.124 85.1087 406.267 93.6095 394.975 81.9258C383.508 70.0598 385.142 50.1703 402.904 46.4008" fill="#775298"/>
</g>
<path fill-rule="evenodd" clip-rule="evenodd" d="M399.306 276.202C399.306 276.202 411.318 301.965 412.724 297.195C414.126 292.422 413.662 280.965 412.91 279.329C412.153 277.693 407.243 270.466 407.243 270.466L399.306 276.202Z" fill="#FFB2A0"/>
<path fill-rule="evenodd" clip-rule="evenodd" d="M486.169 67.867C487.281 69.2915 486.538 67.7613 487.797 69.8161C493.028 69.6339 496.539 65.205 496.539 65.205C496.539 65.205 504.842 65.4248 504.746 63.9408C504.651 62.4544 496.787 63.0094 496.787 63.0094C496.787 63.0094 505.106 60.3947 504.65 59.0893C504.196 57.785 494.591 61.9455 494.591 61.9455C494.591 61.9455 504.283 55.9257 502.851 54.9603C501.42 53.9973 492.095 59.252 492.095 59.252C492.095 59.252 500.199 52.591 498.985 51.7324C497.772 50.8738 486.53 59.5435 486.53 59.5435C486.694 55.2785 483.636 55.4278 483.636 55.4278L483.763 65.8413C483.763 65.8413 485.657 67.2112 486.169 67.867" fill="#FFC6B2"/>
<path fill-rule="evenodd" clip-rule="evenodd" d="M363.099 20.7358C361.322 21.0637 362.7 20.4456 360.394 21.15C356.606 17.5359 357.109 11.8561 357.109 11.8561C357.109 11.8561 350.756 6.50547 351.81 5.45987C352.869 4.41184 358.38 10.0515 358.38 10.0515C358.38 10.0515 353.896 2.56838 355.102 1.8956C356.308 1.22282 360.731 10.7146 360.731 10.7146C360.731 10.7146 357.476 -0.225961 359.188 0.00356151C360.896 0.233084 364.385 10.3563 364.385 10.3563C364.385 10.3563 362.744 -0.00736811 364.218 0.156576C365.695 0.319306 368.352 14.2716 368.352 14.2716C371.058 10.9733 373.244 13.1167 373.244 13.1167L366.383 20.6666C366.383 20.6666 363.916 20.5865 363.099 20.7358" fill="#FFC6B2"/>
<path fill-rule="evenodd" clip-rule="evenodd" d="M406.193 64.2345C403.896 63.8568 398.341 67.551 395.562 73.572C394.006 76.942 392.935 80.3654 394.721 85.846C395.562 88.4242 397.322 88.7472 397.715 89.9021C398.211 91.3642 396.567 95.9729 396.567 95.9729L403.124 98.6227C403.55 95.4568 404.033 92.2714 407.258 90.8967C408.464 90.3818 409.756 90.0563 410.894 89.403C413.966 87.6409 415.607 83.7863 416.869 80.6301C417.811 78.273 411.954 65.1793 406.193 64.2345" fill="#FFC6B2"/>
<path fill-rule="evenodd" clip-rule="evenodd" d="M398.388 153.715L387.401 149.305C387.401 149.305 354.797 209.803 354.933 226.588C355.068 243.372 399.713 276.979 399.713 276.979L407.242 270.467C407.242 270.467 393.459 246.418 386.091 237.939C378.721 229.458 398.388 153.715 398.388 153.715" fill="#FFB2A0"/>
<path fill-rule="evenodd" clip-rule="evenodd" d="M452.935 222.631C452.935 222.631 477.149 211.136 472.284 210.121C467.418 209.11 456.039 210.503 454.472 211.387C452.902 212.273 446.104 217.756 446.104 217.756L452.935 222.631Z" fill="#FFC6B2"/>
<path fill-rule="evenodd" clip-rule="evenodd" d="M409.179 153.191L392.513 159.258C392.513 159.258 375.842 232.627 382.206 244.146C388.568 255.669 406.442 248.044 431.898 234.143L453.219 222.497L446.102 217.757C446.102 217.757 421.291 222.622 414.324 227.472C414.324 227.472 417.96 217.163 422.808 202.611C427.656 188.057 430.999 173.202 409.179 153.191" fill="#FFC6B2"/>
<path fill-rule="evenodd" clip-rule="evenodd" d="M388.665 103.206C388.665 98.3316 390.233 94.8062 395.105 94.8062C399.977 94.8062 406.711 96.5148 406.711 101.391C406.711 106.268 402.872 114.184 397.998 114.184C393.127 114.184 388.665 108.083 388.665 103.206" fill="#FFC6B2"/>
<path fill-rule="evenodd" clip-rule="evenodd" d="M392.512 94.1076C392.512 94.1076 377.363 77.7035 374.333 61.6333C371.301 45.5655 366.153 19.4911 366.153 19.4911L360.395 21.15C360.395 21.15 357.667 56.7842 360.395 62.2405C363.121 67.698 376.446 104.031 380.503 113.572L392.512 94.1076Z" fill="#FFC6B2"/>
<path fill-rule="evenodd" clip-rule="evenodd" d="M408.788 106.893C408.788 106.893 409.953 101.79 429.11 94.8542C448.266 87.92 484.407 65.4426 484.407 65.4426L488.013 69.5704C488.013 69.5704 468.375 92.2664 456.951 96.2472C445.527 100.229 421.262 115.925 418.765 117.181C414.99 119.082 415.036 121.473 408.788 106.893" fill="#FFC6B2"/>
<path fill-rule="evenodd" clip-rule="evenodd" d="M392.512 94.1077C392.512 94.1077 377.121 99.0989 377.121 122.533C377.121 122.533 377.13 154.629 380.758 160.467C380.758 160.467 386.655 161.979 394.008 160.467C401.717 158.881 409.178 153.191 409.178 153.191L421.286 116.821L419.838 99.7801L403.376 96.5996C403.376 96.5996 408.098 118.681 391.012 109.188C387.692 107.343 395.897 94.8157 395.897 94.8157L392.512 94.1077Z" fill="#22343D"/>
<path fill-rule="evenodd" clip-rule="evenodd" d="M379.489 113.167L371.905 97.3565C371.905 97.3565 372.992 87.7651 386.916 84.3284C386.916 84.3284 388.323 89.1629 389.867 91.01C391.41 92.8559 395.903 94.8208 395.903 94.8208L379.489 113.167Z" fill="#22343D"/>
<path fill-rule="evenodd" clip-rule="evenodd" d="M408.162 119.522L432.279 114.576C432.279 114.576 436.472 105.883 426.53 95.5422C426.53 95.5422 407.718 96.6789 405.283 96.8817C402.886 97.0809 404.532 98.928 404.532 98.928L408.162 119.522Z" fill="#22343D"/>
<path fill-rule="evenodd" clip-rule="evenodd" d="M380.719 152.65C380.719 152.65 357.909 194.849 354.14 202.389C354.14 202.389 421.437 233.321 448.755 196.089C448.755 196.089 433.216 163.179 409.192 150.65L398.829 147.544L381.125 152.447" fill="#22343D"/>
<path fill-rule="evenodd" clip-rule="evenodd" d="M415.986 80.2311C415.986 80.2311 418.584 77.631 420.183 79.4308C421.781 81.2305 414.387 83.8305 414.387 83.8305L415.986 80.2311Z" fill="#FFC6B2"/>
<path fill-rule="evenodd" clip-rule="evenodd" d="M463.515 44.7706C463.541 44.8605 462.537 45.2953 460.62 45.7507C458.709 46.2109 455.873 46.6287 452.349 46.7003C448.828 46.7708 444.641 46.4574 440.058 45.8357C435.472 45.2273 430.49 44.3335 425.248 43.7615C420.015 43.2016 414.983 43.0996 410.526 43.8198C406.068 44.5278 402.21 45.9887 399.261 47.6949C396.312 49.4145 394.259 51.3223 393 52.7663C391.733 54.2114 391.162 55.1344 391.033 55.0566C390.963 55.0202 391.344 53.9807 392.492 52.3607C393.633 50.7455 395.647 48.6142 398.649 46.687C401.649 44.7719 405.638 43.1263 410.271 42.303C414.911 41.4675 420.101 41.5318 425.425 42.1026C430.754 42.6843 435.743 43.6291 440.276 44.314C444.808 45.0123 448.904 45.4398 452.353 45.5199C459.267 45.713 463.452 44.4853 463.515 44.7706" fill="#775298"/>
<path fill-rule="evenodd" clip-rule="evenodd" d="M402.753 78.755C402.746 78.857 402.006 78.9286 400.876 78.5534C400.597 78.455 400.267 78.3263 399.959 78.0446C399.808 77.9037 399.667 77.7167 399.581 77.492C399.457 77.1775 399.467 76.8204 399.589 76.5484C399.626 76.4938 399.623 76.3638 399.695 76.3614L399.915 76.3541C400.055 76.3347 400.222 76.3808 400.384 76.4112C400.683 76.4683 400.779 76.4598 400.991 76.4743C401.364 76.4828 401.75 76.444 402.136 76.359C403.713 76.0262 404.769 74.8774 405.243 73.9326C405.739 72.9817 405.783 72.2664 405.915 72.2749C406.008 72.2628 406.193 73.023 405.783 74.1706C405.574 74.7329 405.211 75.3777 404.625 75.9436C404.042 76.5083 403.235 76.9722 402.319 77.1726C401.861 77.2746 401.401 77.3135 400.958 77.2904C400.765 77.2807 400.462 77.2418 400.373 77.2224C400.292 77.209 400.302 77.1908 400.286 77.2005C400.276 77.2103 400.271 77.226 400.273 77.2491C400.305 77.3584 400.365 77.4629 400.449 77.5564C400.617 77.747 400.862 77.8891 401.102 78.0081C402.079 78.4878 402.772 78.6299 402.753 78.755" fill="#FF7B5B"/>
<path fill-rule="evenodd" clip-rule="evenodd" d="M397.344 79.0361L406.228 82.5385C406.228 82.5385 398.42 87.9256 397.344 79.0361" fill="white"/>
<path fill-rule="evenodd" clip-rule="evenodd" d="M410.021 80.7214C409.706 81.3213 408.727 81.4258 407.835 80.9558C406.943 80.487 406.476 79.6199 406.79 79.0212C407.106 78.4213 408.085 78.3157 408.977 78.7856C409.869 79.2556 410.337 80.1215 410.021 80.7214" fill="#FFB2A0"/>
<path fill-rule="evenodd" clip-rule="evenodd" d="M400.106 75.4611C399.837 76.0828 398.869 76.2626 397.945 75.8618C397.02 75.4611 396.487 74.6328 396.756 74.0111C397.025 73.3893 397.993 73.2096 398.918 73.6103C399.843 74.0111 400.376 74.8393 400.106 75.4611" fill="#FFB2A0"/>
<path fill-rule="evenodd" clip-rule="evenodd" d="M396.815 88.7852C396.815 88.7852 399.93 91.3949 403.179 90.5545C403.179 90.5545 402.058 92.2353 397.746 91.6184C397.746 91.6184 398.104 89.7664 396.815 88.7852" fill="#FFA192"/>
<path fill-rule="evenodd" clip-rule="evenodd" d="M409.17 75.1386C409.17 75.5272 408.854 75.8429 408.465 75.8429C408.077 75.8429 407.761 75.5272 407.761 75.1386C407.761 74.7499 408.077 74.4342 408.465 74.4342C408.854 74.4342 409.17 74.7499 409.17 75.1386" fill="#22343D"/>
<path fill-rule="evenodd" clip-rule="evenodd" d="M403.41 73.0625C403.41 73.4511 403.094 73.7669 402.705 73.7669C402.317 73.7669 402.002 73.4511 402.002 73.0625C402.002 72.6739 402.317 72.3582 402.705 72.3582C403.094 72.3582 403.41 72.6739 403.41 73.0625" fill="#22343D"/>
<path fill-rule="evenodd" clip-rule="evenodd" d="M411.43 73.2624C411.213 73.3547 410.793 72.8459 410.157 72.4342C409.535 72.0043 408.903 71.8112 408.905 71.5756C408.884 71.3497 409.765 71.1663 410.621 71.7408C411.478 72.3115 411.648 73.1944 411.43 73.2624" fill="#775298"/>
<path fill-rule="evenodd" clip-rule="evenodd" d="M401.279 69.8451C401.264 69.6253 402.021 69.3484 403.033 69.3751C404.063 69.397 404.824 69.8973 404.719 70.1062C404.621 70.3175 403.904 70.2264 403 70.2094C402.091 70.1827 401.294 70.0843 401.279 69.8451" fill="#775298"/>
<path fill-rule="evenodd" clip-rule="evenodd" d="M404.451 286.67C404.451 286.67 408.147 299.795 411.963 298.721C415.778 297.647 412.909 279.329 412.909 279.329L409.102 273.308C409.102 273.308 412.679 303.97 404.451 286.67" fill="#22343D"/>
<path fill-rule="evenodd" clip-rule="evenodd" d="M451.052 213.904C451.052 213.904 453.739 210.97 456.996 210.482C460.255 209.993 471.9 208.607 473.61 210.155C475.322 211.704 464.172 216.895 464.172 216.895C464.172 216.895 468.056 214.418 466.444 213.497C463.593 211.866 451.052 213.904 451.052 213.904" fill="#22343D"/>
<path fill-rule="evenodd" clip-rule="evenodd" d="M446.431 217.418L450.077 224.825L452.066 223.72L447.204 216.424L446.431 217.418Z" fill="#22343D"/>
<path fill-rule="evenodd" clip-rule="evenodd" d="M405.662 267.497L396.713 275.568L399.365 277.779L406.877 269.598L405.662 267.497Z" fill="#22343D"/>
<path fill-rule="evenodd" clip-rule="evenodd" d="M218.558 187.149C216.013 180.829 215.034 173.793 211.237 168.137C205.772 160 195.275 155.962 190.84 147.218C188.956 143.504 188.365 139.256 188.346 135.092C188.309 126.854 190.774 118.095 197.134 112.86C204.442 106.844 215.406 106.928 223.965 110.969C232.521 115.011 239.059 122.347 244.618 130.01C250.177 137.672 255.044 145.894 261.518 152.799C266.318 157.919 272.011 162.335 275.627 168.35C285.539 184.84 275.34 205.705 257.842 211.657C242.466 216.885 223.877 200.361 218.558 187.149" fill="#22343D"/>
<path fill-rule="evenodd" clip-rule="evenodd" d="M196.653 303.452C198.175 304.704 196.515 303.837 198.728 305.28C198.234 310.814 193.119 314.301 193.119 314.301C193.119 314.301 192.903 323.111 191.259 322.93C189.613 322.752 190.667 314.446 190.667 314.446C190.667 314.446 187.299 323.124 185.874 322.572C184.451 322.022 189.606 312.064 189.606 312.064C189.606 312.064 182.38 322.016 181.388 320.447C180.396 318.879 186.754 309.275 186.754 309.275C186.754 309.275 178.903 317.511 178.016 316.178C177.13 314.848 187.385 303.394 187.385 303.394C182.639 303.342 182.975 300.109 182.975 300.109L194.536 300.795C194.536 300.795 195.953 302.874 196.653 303.452" fill="#FFC6B2"/>
<path fill-rule="evenodd" clip-rule="evenodd" d="M307.102 137.287C309.081 137.634 307.545 136.979 310.112 137.726C314.329 133.893 313.769 127.871 313.769 127.871C313.769 127.871 320.84 122.197 319.667 121.088C318.488 119.977 312.354 125.956 312.354 125.956C312.354 125.956 317.344 118.022 316.002 117.308C314.662 116.595 309.738 126.66 309.738 126.66C309.738 126.66 313.361 115.059 311.456 115.302C309.555 115.546 305.673 126.28 305.673 126.28C305.673 126.28 307.498 115.291 305.856 115.464C304.213 115.637 301.555 130.034 301.555 130.034C297.683 126.881 294.973 128.899 294.973 128.899L303.447 137.213C303.447 137.213 306.193 137.129 307.102 137.287" fill="#FFC6B2"/>
<path fill-rule="evenodd" clip-rule="evenodd" d="M258.701 185.404C262.278 184.846 273.185 191.918 270.409 206.281C270.178 207.487 268.604 210.142 268.212 211.239C267.716 212.63 271.575 217.719 271.575 217.719L261.614 220.904C261.189 217.893 261.904 213.493 258.685 212.185C257.481 211.696 256.193 211.386 255.057 210.766C251.99 209.09 250.352 205.424 249.093 202.423C248.152 200.18 247.436 197.768 247.463 195.334C247.528 189.207 252.952 186.303 258.701 185.404" fill="#FFC6B2"/>
<path fill-rule="evenodd" clip-rule="evenodd" d="M278.647 224.74C278.647 219.571 277.009 217.597 271.586 217.597C266.164 217.597 259.005 219.571 259.005 224.74C259.005 229.911 262.834 236.382 268.26 236.382C273.681 236.382 278.647 229.911 278.647 224.74" fill="#FFC6B2"/>
<path fill-rule="evenodd" clip-rule="evenodd" d="M274.365 215.091C274.365 215.091 291.226 197.696 294.599 180.656C297.973 163.616 303.704 135.967 303.704 135.967L310.112 137.725C310.112 137.725 313.149 175.513 310.112 181.299C307.078 187.087 289.877 227.275 290.214 237.563L274.365 215.091Z" fill="#FFC6B2"/>
<path fill-rule="evenodd" clip-rule="evenodd" d="M244.308 223.514C244.308 223.514 238.575 224.478 229.806 244.413C221.037 264.346 194.058 301.456 194.058 301.456L198.443 305.496C198.443 305.496 224.748 285.886 229.806 273.991C234.864 262.095 241.272 247.306 244.308 247.948C247.343 248.593 260.159 230.907 244.308 223.514" fill="#FFC6B2"/>
<path fill-rule="evenodd" clip-rule="evenodd" d="M289.451 240.22L297.302 218.537C297.302 218.537 296.091 208.368 280.594 204.722L271.816 217.377L289.451 240.22Z" fill="#FF7B5B"/>
<path fill-rule="evenodd" clip-rule="evenodd" d="M246.926 221.85C246.926 221.85 237.663 222.631 230.156 239.131C230.156 239.131 238.412 250.537 244.453 250.922C244.453 250.922 266.887 231.734 246.926 221.85" fill="#FF7B5B"/>
<path fill-rule="evenodd" clip-rule="evenodd" d="M272.376 417.523C272.376 417.523 259.005 444.843 257.442 439.785C255.881 434.725 256.397 422.574 257.235 420.84C258.076 419.104 263.542 411.441 263.542 411.441L272.376 417.523Z" fill="#FFC6B2"/>
<path fill-rule="evenodd" clip-rule="evenodd" d="M273.398 287.637L285.626 282.959C285.626 282.959 321.915 347.113 321.764 364.913C321.614 382.71 271.923 418.348 271.923 418.348L263.542 411.441C263.542 411.441 287.094 376.792 295.295 367.801C299.396 363.304 270.037 341.267 265.591 320.064C261.144 298.86 273.398 287.637 273.398 287.637" fill="#654287"/>
<path fill-rule="evenodd" clip-rule="evenodd" d="M199.878 403.211C199.878 403.211 174.867 421.658 175.907 416.481C176.951 411.299 183.248 400.724 184.827 399.547C186.408 398.373 194.947 393.948 194.947 393.948L199.878 403.211Z" fill="#FFC6B2"/>
<path fill-rule="evenodd" clip-rule="evenodd" d="M240.13 310.354L276.307 289.376C276.307 289.376 277.743 362.25 269.058 378.006C260.374 393.763 199.08 403.746 199.08 403.746L194.947 393.948C194.947 393.948 232.763 371.404 244.373 366.992C255.984 362.577 240.13 310.354 240.13 310.354" fill="#775298"/>
<path fill-rule="evenodd" clip-rule="evenodd" d="M261.676 275.025C261.676 275.025 235.038 284.462 240.13 310.355C245.222 336.246 253.709 341.1 253.709 341.1L268.985 316.019L284.323 283.173L268.985 281.226L261.676 275.025Z" fill="#775298"/>
<path fill-rule="evenodd" clip-rule="evenodd" d="M274.365 215.091C274.365 215.091 293.977 226.089 293.977 250.939C293.977 250.939 291.485 279.27 287.447 285.46C287.447 285.46 280.884 287.064 272.7 285.46C264.119 283.779 255.815 277.745 255.815 277.745L249.113 243.059L243.899 222.806L246.726 221.874L261.476 220.253C261.476 220.253 259.357 242.299 275.826 231.351C279.295 229.045 271.508 217.549 271.508 217.549L274.365 215.091Z" fill="#FF7B5B"/>
<path fill-rule="evenodd" clip-rule="evenodd" d="M286.369 121.186L327.488 145.187L350.618 101.471L312.069 80.0417L286.369 121.186Z" fill="white"/>
<path fill-rule="evenodd" clip-rule="evenodd" d="M343.573 330.45L372.981 312.234L348.685 269.799L321.802 287.242L343.573 330.45Z" fill="white"/>
<path fill-rule="evenodd" clip-rule="evenodd" d="M198.774 149.626C198.852 149.557 199.76 150.382 201.196 152.064C202.625 153.748 204.576 156.309 206.533 159.765C208.498 163.207 210.443 167.574 211.831 172.643C213.268 177.674 214.232 183.33 216.441 188.777C217.588 191.468 218.977 193.974 220.631 196.189C222.3 198.389 224.151 200.32 226.057 202.005C229.95 205.284 234.029 207.539 237.664 208.842C241.295 210.163 244.406 210.756 246.569 210.968C248.729 211.207 249.95 211.243 249.951 211.385C249.957 211.473 248.74 211.659 246.521 211.617C244.304 211.6 241.077 211.176 237.276 209.957C233.472 208.754 229.174 206.529 225.065 203.179C223.049 201.457 221.09 199.463 219.326 197.171C217.575 194.866 216.097 192.231 214.897 189.41C212.596 183.716 211.687 178.01 210.348 173.046C209.07 168.064 207.293 163.778 205.497 160.329C203.712 156.87 201.94 154.248 200.684 152.461C199.42 150.677 198.68 149.71 198.774 149.626" fill="#22343D"/>
<path fill-rule="evenodd" clip-rule="evenodd" d="M249.293 121.546C249.596 121.5 249.889 125.55 252.154 131.541C253.285 134.524 254.967 137.958 257.384 141.399C258.591 143.122 259.981 144.82 261.554 146.512C263.116 148.211 264.817 149.936 266.425 151.872C269.65 155.779 271.869 160.001 273.957 163.728C276.032 167.492 277.683 171.072 278.523 174.274C279.4 177.467 279.451 180.215 279.173 182.038C278.883 183.869 278.427 184.797 278.352 184.772C278.208 184.734 278.443 183.754 278.526 181.98C278.597 180.208 278.372 177.626 277.392 174.608C276.446 171.578 274.743 168.163 272.618 164.48C270.46 160.798 268.222 156.661 265.141 152.937C263.595 151.074 261.918 149.355 260.346 147.613C258.766 145.88 257.329 144.076 256.117 142.27C253.684 138.655 252.06 135.052 251.043 131.937C250.003 128.823 249.56 126.195 249.35 124.384C249.143 122.57 249.199 121.555 249.293 121.546" fill="#22343D"/>
<path fill-rule="evenodd" clip-rule="evenodd" d="M261.9 201.016C261.884 200.899 262.554 200.793 263.186 200.049C263.332 199.878 263.479 199.628 263.476 199.482C263.472 199.326 263.363 199.054 263.175 198.897C262.98 198.722 262.762 198.637 262.476 198.666C262.18 198.688 261.819 198.835 261.349 198.905C260.317 199.043 259.512 198.46 258.983 197.987C258.439 197.491 258.024 196.987 257.715 196.535C257.098 195.625 256.906 194.968 257.001 194.92C257.11 194.861 257.482 195.405 258.177 196.168C258.524 196.547 258.962 196.982 259.479 197.401C259.989 197.808 260.613 198.178 261.236 198.08C261.566 198.037 261.95 197.883 262.419 197.851C262.896 197.804 263.426 198.024 263.718 198.352C264.027 198.687 264.201 199.081 264.164 199.549C264.072 200.027 263.818 200.251 263.608 200.46C262.702 201.254 261.87 201.124 261.9 201.016" fill="#FF7B5B"/>
<path fill-rule="evenodd" clip-rule="evenodd" d="M266.759 201.7L258.862 204.574C258.862 204.574 265.562 210.439 266.759 201.7" fill="white"/>
<path fill-rule="evenodd" clip-rule="evenodd" d="M258.074 201.211C258.389 201.811 257.922 202.678 257.03 203.147C256.138 203.617 255.16 203.512 254.844 202.913C254.528 202.314 254.996 201.447 255.888 200.977C256.78 200.507 257.758 200.611 258.074 201.211" fill="#FFB2A0"/>
<path fill-rule="evenodd" clip-rule="evenodd" d="M267.436 196.408C267.694 197.034 267.148 197.853 266.217 198.238C265.285 198.624 264.32 198.428 264.062 197.802C263.803 197.175 264.349 196.357 265.281 195.972C266.212 195.587 267.177 195.781 267.436 196.408" fill="#FFB2A0"/>
<path fill-rule="evenodd" clip-rule="evenodd" d="M259.095 212.396C259.095 212.396 261.737 212.934 265.105 212.092C265.105 212.092 263.445 213.706 260.732 214.081C260.732 214.081 260.124 212.957 259.095 212.396" fill="#FFA192"/>
<path fill-rule="evenodd" clip-rule="evenodd" d="M261.795 194.633C262.092 194.885 262.128 195.329 261.877 195.626C261.625 195.922 261.182 195.958 260.885 195.707C260.588 195.457 260.552 195.012 260.803 194.715C261.055 194.418 261.499 194.382 261.795 194.633" fill="#22343D"/>
<path fill-rule="evenodd" clip-rule="evenodd" d="M256.488 197.688C256.785 197.94 256.821 198.384 256.57 198.68C256.32 198.977 255.875 199.013 255.578 198.762C255.281 198.51 255.245 198.067 255.496 197.77C255.748 197.473 256.192 197.437 256.488 197.688" fill="#22343D"/>
<path fill-rule="evenodd" clip-rule="evenodd" d="M261.826 191.694C261.756 191.92 261.097 191.911 260.372 192.131C259.641 192.328 259.087 192.685 258.907 192.531C258.722 192.402 259.151 191.61 260.143 191.328C261.132 191.043 261.915 191.485 261.826 191.694" fill="#22343D"/>
<path fill-rule="evenodd" clip-rule="evenodd" d="M252.658 197.234C252.481 197.103 252.759 196.348 253.434 195.592C254.116 194.82 254.99 194.562 255.081 194.777C255.179 194.987 254.646 195.477 254.048 196.156C253.441 196.832 252.85 197.379 252.658 197.234" fill="#22343D"/>
<path fill-rule="evenodd" clip-rule="evenodd" d="M249.68 203.102C249.68 203.102 247.147 200.973 245.931 202.899C244.716 204.825 251.402 205.839 251.402 205.839L249.68 203.102Z" fill="#FFC6B2"/>
<path fill-rule="evenodd" clip-rule="evenodd" d="M188.776 397.216C188.776 397.216 185.145 398.796 184.198 399.745C183.25 400.692 174.566 415.7 175.672 417.595C176.778 419.491 185.486 413.056 185.486 413.056C185.486 413.056 178.199 414.437 188.776 397.216" fill="#775298"/>
<path fill-rule="evenodd" clip-rule="evenodd" d="M259.636 417.062C259.636 417.062 257.057 419.851 256.659 421.132C256.26 422.411 255.548 439.738 257.409 440.902C259.268 442.066 264.351 432.505 264.351 432.505C264.351 432.505 258.274 437.268 259.636 417.102" fill="#775298"/>
</svg>
