<svg width="18" height="14" viewBox="0 0 18 14" fill="none" xmlns="http://www.w3.org/2000/svg">
<path d="M9.48214 4.91996L10.6518 5.4646L12.3929 4.94674V3.73246C12.3929 1.66996 10.6518 0.0181704 8.57143 0.0181704C6.5 0.0181704 4.75 1.66103 4.75 3.70567V9.24139C4.75 9.75031 4.33929 10.1521 3.83929 10.1521C3.33929 10.1521 2.92857 9.75031 2.92857 9.24139V6.9021H0C0 9.25031 0 9.2771 0 9.2771C0 11.3932 1.71429 13.1075 3.83036 13.1075C5.92857 13.1075 7.66071 11.42 7.66071 9.33067V3.86638C7.66071 3.36638 8.07143 2.95567 8.57143 2.95567C9.07143 2.95567 9.48214 3.36638 9.48214 3.86638V4.91996ZM14.2143 6.9021V9.35746C14.2143 9.85746 13.8036 10.2592 13.3036 10.2592C12.8036 10.2592 12.3929 9.85746 12.3929 9.35746V6.94674L10.6518 7.4646L9.48214 6.91996V9.31281C9.48214 11.411 11.2054 13.1075 13.3125 13.1075C15.4286 13.1075 17.1429 11.3932 17.1429 9.2771C17.1429 9.2771 17.1429 9.25031 17.1429 6.9021H14.2143Z" fill="white"/>
</svg>
