<svg width="11" height="6" viewBox="0 0 11 6" fill="none" xmlns="http://www.w3.org/2000/svg">
<path d="M9.58559 0.0784063C9.63536 0.0282258 9.70311 1.0746e-08 9.77378 9.90319e-09C9.84446 9.06038e-09 9.91221 0.0282258 9.96198 0.0784063L10.5239 0.640348C10.5752 0.688449 10.6042 0.755607 10.6042 0.825895C10.6042 0.896183 10.5752 0.963341 10.5239 1.01144L5.65199 5.88337C5.5775 5.95796 5.47644 5.99991 5.37102 6L5.23319 6C5.12777 5.99991 5.02671 5.95796 4.95222 5.88337L0.080287 1.01144C0.0290356 0.963341 -3.71826e-05 0.896183 -3.71834e-05 0.825895C-3.71843e-05 0.755607 0.0290356 0.688449 0.080287 0.640348L0.642229 0.0784065C0.691999 0.0282259 0.75975 1.17394e-07 0.830427 1.16552e-07C0.901104 1.15709e-07 0.968854 0.0282259 1.01862 0.0784064L5.30211 4.36189L9.58559 0.0784063Z" fill="#474747" />
</svg>
