<svg width="12" height="12" viewBox="0 0 12 12" fill="none" xmlns="http://www.w3.org/2000/svg">
<g clip-path="url(#clip0_1_312)">
<path d="M6 12C4.39734 12 2.89062 11.3759 1.75734 10.2427C0.624117 9.10938 0 7.60266 0 6C0 4.39734 0.624117 2.89062 1.75734 1.75734C2.89062 0.624117 4.39734 0 6 0C7.60266 0 9.10938 0.624117 10.2427 1.75734C11.3759 2.89062 12 4.39734 12 6C12 7.60266 11.3759 9.10938 10.2427 10.2427C9.10938 11.3759 7.60266 12 6 12ZM6 0.9375C3.20852 0.9375 0.9375 3.20852 0.9375 6C0.9375 8.79148 3.20852 11.0625 6 11.0625C8.79148 11.0625 11.0625 8.79148 11.0625 6C11.0625 3.20852 8.79148 0.9375 6 0.9375ZM8.11671 8.15447C8.29976 7.9714 8.29978 7.67461 8.11671 7.49156C7.93362 7.30849 7.63683 7.30852 7.4538 7.49156C6.63134 8.31398 5.29315 8.31403 4.47068 7.49156C4.07229 7.09315 3.85287 6.56344 3.85287 6C3.85287 5.43656 4.07229 4.90685 4.47068 4.50844C5.29315 3.68597 6.63134 3.68602 7.4538 4.50844C7.63687 4.69151 7.93366 4.69151 8.11671 4.50844C8.29976 4.32537 8.29976 4.02858 8.11671 3.84553C6.92871 2.65755 4.99573 2.65758 3.80777 3.84553C3.23227 4.42102 2.91534 5.18616 2.91534 6C2.91534 6.81384 3.23227 7.57898 3.80777 8.15447C4.40175 8.74845 5.18198 9.04545 5.96224 9.04545C6.7425 9.04545 7.52273 8.74845 8.11671 8.15447Z" fill="#474747"/>
</g>
<defs>
<clipPath id="clip0_1_312">
<rect width="12" height="12" fill="white"/>
</clipPath>
</defs>
</svg>
