<svg width="16" height="22" viewBox="0 0 16 22" fill="none" xmlns="http://www.w3.org/2000/svg">
<path d="M12.7656 9.25547C13.2618 7.85469 14.6911 3.80273 14.6911 2.50508C14.6911 1.36211 14.0252 0.403906 12.8377 0.403906C10.9462 0.403906 9.24978 6.06289 8.71965 7.41211C8.30826 6.1875 6.38282 0 4.68639 0C3.36742 0 2.74822 0.983984 2.74822 2.22148C2.74822 3.73828 4.19867 7.66992 4.72456 9.18242C4.45737 9.08359 4.16898 8.99766 3.87634 8.99766C2.88393 8.99766 1.82791 10.248 1.82791 11.2578C1.82791 11.6402 2.03572 12.1773 2.16719 12.534C0.602237 12.9637 4.64418e-06 14.0207 4.64418e-06 15.6148C-0.00423643 18.7172 2.89666 22 6.97657 22C11.981 22 15.094 18.193 15.094 13.2816C15.094 11.4297 14.8013 9.7582 12.7656 9.25547ZM11.2643 4.64062C11.4339 4.11211 12.1592 1.87773 12.8377 1.87773C13.2025 1.87773 13.3 2.26016 13.3 2.56523C13.3 3.38594 11.663 7.91914 11.3025 8.92461L9.8605 8.6668L11.2643 4.64062ZM4.07992 2.07539C4.07992 1.56406 4.69487 0.111719 6.04353 4.09922L7.51094 8.40898C6.84934 8.35312 6.33617 8.28008 6.0096 8.46914C5.54733 7.23164 4.07992 3.32578 4.07992 2.07539ZM3.98237 10.4844C5.22501 10.4844 6.82813 14.5492 6.82813 15.0992C6.82813 15.3184 6.62032 15.5891 6.37858 15.5891C5.49219 15.5891 3.11719 12.2848 3.11719 11.391C3.12143 11.0602 3.65581 10.4844 3.98237 10.4844ZM11.7987 18.4895C10.5645 19.8645 8.98684 20.5777 7.14621 20.5777C4.62701 20.5777 2.63795 19.177 1.67947 16.7836C0.954246 14.9187 1.84063 13.8488 2.55313 13.8488C3.03661 13.8488 4.85603 16.4398 4.85603 16.9898C4.85603 17.2004 4.52947 17.3465 4.35983 17.3465C3.67701 17.3465 3.40983 16.6805 2.19264 15.1379C0.933041 16.4141 3.06206 18.8719 4.66518 18.8719C5.7721 18.8719 6.49309 17.832 6.27679 17.0672C6.43371 17.0672 6.6288 17.0801 6.773 17.0414C6.81965 18.2059 7.15893 19.5938 8.54152 19.6926C8.54152 19.6539 8.62635 19.3875 8.62635 19.3746C8.62635 18.627 8.17679 17.9738 8.17679 17.2133C8.17679 15.9973 9.09711 14.8199 10.0301 14.1324C10.3694 13.8746 10.7808 13.7156 11.1795 13.5695C11.5909 13.4105 12.0277 13.2258 12.3415 12.9078C12.2949 12.4266 12.0998 12.0012 11.6248 12.0012C10.45 12.0012 6.51005 12.173 6.51005 10.2953C6.51005 10.0074 6.51429 9.73242 7.248 9.73242C8.61786 9.73242 12.0955 10.0762 13.1134 10.9828C13.881 11.6746 14.144 15.8469 11.7987 18.4895ZM7.61697 13.0754C8.02835 13.2086 8.45246 13.2473 8.87657 13.3332C8.56273 13.5652 8.28282 13.8488 8.01563 14.1539C7.89688 13.7887 7.75268 13.432 7.61697 13.0754Z" fill="#474747"/>
</svg>
