<svg width="245" height="55" viewBox="0 0 245 55" fill="none" xmlns="http://www.w3.org/2000/svg">
<path fill-rule="evenodd" clip-rule="evenodd" d="M10.8798 31.4699L8.4998 35.9499V50.9999H0.799805V1.99994H8.4998V23.3499L18.5798 1.99994H26.2798L15.5698 23.8399L26.2798 50.9999H18.3698L10.8798 31.4699ZM37.1498 39.7299C37.1498 41.5033 37.5115 42.7516 38.2348 43.4749C38.9581 44.1983 39.9265 44.5599 41.1398 44.5599C42.3531 44.5599 43.3215 44.1983 44.0448 43.4749C44.7681 42.7516 45.1298 41.5033 45.1298 39.7299V13.2699C45.1298 11.4966 44.7681 10.2483 44.0448 9.52494C43.3215 8.8016 42.3531 8.43994 41.1398 8.43994C39.9265 8.43994 38.9581 8.8016 38.2348 9.52494C37.5115 10.2483 37.1498 11.4966 37.1498 13.2699V39.7299ZM29.4498 13.7599C29.4498 9.79325 30.4531 6.74829 32.4598 4.62494C34.4665 2.5016 37.3598 1.43994 41.1398 1.43994C44.9198 1.43994 47.8131 2.5016 49.8198 4.62494C51.8265 6.74829 52.8298 9.79325 52.8298 13.7599V39.2399C52.8298 43.2066 51.8265 46.2516 49.8198 48.3749C47.8131 50.4983 44.9198 51.5599 41.1398 51.5599C37.3598 51.5599 34.4665 50.4983 32.4598 48.3749C30.4531 46.2516 29.4498 43.2066 29.4498 39.2399V13.7599ZM65.4498 15.5099V50.9999H58.5198V1.99994H68.1798L76.0898 31.3299V1.99994H82.9498V50.9999H75.0398L65.4498 15.5099ZM88.2898 13.7599C88.2898 9.79325 89.2348 6.74829 91.1248 4.62494C93.0148 2.5016 95.8498 1.43994 99.6298 1.43994C103.41 1.43994 106.245 2.5016 108.135 4.62494C110.025 6.74829 110.97 9.79325 110.97 13.7599V15.2999H103.69V13.2699C103.69 11.4966 103.351 10.2483 102.675 9.52494C101.998 8.8016 101.053 8.43994 99.8398 8.43994C98.6265 8.43994 97.6815 8.8016 97.0048 9.52494C96.3281 10.2483 95.9898 11.4966 95.9898 13.2699C95.9898 14.9499 96.3631 16.4316 97.1098 17.7149C97.8565 18.9983 98.7898 20.2116 99.9098 21.3549C101.03 22.4983 102.231 23.6416 103.515 24.7849C104.798 25.9283 106 27.1766 107.12 28.5299C108.24 29.8833 109.173 31.4233 109.92 33.1499C110.666 34.8766 111.04 36.9066 111.04 39.2399C111.04 43.2066 110.071 46.2516 108.135 48.3749C106.198 50.4983 103.34 51.5599 99.5598 51.5599C95.7798 51.5599 92.9215 50.4983 90.9848 48.3749C89.0481 46.2516 88.0798 43.2066 88.0798 39.2399V36.2299H95.3598V39.7299C95.3598 41.5033 95.7215 42.7399 96.4448 43.4399C97.1681 44.1399 98.1365 44.4899 99.3498 44.4899C100.563 44.4899 101.531 44.1399 102.255 43.4399C102.978 42.7399 103.34 41.5033 103.34 39.7299C103.34 38.0499 102.966 36.5683 102.22 35.2849C101.473 34.0016 100.54 32.7883 99.4198 31.6449C98.2998 30.5016 97.0981 29.3583 95.8148 28.2149C94.5315 27.0716 93.3298 25.8233 92.2098 24.4699C91.0898 23.1166 90.1565 21.5766 89.4098 19.8499C88.6631 18.1233 88.2898 16.0933 88.2898 13.7599ZM114 1.99994H137.8V8.99994H129.75V50.9999H122.05V8.99994H114V1.99994ZM158.05 50.9999C157.956 50.6733 157.863 50.3699 157.77 50.0899C157.676 49.8099 157.595 49.4599 157.525 49.0399C157.455 48.6199 157.408 48.0833 157.385 47.4299C157.361 46.7766 157.35 45.9599 157.35 44.9799V37.2799C157.35 34.9933 156.953 33.3833 156.16 32.4499C155.366 31.5166 154.083 31.0499 152.31 31.0499H149.65V50.9999H141.95V1.99994H153.57C157.583 1.99994 160.488 2.93327 162.285 4.79994C164.081 6.66662 164.98 9.48992 164.98 13.2699V17.1199C164.98 22.16 163.3 25.4733 159.94 27.0599C161.9 27.8533 163.241 29.1483 163.965 30.9449C164.688 32.7416 165.05 34.9233 165.05 37.4899V45.0499C165.05 46.2633 165.096 47.3249 165.19 48.2349C165.283 49.1449 165.516 50.0666 165.89 50.9999H158.05ZM149.65 8.99994V24.0499H152.66C154.106 24.0499 155.238 23.6766 156.055 22.9299C156.871 22.1833 157.28 20.83 157.28 18.8699V14.0399C157.28 12.2666 156.965 10.9833 156.335 10.1899C155.705 9.3966 154.713 8.99994 153.36 8.99994H149.65ZM178.23 1.99994V39.7999C178.23 41.5733 178.591 42.8099 179.315 43.5099C180.038 44.2099 181.006 44.5599 182.22 44.5599C183.433 44.5599 184.401 44.2099 185.125 43.5099C185.848 42.8099 186.21 41.5733 186.21 39.7999V1.99994H193.49V39.3099C193.49 43.2766 192.521 46.3216 190.585 48.4449C188.648 50.5683 185.79 51.6299 182.01 51.6299C178.23 51.6299 175.371 50.5683 173.435 48.4449C171.498 46.3216 170.53 43.2766 170.53 39.3099V1.99994H178.23ZM220.57 1.99994H244.37V8.99994H236.32V50.9999H228.62V8.99994H220.57V1.99994Z" fill="#1A1A1A"/>
<path fill-rule="evenodd" clip-rule="evenodd" d="M197.147 27.4645L217.147 2.46448V52.4645L197.147 27.4645Z" fill="#1A1A1A"/>
</svg>
