<svg width="15" height="15" viewBox="0 0 15 15" fill="none" xmlns="http://www.w3.org/2000/svg">
<path fill-rule="evenodd" clip-rule="evenodd" d="M7.5 13C10.5376 13 13 10.5376 13 7.5C13 4.46243 10.5376 2 7.5 2C4.46243 2 2 4.46243 2 7.5C2 10.5376 4.46243 13 7.5 13ZM7.5 15C11.6421 15 15 11.6421 15 7.5C15 3.35786 11.6421 0 7.5 0C3.35786 0 0 3.35786 0 7.5C0 11.6421 3.35786 15 7.5 15Z" fill="white"/>
<path d="M11 7.5C11 9.433 9.433 11 7.5 11C5.567 11 4 9.433 4 7.5C4 5.567 5.567 4 7.5 4C9.433 4 11 5.567 11 7.5Z" fill="white"/>
</svg>
