<svg width="11" height="7" viewBox="0 0 11 7" fill="none" xmlns="http://www.w3.org/2000/svg">
<path d="M9.58583 0.082269C9.6356 0.0296164 9.70335 1.12754e-08 9.77403 1.03911e-08C9.8447 9.50673e-09 9.91245 0.0296164 9.96222 0.082269L10.5242 0.671894C10.5754 0.722365 10.6045 0.792831 10.6045 0.866582C10.6045 0.940333 10.5754 1.0108 10.5242 1.06127L5.65223 6.17321C5.57773 6.25147 5.47667 6.29549 5.37125 6.29559L5.23342 6.29559C5.128 6.29549 5.02694 6.25147 4.95245 6.17321L0.0805073 1.06127C0.0292553 1.0108 0.00018294 0.940333 0.000182939 0.866582C0.000182938 0.792831 0.0292553 0.722365 0.0805073 0.671895L0.642451 0.0822691C0.692221 0.0296165 0.759972 1.23178e-07 0.830649 1.22293e-07C0.901326 1.21409e-07 0.969076 0.0296165 1.01885 0.0822691L5.30234 4.57677L9.58583 0.082269Z" fill="#474747"/>
</svg>
