<svg width="22" height="22" viewBox="0 0 22 22" fill="none" xmlns="http://www.w3.org/2000/svg">
<path d="M11 0C4.92339 0 0 4.76953 0 10.6562C0 16.543 4.92339 21.3125 11 21.3125C17.0766 21.3125 22 16.543 22 10.6562C22 4.76953 17.0766 0 11 0ZM11 19.25C6.10766 19.25 2.12903 15.3957 2.12903 10.6562C2.12903 5.9168 6.10766 2.0625 11 2.0625C15.8923 2.0625 19.871 5.9168 19.871 10.6562C19.871 15.3957 15.8923 19.25 11 19.25ZM7.45161 9.96875C8.23669 9.96875 8.87097 9.3543 8.87097 8.59375C8.87097 7.8332 8.23669 7.21875 7.45161 7.21875C6.66653 7.21875 6.03226 7.8332 6.03226 8.59375C6.03226 9.3543 6.66653 9.96875 7.45161 9.96875ZM14.5484 7.21875C13.7633 7.21875 13.129 7.8332 13.129 8.59375C13.129 9.3543 13.7633 9.96875 14.5484 9.96875C15.3335 9.96875 15.9677 9.3543 15.9677 8.59375C15.9677 7.8332 15.3335 7.21875 14.5484 7.21875ZM14.9032 13.4062H7.09677C6.51129 13.4062 6.03226 13.8703 6.03226 14.4375C6.03226 15.0047 6.51129 15.4688 7.09677 15.4688H14.9032C15.4887 15.4688 15.9677 15.0047 15.9677 14.4375C15.9677 13.8703 15.4887 13.4062 14.9032 13.4062Z" fill="#474747"/>
</svg>
