<svg width="22" height="22" viewBox="0 0 22 22" fill="none" xmlns="http://www.w3.org/2000/svg">
<path d="M0.616778 9.68129C0.222814 10.3194 9.61651e-07 11 8.89715e-07 11.8228C7.24375e-07 13.7141 1.6719 15.5001 3.8552 15.5001L5.49394 15.5001C5.27293 16.0505 5.09639 16.7088 5.09639 17.4999C5.09639 20.6277 6.78949 22 9.37609 22C12.1436 22 11.9857 17.9208 12.5997 17.3336C13.6215 16.3562 14.8285 14.4784 15.6885 13.75L20.125 13.75C20.9189 13.75 21.5625 13.1344 21.5625 12.375L21.5625 2.0625C21.5625 1.30311 20.9189 0.6875 20.125 0.6875L17.25 0.6875C16.581 0.6875 16.0188 1.12466 15.8584 1.7166C13.859 1.67359 12.4866 0.000430267 7.87121 0.000429864C7.54688 0.000429836 7.1875 -1.2567e-06 6.87305 -1.28419e-06C3.40881 -1.58705e-06 1.84243 1.69395 1.79957 4.09621C1.20126 4.88791 0.887702 5.94911 1.02063 6.97469C0.577966 7.76755 0.406814 8.70817 0.616778 9.68129ZM3.3907 7.36828C2.82649 6.46035 3.3341 5.24519 4.01692 4.89457C3.67102 2.79855 4.8079 2.06293 6.40317 2.06293L8.10211 2.06293C11.3203 2.06293 13.4042 3.68801 15.8125 3.68801L15.8125 11.6875L15.322 11.6875C14.048 11.6875 12.2682 14.7336 11.075 15.8752C9.80105 17.0938 10.2256 19.125 9.37609 19.9375C7.25264 19.9375 7.25264 18.5204 7.25264 17.4999C7.25264 15.8168 8.52662 15.0627 8.52662 13.4376L3.8552 13.4376C2.9069 13.4376 2.16029 12.6251 2.15625 11.8125C2.15221 11.0004 2.73215 10.1879 3.15666 10.1879C2.55071 9.56248 2.42125 8.24416 3.3907 7.36828ZM17.6094 3.4375C17.6094 2.86795 18.0921 2.40625 18.6875 2.40625C19.2829 2.40625 19.7656 2.86795 19.7656 3.4375C19.7656 4.00705 19.2829 4.46875 18.6875 4.46875C18.0921 4.46875 17.6094 4.00705 17.6094 3.4375Z" fill="#A30000"/>
</svg>
