<svg width="21" height="22" viewBox="0 0 21 22" fill="none" xmlns="http://www.w3.org/2000/svg">
<path d="M10.5 0C4.6996 0 0 4.76953 0 10.6562C0 16.543 4.6996 21.3125 10.5 21.3125C16.3004 21.3125 21 16.543 21 10.6562C21 4.76953 16.3004 0 10.5 0ZM10.5 19.25C5.83004 19.25 2.03226 15.3957 2.03226 10.6562C2.03226 5.9168 5.83004 2.0625 10.5 2.0625C15.17 2.0625 18.9677 5.9168 18.9677 10.6562C18.9677 15.3957 15.17 19.25 10.5 19.25ZM15.4875 12.9594C15.0556 12.5941 14.4163 12.6543 14.0565 13.0926C13.1758 14.1668 11.876 14.7855 10.5 14.7855C9.12399 14.7855 7.82419 14.1711 6.94355 13.0926C6.58367 12.6543 5.94012 12.5984 5.5125 12.9594C5.08065 13.3246 5.0256 13.9734 5.38125 14.4117C6.65141 15.9586 8.51855 16.8438 10.5 16.8438C12.4815 16.8438 14.3486 15.9586 15.6187 14.4117C15.9786 13.9734 15.9194 13.3246 15.4875 12.9594ZM7.1129 9.96875C7.8623 9.96875 8.46774 9.3543 8.46774 8.59375C8.46774 7.8332 7.8623 7.21875 7.1129 7.21875C6.36351 7.21875 5.75806 7.8332 5.75806 8.59375C5.75806 9.3543 6.36351 9.96875 7.1129 9.96875ZM13.8871 7.39062C12.799 7.39062 11.5204 8.1168 11.351 9.19961C11.279 9.68086 11.8379 9.98164 12.1893 9.66367L12.5915 9.29844C13.2181 8.73125 14.5476 8.73125 15.1742 9.29844L15.5764 9.66367C15.9363 9.98164 16.4909 9.67656 16.4147 9.19961C16.2538 8.1168 14.9752 7.39062 13.8871 7.39062Z" fill="#474747"/>
</svg>
