<svg width="541" height="608" viewBox="0 0 541 608" fill="none" xmlns="http://www.w3.org/2000/svg">
<path d="M537.504 394.42C530.3 434.99 509.579 471.928 478.713 499.225C468.057 508.622 456.525 516.978 444.277 524.179C401.107 550.281 347.606 566.102 291.909 579.078L282.377 581.224C274.098 583.104 265.606 583.876 257.124 583.519C168.538 579.826 108.2 448.519 89.4343 310.325C73.0646 187.303 100.464 47.9612 223.137 41.6729C269.201 39.3771 322.952 62.3346 372.859 99.2662C376.453 101.911 380.046 104.656 383.59 107.451V107.451L385.785 109.198C478.963 183.46 555.072 303.887 537.504 394.42Z" fill="#FDE6D6"/>
<path d="M102.71 510.255C109.647 524.279 112.192 542.046 98.268 547.736C82.6968 554.124 57.8429 543.843 50.6562 520.436C46.0148 505.464 47.6118 484.603 60.6377 476.567C71.268 469.68 94.4251 493.087 102.71 510.255Z" fill="#F5F9FD"/>
<path d="M483.704 195.738C477.466 190.298 472.475 182.213 477.765 176.773C483.055 171.333 497.329 170.884 505.714 180.815C511.054 187.153 514.747 197.534 510.704 203.872C507.111 209.262 491.49 202.375 483.704 195.738Z" fill="#FFAD69"/>
<path fill-rule="evenodd" clip-rule="evenodd" d="M189.25 115.187C185.956 114.837 182.612 114.588 179.268 114.438C179.003 114.514 178.72 114.414 178.561 114.189C178.401 113.965 178.401 113.664 178.561 113.439C178.72 113.215 179.003 113.115 179.268 113.19C182.26 113.19 185.334 113.52 188.341 113.842L188.342 113.842C188.645 113.875 188.948 113.907 189.25 113.939C189.419 113.951 189.575 114.033 189.679 114.166C189.784 114.3 189.827 114.471 189.799 114.638C189.757 114.922 189.534 115.145 189.25 115.187ZM139.841 118.78C139.571 118.759 139.338 118.584 139.242 118.331C139.146 117.986 139.347 117.629 139.691 117.532C142.836 116.684 146.129 115.935 149.673 115.287C149.832 115.241 150.003 115.264 150.144 115.349C150.286 115.434 150.386 115.574 150.422 115.736C150.483 116.079 150.263 116.409 149.922 116.484C146.629 117.133 143.385 117.882 140.24 118.73L139.841 118.78ZM218.795 120.776C221.989 121.625 225.183 122.523 228.377 123.521H228.826C229.157 123.521 229.425 123.253 229.425 122.922C229.425 122.592 229.157 122.323 228.826 122.323C225.582 121.275 222.338 120.377 219.194 119.529C219.015 119.467 218.818 119.487 218.655 119.583C218.492 119.679 218.379 119.841 218.346 120.028C218.302 120.352 218.489 120.662 218.795 120.776ZM121.026 125.567C120.797 125.549 120.591 125.418 120.477 125.218C120.333 124.901 120.465 124.526 120.777 124.37C123.771 123.022 126.865 121.725 130.059 120.577C130.211 120.512 130.383 120.513 130.534 120.579C130.685 120.645 130.802 120.771 130.858 120.926C130.964 121.242 130.813 121.588 130.509 121.725C127.364 122.872 124.27 124.17 121.326 125.518L121.026 125.567ZM237.909 126.665C241.004 127.763 244.148 128.961 247.242 130.159L247.691 130.209C248.022 130.209 248.29 129.941 248.29 129.61C248.29 129.279 248.022 129.011 247.691 129.011C244.597 127.813 241.453 126.616 238.309 125.518C237.994 125.433 237.662 125.578 237.51 125.867C237.41 126.197 237.585 126.548 237.909 126.665ZM103.758 135.549C103.559 135.563 103.367 135.467 103.259 135.299C103.146 135.187 103.083 135.034 103.083 134.875C103.083 134.716 103.146 134.563 103.259 134.451C106.004 132.505 108.799 130.658 111.693 129.011C111.987 128.905 112.314 129.022 112.473 129.291C112.632 129.56 112.577 129.903 112.342 130.109C109.497 131.756 106.653 133.553 104.008 135.449C103.948 135.495 103.88 135.528 103.808 135.549H103.758ZM265.309 138.094H265.608H265.658C265.865 138.087 266.054 137.974 266.157 137.795C266.225 137.649 266.231 137.483 266.175 137.333C266.118 137.183 266.004 137.062 265.858 136.996C262.863 135.549 259.819 134.201 256.725 132.854C256.579 132.787 256.413 132.78 256.263 132.837C256.113 132.893 255.991 133.007 255.926 133.153C255.782 133.471 255.914 133.845 256.226 134.002C259.27 135.299 262.364 136.697 265.309 138.094ZM88.7564 148.634C88.6354 148.67 88.5059 148.667 88.3864 148.625C88.2736 148.512 88.2102 148.36 88.2102 148.2C88.2102 148.041 88.2736 147.889 88.3864 147.776C90.732 145.331 93.3771 142.786 95.6729 140.839C95.9239 140.598 96.3202 140.598 96.5712 140.839C96.8121 141.09 96.8121 141.486 96.5712 141.737C94.1258 143.883 91.5805 146.179 89.3845 148.575C89.1991 148.702 88.9614 148.724 88.7564 148.634ZM300.843 157.109H300.543C297.749 155.362 294.854 153.665 291.959 152.118C291.772 152.002 291.661 151.795 291.668 151.575C291.674 151.355 291.798 151.155 291.992 151.051C292.186 150.947 292.421 150.954 292.608 151.07C294.121 151.931 295.634 152.819 297.133 153.699C298.502 154.502 299.858 155.299 301.192 156.061C301.305 156.173 301.368 156.326 301.368 156.485C301.368 156.644 301.305 156.797 301.192 156.909C301.105 157.018 300.98 157.089 300.843 157.109ZM75.9594 164.196H76.3087C76.5103 164.286 76.7462 164.247 76.9076 164.096C78.5345 161.458 80.2775 159.246 82.0344 157.016L82.0344 157.016C82.2717 156.715 82.5093 156.414 82.7468 156.111C82.8757 155.997 82.9496 155.834 82.9496 155.662C82.9496 155.49 82.8757 155.326 82.7468 155.213C82.6344 155.1 82.4818 155.036 82.3226 155.036C82.1634 155.036 82.0108 155.1 81.8984 155.213C79.8522 157.808 77.8559 160.503 75.9594 163.347C75.8466 163.46 75.7832 163.613 75.7832 163.772C75.7832 163.931 75.8466 164.084 75.9594 164.196ZM317.662 167.939C317.552 167.993 317.423 167.993 317.312 167.939L309.028 162.349C308.738 162.17 308.649 161.79 308.828 161.501C309.007 161.211 309.387 161.122 309.677 161.301C312.505 163.098 315.3 164.945 318.061 166.841C318.272 167.085 318.272 167.446 318.061 167.689C317.978 167.834 317.828 167.928 317.662 167.939ZM66.5271 181.414C66.3672 181.35 66.2427 181.22 66.1854 181.058C66.1281 180.895 66.1434 180.716 66.2276 180.566C67.625 177.521 69.1722 174.527 70.7692 171.632C70.8316 171.365 71.0548 171.166 71.3271 171.135C71.5993 171.104 71.8618 171.247 71.9829 171.493C72.1041 171.739 72.0577 172.034 71.8672 172.231C70.2701 175.076 68.7729 178.07 67.3256 181.115C67.2603 181.261 67.139 181.375 66.9889 181.431C66.8389 181.488 66.6725 181.481 66.5271 181.414ZM349.253 191.895C349.382 191.945 349.524 191.945 349.653 191.895C349.793 191.902 349.932 191.867 350.052 191.795C350.165 191.682 350.228 191.53 350.228 191.371C350.228 191.211 350.165 191.059 350.052 190.946C348.256 189.567 346.604 188.209 344.977 186.871C344.073 186.127 343.176 185.389 342.266 184.658C341.99 184.506 341.644 184.575 341.448 184.822C341.251 185.068 341.259 185.42 341.468 185.656C343.398 187.035 345.137 188.484 346.883 189.94C347.666 190.592 348.45 191.246 349.253 191.895ZM59.4899 200.229C59.1819 200.094 59.0141 199.758 59.0906 199.431C60.1387 196.187 61.2367 192.993 62.4344 189.948C62.5865 189.66 62.9179 189.515 63.233 189.599C63.3883 189.654 63.5138 189.772 63.58 189.923C63.6461 190.074 63.6469 190.246 63.5823 190.397C62.4344 193.392 61.3365 196.586 60.2884 199.78C60.1915 200.124 59.8344 200.325 59.4899 200.229ZM364.874 204.952C364.806 204.952 364.739 204.941 364.675 204.92C362.229 202.675 359.684 200.479 357.139 198.333C356.921 198.073 356.921 197.694 357.139 197.434C357.39 197.194 357.786 197.194 358.037 197.434L365.573 204.022C365.791 204.282 365.791 204.661 365.573 204.92C365.365 205.068 365.091 205.078 364.874 204.952ZM54.0804 219.332C54.1759 219.475 54.3285 219.57 54.4993 219.593C54.6888 219.609 54.8755 219.54 55.01 219.405C55.1445 219.271 55.2132 219.084 55.198 218.895C55.8967 215.651 56.6453 212.357 57.4937 209.163C57.5594 208.835 57.3649 208.51 57.0445 208.414C56.8791 208.352 56.6948 208.366 56.5408 208.453C56.3868 208.539 56.2789 208.69 56.246 208.863C56.0844 209.56 55.9228 210.251 55.7625 210.936C55.1304 213.638 54.5177 216.257 54.0002 218.845C53.9556 219.011 53.9848 219.189 54.0804 219.332ZM393.421 232.969C393.279 233.033 393.115 233.033 392.972 232.969C390.726 230.523 388.381 227.978 386.085 225.732C385.844 225.481 385.844 225.085 386.085 224.834C386.345 224.616 386.724 224.616 386.983 224.834C387.974 225.867 388.974 226.938 389.971 228.006C391.285 229.413 392.594 230.815 393.871 232.12C394.111 232.371 394.111 232.767 393.871 233.018C393.719 233.045 393.563 233.028 393.421 232.969ZM50.5564 238.608C50.5262 238.949 50.7666 239.255 51.1054 239.307C51.4309 239.34 51.7304 239.126 51.8041 238.808C52.2034 235.364 52.6526 232.02 53.1516 228.826C53.1975 228.665 53.1676 228.493 53.0704 228.357C52.9733 228.221 52.8195 228.136 52.6526 228.128C52.4934 228.099 52.3294 228.135 52.1978 228.229C52.0662 228.323 51.9782 228.467 51.9539 228.627C51.4049 231.92 50.9557 235.264 50.5564 238.608ZM406.697 247.941C406.537 248.007 406.357 248.007 406.198 247.941L399.66 240.355C399.547 240.243 399.484 240.09 399.484 239.931C399.484 239.771 399.547 239.619 399.66 239.506C399.774 239.378 399.937 239.304 400.109 239.304C400.281 239.304 400.445 239.378 400.558 239.506C402.145 241.277 403.759 243.158 405.379 245.046L405.383 245.05L405.386 245.054C405.955 245.717 406.526 246.381 407.096 247.042C407.337 247.294 407.337 247.69 407.096 247.941C406.968 247.991 406.825 247.991 406.697 247.941ZM49.0663 259.027C49.1802 259.151 49.3406 259.22 49.5084 259.22C49.8312 259.224 50.1076 258.99 50.1572 258.671C50.2176 257.322 50.3267 255.966 50.4354 254.614C50.5962 252.614 50.7561 250.625 50.7561 248.689C50.7597 248.339 50.5037 248.041 50.1572 247.991C49.99 247.977 49.8245 248.034 49.7011 248.147C49.5778 248.261 49.5079 248.422 49.5084 248.59C49.4548 249.298 49.3965 250.009 49.3381 250.721L49.3381 250.721C49.1248 253.322 48.9096 255.946 48.9096 258.571C48.8956 258.738 48.9524 258.904 49.0663 259.027ZM419.373 263.562C419.215 263.635 419.033 263.635 418.874 263.562C416.828 260.867 414.782 258.222 412.736 255.677C412.623 255.564 412.56 255.412 412.56 255.252C412.56 255.093 412.623 254.941 412.736 254.828C412.849 254.699 413.013 254.625 413.185 254.625C413.357 254.625 413.52 254.699 413.634 254.828C414.237 255.597 414.849 256.357 415.466 257.123L415.478 257.137L415.481 257.14C416.902 258.904 418.349 260.7 419.773 262.714C420.014 262.965 420.014 263.361 419.773 263.612L419.373 263.562ZM48.9096 278.634C48.9096 278.965 49.1777 279.233 49.5085 279.233H49.5584C49.7262 279.234 49.8867 279.164 50.0005 279.04C50.1144 278.917 50.1712 278.751 50.1573 278.584V271.597V268.603C50.1578 268.435 50.0879 268.274 49.9646 268.16C49.8412 268.047 49.6757 267.99 49.5085 268.004C49.1777 268.004 48.9096 268.272 48.9096 268.603V271.597V278.634ZM430.802 279.832C430.625 279.897 430.431 279.897 430.253 279.832C428.457 277.137 426.56 274.392 424.614 271.597C424.501 271.485 424.438 271.332 424.438 271.173C424.438 271.014 424.501 270.861 424.614 270.749C424.865 270.508 425.261 270.508 425.512 270.749C427.508 273.493 429.405 276.288 431.202 278.983C431.412 279.227 431.412 279.588 431.202 279.832C431.074 279.887 430.93 279.887 430.802 279.832ZM440.883 296.501C440.979 296.688 441.173 296.804 441.383 296.8L441.732 296.501C441.845 296.389 441.908 296.236 441.908 296.077C441.908 295.918 441.845 295.765 441.732 295.652C440.285 292.808 438.538 289.963 436.741 287.068C436.497 286.858 436.136 286.858 435.893 287.068C435.675 287.328 435.675 287.707 435.893 287.967C436.851 289.673 437.863 291.38 438.874 293.086L438.875 293.087C439.55 294.225 440.225 295.363 440.883 296.501ZM50.307 299.196C49.9948 299.197 49.7342 298.958 49.7082 298.647C49.7082 296.608 49.5281 294.57 49.3518 292.574C49.2346 291.248 49.1191 289.941 49.0594 288.665C49.0584 288.326 49.3195 288.043 49.6582 288.017C49.8255 288.003 49.991 288.06 50.1144 288.173C50.2377 288.287 50.3076 288.448 50.307 288.616C50.307 290.942 50.5124 293.32 50.7206 295.731L50.7206 295.731C50.8027 296.682 50.8853 297.637 50.9558 298.597C50.9698 298.764 50.913 298.93 50.7991 299.053C50.6852 299.177 50.5248 299.246 50.357 299.246L50.307 299.196ZM450.266 314.068C450.397 314.276 450.62 314.406 450.865 314.418V314.368C451.177 314.211 451.309 313.837 451.165 313.519C449.717 310.575 448.17 307.58 446.573 304.586C446.4 304.293 446.029 304.184 445.725 304.336C445.514 304.58 445.514 304.941 445.725 305.185C447.322 308.179 448.869 311.174 450.266 314.068ZM52.4031 319.109C52.0804 319.113 51.8039 318.879 51.7543 318.56C51.355 315.266 50.9557 311.922 50.6064 308.579C50.5778 308.412 50.6211 308.24 50.7257 308.107C50.8304 307.974 50.9865 307.892 51.1554 307.88C51.4967 307.85 51.8027 308.09 51.8541 308.429C52.2034 311.723 52.6027 315.067 53.002 318.41C53.0306 318.577 52.9872 318.748 52.8826 318.882C52.778 319.015 52.6219 319.097 52.453 319.109H52.4031ZM458.152 332.335C458.253 332.576 458.489 332.734 458.751 332.734L458.95 332.684C459.106 332.628 459.231 332.511 459.297 332.36C459.363 332.209 459.364 332.037 459.3 331.885C458.152 328.791 456.854 325.697 455.507 322.603C455.35 322.291 454.976 322.159 454.658 322.303C454.512 322.368 454.398 322.49 454.342 322.64C454.285 322.79 454.291 322.956 454.359 323.102C455.706 326.196 456.954 329.29 458.152 332.335ZM55.3975 338.872C55.1021 338.877 54.8478 338.665 54.7986 338.373C54.1997 335.08 53.6507 331.736 53.1516 328.392C53.123 328.22 53.1651 328.043 53.2685 327.902C53.3718 327.761 53.5276 327.668 53.7006 327.643C54.0419 327.613 54.3479 327.853 54.3993 328.192C54.7757 330.677 55.1805 333.161 55.5923 335.688L55.5925 335.689C55.7266 336.512 55.8615 337.34 55.9964 338.174C56.0581 338.517 55.8378 338.847 55.4973 338.922L55.3975 338.872ZM464.839 351.2C464.889 351.491 465.143 351.703 465.438 351.699L465.588 351.649C465.75 351.614 465.889 351.513 465.975 351.372C466.06 351.23 466.082 351.059 466.037 350.9C465.139 347.756 464.141 344.512 463.093 341.318C463.048 341.154 462.935 341.016 462.783 340.94C462.63 340.864 462.453 340.856 462.294 340.919C462.13 340.963 461.992 341.076 461.916 341.229C461.84 341.381 461.832 341.559 461.895 341.717C462.943 344.861 463.941 348.105 464.839 351.2ZM59.4899 358.486C59.1945 358.49 58.9402 358.278 58.891 357.987C58.1424 354.693 57.4437 351.399 56.8448 348.006C56.8002 347.839 56.8294 347.662 56.9249 347.518C57.0205 347.375 57.1731 347.28 57.3438 347.257C57.503 347.228 57.667 347.265 57.7986 347.359C57.9302 347.453 58.0182 347.596 58.0426 347.756C58.3115 349.08 58.5891 350.422 58.8717 351.787C59.2707 353.716 59.6797 355.692 60.0888 357.737C60.1339 357.897 60.1112 358.067 60.0261 358.209C59.9411 358.351 59.8012 358.451 59.6396 358.486H59.4899ZM468.832 370.564C468.903 370.863 469.174 371.071 469.481 371.063L469.581 371.013C469.74 370.989 469.884 370.901 469.978 370.769C470.072 370.637 470.108 370.473 470.08 370.314C469.581 366.921 468.982 363.627 468.233 360.333C468.158 359.992 467.828 359.772 467.484 359.834C467.164 359.93 466.97 360.254 467.035 360.582C467.734 364.076 468.333 367.37 468.832 370.564ZM64.1812 378.399C63.9011 378.408 63.6523 378.222 63.5823 377.95V377.451C62.7339 374.207 61.8855 370.963 61.087 367.47C61.0492 367.132 61.2598 366.816 61.586 366.721C61.9099 366.677 62.2209 366.864 62.3347 367.17C63.1332 370.414 63.9317 373.658 64.7801 376.852V377.351C64.876 377.696 64.6751 378.053 64.331 378.15L64.1812 378.399ZM470.579 390.427C470.579 390.758 470.847 391.026 471.178 391.026L471.227 390.976C471.566 390.95 471.827 390.667 471.826 390.327C471.803 388.779 471.691 387.208 471.579 385.637C471.453 383.865 471.327 382.091 471.327 380.346C471.315 380.173 471.234 380.013 471.102 379.901C470.971 379.788 470.801 379.733 470.629 379.747C470.46 379.758 470.304 379.841 470.199 379.974C470.094 380.107 470.051 380.279 470.08 380.445C470.329 383.789 470.579 387.133 470.579 390.427ZM69.4714 397.614C69.2095 397.614 68.9733 397.456 68.8725 397.214C67.9243 394.02 66.9761 390.776 66.0777 387.582C66.0326 387.423 66.0553 387.253 66.1404 387.111C66.2254 386.969 66.3653 386.869 66.5269 386.834C66.6791 386.787 66.8436 386.803 66.9841 386.878C67.1246 386.953 67.2294 387.081 67.2755 387.233C68.1738 390.477 69.1221 393.671 70.0703 396.815C70.1706 397.145 69.9952 397.496 69.6711 397.614H69.4714ZM469.501 410.844C469.608 410.97 469.765 411.042 469.93 411.039L470.129 410.989C470.394 410.928 470.593 410.709 470.628 410.44C470.703 409.743 470.785 409.042 470.868 408.337C471.169 405.758 471.477 403.123 471.477 400.458C471.456 400.127 471.206 399.856 470.878 399.81C470.711 399.796 470.545 399.852 470.422 399.966C470.299 400.08 470.229 400.241 470.229 400.408C470.03 403.802 469.73 407.146 469.381 410.39C469.351 410.552 469.395 410.719 469.501 410.844ZM75.6599 416.678C75.3902 416.657 75.1569 416.482 75.061 416.229L75.0606 416.228L75.0604 416.227C74.0126 413.084 72.9647 409.94 71.9668 406.747C71.9401 406.447 72.1226 406.169 72.4078 406.074C72.6931 405.979 73.0062 406.092 73.1646 406.347C74.1625 409.541 75.2104 412.685 76.2582 415.828L76.2583 415.828L76.2588 415.83C76.3216 415.988 76.314 416.166 76.2378 416.318C76.1615 416.471 76.024 416.584 75.8596 416.628L75.6599 416.678ZM466.087 429.754C466.025 430.097 466.246 430.428 466.586 430.503L466.886 430.952C467.092 430.899 467.264 430.756 467.351 430.561C467.439 430.367 467.433 430.143 467.335 429.954C468.033 426.51 468.682 423.216 469.181 419.972C469.21 419.813 469.173 419.649 469.079 419.517C468.985 419.386 468.842 419.298 468.682 419.273C468.339 419.212 468.009 419.432 467.934 419.772C467.435 423.166 466.786 426.46 466.087 429.754ZM82.0481 435.494C81.7862 435.494 81.5499 435.336 81.4492 435.094C80.3013 432 79.1535 428.856 78.0555 425.712C77.9315 425.395 78.0879 425.037 78.4048 424.913C78.7218 424.789 79.0793 424.945 79.2034 425.262C79.586 426.311 79.9631 427.359 80.3402 428.407C81.0943 430.503 81.8485 432.599 82.647 434.695C82.7473 435.025 82.5719 435.376 82.2477 435.494H82.0481ZM460.947 449.118C460.846 449.448 461.022 449.799 461.346 449.917H461.545C461.807 449.917 462.044 449.759 462.144 449.517C463.192 446.373 464.191 443.129 465.089 439.935C465.172 439.604 464.971 439.269 464.64 439.187C464.309 439.104 463.974 439.305 463.891 439.636C462.993 442.78 462.045 445.974 460.947 449.118ZM89.4346 454.109C89.1948 454.125 88.9724 453.984 88.8856 453.76C87.588 450.665 86.3403 447.571 85.1425 444.477C85.0605 444.32 85.052 444.135 85.1194 443.971C85.1868 443.808 85.3232 443.682 85.4919 443.628C85.8219 443.528 86.1726 443.704 86.2904 444.028C87.4882 447.122 88.7359 450.216 90.0335 453.261C90.145 453.591 89.996 453.953 89.6841 454.109H89.4346ZM453.46 467.534C453.316 467.851 453.448 468.226 453.76 468.383C454.077 468.527 454.452 468.395 454.608 468.083C456.056 465.139 457.403 462.044 458.701 458.95C458.807 458.634 458.656 458.288 458.351 458.151C458.206 458.084 458.04 458.078 457.889 458.134C457.739 458.19 457.618 458.305 457.553 458.451C456.255 461.545 454.908 464.59 453.46 467.534ZM97.5195 472.475C97.2837 472.477 97.0688 472.34 96.9705 472.126C95.5731 469.081 94.2256 466.037 92.8781 462.943C92.8108 462.797 92.8046 462.631 92.8608 462.481C92.9171 462.331 93.0312 462.21 93.1776 462.144C93.3344 462.062 93.5195 462.054 93.6832 462.121C93.8469 462.188 93.9724 462.325 94.026 462.494C95.0446 464.883 96.1246 467.273 97.1938 469.639C97.4867 470.287 97.7787 470.933 98.0685 471.577C98.2128 471.894 98.0806 472.269 97.7691 472.425L97.5195 472.475ZM443.728 485.8H444.028L444.128 485.85C444.389 485.908 444.66 485.811 444.826 485.601C445.588 484.267 446.385 482.91 447.188 481.542L447.191 481.538C448.07 480.04 448.957 478.528 449.817 477.017C450.008 476.82 450.054 476.524 449.933 476.279C449.812 476.033 449.549 475.89 449.277 475.921C449.005 475.952 448.782 476.151 448.719 476.418C447.222 479.312 445.525 482.157 443.728 484.952C443.616 485.064 443.552 485.217 443.552 485.376C443.552 485.535 443.616 485.688 443.728 485.8ZM106.203 490.492C105.968 490.493 105.753 490.357 105.654 490.142C104.107 487.148 102.61 484.103 101.213 481.159C101.145 481.013 101.139 480.847 101.195 480.697C101.252 480.547 101.366 480.426 101.512 480.36C101.739 480.157 102.083 480.157 102.311 480.36L106.752 489.344C106.905 489.648 106.796 490.019 106.503 490.192L106.203 490.492ZM431.9 501.92H432.3H432.399C432.497 501.948 432.601 501.948 432.699 501.92C434.845 499.325 436.891 496.63 438.837 493.985C438.95 493.873 439.014 493.72 439.014 493.561C439.014 493.402 438.95 493.249 438.837 493.137C438.725 493.024 438.572 492.961 438.413 492.961C438.254 492.961 438.101 493.024 437.989 493.137C436.397 495.504 434.739 497.537 433.041 499.619C432.663 500.083 432.282 500.549 431.9 501.022C431.66 501.273 431.66 501.669 431.9 501.92ZM115.686 508.109C115.464 508.11 115.256 507.997 115.137 507.81L114.76 507.138L114.76 507.138C113.281 504.503 111.756 501.785 110.146 499.026C110.08 498.742 110.211 498.448 110.467 498.309C110.723 498.169 111.041 498.217 111.244 498.427C112.841 501.421 114.488 504.366 116.235 507.161C116.445 507.404 116.445 507.766 116.235 508.009L115.686 508.109ZM418.425 516.693C418.551 516.755 418.699 516.755 418.825 516.693C418.942 516.772 419.083 516.808 419.224 516.793C421.422 514.732 423.579 512.377 425.616 510.151L425.617 510.15L425.618 510.149L426.161 509.556C426.402 509.305 426.402 508.909 426.161 508.658C426.049 508.545 425.896 508.482 425.737 508.482C425.578 508.482 425.425 508.545 425.313 508.658C424.113 509.858 422.868 511.177 421.603 512.518C420.553 513.631 419.489 514.758 418.425 515.845C418.298 515.949 418.225 516.105 418.225 516.269C418.225 516.433 418.298 516.589 418.425 516.693ZM125.967 525.177C125.747 525.17 125.543 525.059 125.418 524.878C123.671 522.133 121.874 519.238 120.128 516.394C119.917 516.15 119.917 515.789 120.128 515.545C120.24 515.432 120.393 515.369 120.552 515.369C120.711 515.369 120.864 515.432 120.976 515.545C122.405 517.941 123.905 520.337 125.387 522.703L125.388 522.705L125.944 523.594L126.216 524.029C126.427 524.273 126.427 524.634 126.216 524.878L125.967 525.177ZM403.503 529.919C403.627 530.067 403.808 530.158 404.002 530.168L404.152 530.118C404.209 530.077 404.26 530.026 404.301 529.968L411.887 523.431C412.128 523.18 412.128 522.783 411.887 522.532C411.775 522.419 411.622 522.356 411.463 522.356C411.304 522.356 411.151 522.419 411.039 522.532C410.05 523.386 409.076 524.239 408.105 525.089L408.102 525.092C406.576 526.429 405.058 527.759 403.503 529.07C403.39 529.183 403.327 529.335 403.327 529.494C403.327 529.654 403.39 529.806 403.503 529.919ZM137.246 541.797C137.039 541.79 136.85 541.677 136.747 541.497C134.801 538.902 132.854 536.157 130.958 533.362C130.74 533.103 130.74 532.724 130.958 532.464C131.209 532.223 131.605 532.223 131.856 532.464C133.752 535.209 135.699 537.954 137.595 540.599C137.708 540.711 137.771 540.864 137.771 541.023C137.771 541.182 137.708 541.335 137.595 541.447C137.558 541.564 137.489 541.668 137.396 541.747L137.246 541.797ZM387.632 542.296C387.791 542.368 387.973 542.368 388.131 542.296L388.281 542.246C388.294 542.253 388.307 542.259 388.32 542.264C388.332 542.269 388.345 542.274 388.357 542.278C388.381 542.286 388.406 542.292 388.431 542.296C391.226 540.349 393.921 538.353 396.516 536.357C396.628 536.244 396.692 536.092 396.692 535.933C396.692 535.773 396.628 535.621 396.516 535.508C396.403 535.396 396.251 535.332 396.092 535.332C395.932 535.332 395.78 535.396 395.667 535.508C393.333 537.304 390.918 539.059 388.459 540.846L388.457 540.848L387.632 541.447C387.519 541.56 387.456 541.712 387.456 541.872C387.456 542.031 387.519 542.183 387.632 542.296ZM371.412 553.325C371.202 553.329 371.009 553.213 370.913 553.026C370.8 552.914 370.737 552.761 370.737 552.602C370.737 552.442 370.8 552.29 370.913 552.177C373.808 550.381 376.653 548.584 379.348 546.787C379.46 546.675 379.613 546.611 379.772 546.611C379.931 546.611 380.084 546.675 380.196 546.787C380.309 546.9 380.372 547.052 380.372 547.212C380.372 547.371 380.309 547.524 380.196 547.636C377.501 549.433 374.656 551.229 371.762 553.026L371.412 553.325ZM149.174 557.468C149.335 557.529 149.512 557.529 149.673 557.468L150.122 557.567C150.363 557.316 150.363 556.92 150.122 556.669C149.006 555.234 147.875 553.898 146.746 552.563L146.745 552.562L146.745 552.561L146.744 552.56L146.743 552.56L146.743 552.559L146.742 552.558L146.742 552.558L146.741 552.557L146.74 552.556L146.74 552.555L146.739 552.555L146.739 552.554L146.738 552.553L146.738 552.552L146.737 552.552L146.736 552.551L146.736 552.55L146.735 552.549L146.735 552.549L146.734 552.548L146.733 552.547L146.733 552.547L146.732 552.546L146.732 552.545L146.731 552.544L146.73 552.544L146.73 552.543L146.729 552.542L146.729 552.541L146.728 552.541L146.727 552.54L146.727 552.539L146.726 552.538L146.726 552.538L146.725 552.537L146.724 552.536L146.724 552.536L146.723 552.535L146.723 552.534L146.721 552.532C145.738 551.37 144.755 550.21 143.784 548.983C143.577 548.722 143.197 548.677 142.935 548.884C142.674 549.09 142.629 549.47 142.836 549.732C144.932 552.477 147.028 555.022 149.174 557.468ZM354.294 563.357C354.065 563.338 353.859 563.207 353.745 563.007C353.593 562.703 353.702 562.332 353.995 562.159C356.939 560.562 359.884 558.915 362.679 557.168C362.922 556.958 363.283 556.958 363.527 557.168C363.64 557.281 363.703 557.433 363.703 557.592C363.703 557.752 363.64 557.904 363.527 558.017L354.793 563.007L354.294 563.357ZM163.048 572.041C163.177 572.091 163.319 572.091 163.447 572.041V571.991C163.589 572.062 163.755 572.062 163.897 571.991C164.024 571.886 164.097 571.731 164.097 571.566C164.097 571.402 164.024 571.247 163.897 571.142C161.601 568.996 159.256 566.501 156.91 564.006L156.91 564.005C156.658 563.765 156.262 563.765 156.011 564.005C155.884 564.11 155.811 564.265 155.811 564.43C155.811 564.594 155.884 564.75 156.011 564.854C158.373 567.349 160.719 569.745 163.048 572.041ZM336.527 572.54C336.291 572.542 336.076 572.405 335.978 572.19C335.894 572.04 335.878 571.861 335.936 571.698C335.993 571.536 336.118 571.406 336.277 571.342L345.161 566.85C345.358 566.66 345.653 566.613 345.899 566.735C346.145 566.856 346.288 567.118 346.257 567.39C346.225 567.663 346.027 567.886 345.76 567.948C342.765 569.495 339.821 570.993 336.776 572.44L336.527 572.54ZM317.861 580.625C317.944 580.859 318.162 581.017 318.41 581.024L318.66 580.974L327.743 576.782C328.014 576.743 328.231 576.538 328.286 576.27C328.341 576.002 328.222 575.729 327.989 575.586C327.755 575.443 327.457 575.463 327.244 575.634C325.121 576.66 322.973 577.636 320.817 578.615L320.81 578.619L320.804 578.621C319.924 579.021 319.042 579.422 318.161 579.826C318.015 579.892 317.9 580.013 317.844 580.163C317.788 580.313 317.794 580.479 317.861 580.625ZM178.669 585.116C178.556 585.154 178.433 585.154 178.32 585.116C176.78 583.932 175.311 582.713 173.787 581.448L173.784 581.445L173.783 581.444L173.78 581.442L173.773 581.436L173.766 581.43C172.728 580.568 171.663 579.685 170.534 578.778C170.272 578.558 170.239 578.166 170.459 577.905C170.68 577.643 171.071 577.609 171.333 577.83L171.574 578.038L171.892 578.312C174.239 580.34 176.525 582.315 179.068 584.118C179.197 584.232 179.271 584.395 179.271 584.567C179.271 584.739 179.197 584.903 179.068 585.016C178.917 585.105 178.735 585.124 178.569 585.066L178.669 585.116ZM299.595 588.56C299.682 588.784 299.905 588.926 300.144 588.909L300.394 588.86C303.488 587.612 306.533 586.314 309.627 584.967C309.773 584.901 309.887 584.78 309.943 584.63C310 584.48 309.994 584.314 309.926 584.168C309.774 583.88 309.443 583.735 309.128 583.819C306.083 585.166 302.989 586.464 299.895 587.712C299.583 587.868 299.451 588.243 299.595 588.56ZM195.338 595.946H195.039C192.409 594.541 189.779 592.97 187.186 591.422L186.405 590.955C186.194 590.712 186.194 590.351 186.405 590.107C186.517 589.994 186.67 589.931 186.829 589.931C186.988 589.931 187.141 589.994 187.253 590.107C190.048 591.954 192.943 593.65 195.787 595.098C195.998 595.341 195.998 595.703 195.787 595.946C195.637 595.984 195.477 595.966 195.338 595.896V595.946ZM280.98 595.996C281.062 596.23 281.281 596.389 281.529 596.396L281.778 596.346L291.061 592.653C291.366 592.516 291.517 592.17 291.41 591.854C291.274 591.549 290.928 591.398 290.612 591.505L281.329 595.198C281.163 595.239 281.026 595.354 280.957 595.511C280.889 595.667 280.897 595.847 280.98 595.996ZM262.863 603.433C262.583 603.441 262.334 603.255 262.264 602.983C262.164 602.653 262.34 602.303 262.664 602.185C264.111 601.736 265.608 601.187 267.106 600.638L272.096 598.791C272.248 598.727 272.42 598.727 272.571 598.794C272.722 598.86 272.839 598.985 272.895 599.141C272.977 599.29 272.986 599.47 272.917 599.626C272.849 599.783 272.711 599.898 272.545 599.939L267.555 601.836C266.057 602.385 264.51 602.934 263.013 603.383L262.863 603.433ZM204.272 600.288C207.352 601.603 210.501 602.753 213.704 603.732V603.682C214.02 603.766 214.351 603.621 214.503 603.333C214.599 602.988 214.398 602.631 214.054 602.534C210.9 601.572 207.801 600.439 204.771 599.14C204.441 599.029 204.079 599.178 203.923 599.49C203.816 599.806 203.967 600.152 204.272 600.288ZM243.25 607.226C242.919 607.226 242.651 606.957 242.651 606.627C242.621 606.465 242.665 606.298 242.771 606.172C242.878 606.047 243.035 605.975 243.2 605.978C246.55 605.751 249.884 605.318 253.181 604.68C253.524 604.619 253.855 604.839 253.93 605.179C253.959 605.339 253.922 605.503 253.828 605.634C253.734 605.766 253.591 605.854 253.431 605.878C250.133 606.526 246.8 606.976 243.449 607.226H243.25ZM233.268 607.225C229.92 607.025 226.587 606.625 223.287 606.028C223.116 606.005 222.963 605.91 222.868 605.766C222.772 605.623 222.743 605.445 222.787 605.279C222.812 605.119 222.9 604.976 223.031 604.882C223.163 604.788 223.327 604.751 223.486 604.78C226.786 605.379 230.12 605.778 233.468 605.978C233.636 605.977 233.796 606.047 233.91 606.17C234.024 606.294 234.081 606.459 234.067 606.627C234.057 606.819 233.962 606.998 233.808 607.113C233.654 607.229 233.456 607.27 233.268 607.225ZM379.298 218.645C379.383 218.688 379.477 218.705 379.569 218.696C379.759 218.813 380.002 218.815 380.196 218.695C380.437 218.444 380.437 218.048 380.196 217.797C378.42 215.942 376.426 214.087 374.484 212.281L374.483 212.28L374.483 212.28L374.477 212.274L374.451 212.251C373.949 211.783 373.45 211.319 372.959 210.86C372.708 210.619 372.312 210.619 372.061 210.86C371.948 210.972 371.885 211.125 371.885 211.284C371.885 211.443 371.948 211.596 372.061 211.708C373.544 213.191 375.157 214.717 376.786 216.258L376.789 216.261L376.792 216.263C377.628 217.055 378.469 217.85 379.298 218.645ZM333.632 179.567H333.982C334.129 179.568 334.271 179.515 334.381 179.418C334.494 179.305 334.557 179.153 334.557 178.993C334.557 178.834 334.494 178.682 334.381 178.569L334.38 178.569L334.379 178.568C331.685 176.572 328.99 174.576 326.246 172.63C325.965 172.529 325.652 172.633 325.486 172.881C325.321 173.129 325.346 173.458 325.547 173.678C328.242 175.575 330.987 177.571 333.632 179.567ZM283.425 147.128H283.126C280.198 145.53 277.253 143.983 274.292 142.486C274.115 142.396 273.99 142.23 273.951 142.035C273.912 141.841 273.964 141.639 274.093 141.488C274.166 141.337 274.3 141.224 274.462 141.176C274.623 141.129 274.797 141.151 274.941 141.238C277.836 142.686 280.83 144.283 283.775 145.88C283.887 145.992 283.951 146.145 283.951 146.304C283.951 146.463 283.887 146.616 283.775 146.728C283.745 146.902 283.633 147.05 283.475 147.128H283.425ZM199.231 116.534C202.625 117.033 205.919 117.682 209.213 118.381C209.528 118.443 209.837 118.245 209.911 117.932C209.973 117.589 209.753 117.258 209.412 117.183C205.969 116.434 202.625 115.835 199.431 115.286C199.272 115.258 199.108 115.294 198.976 115.388C198.844 115.482 198.756 115.626 198.732 115.786C198.67 116.129 198.891 116.459 199.231 116.534ZM158.884 115.045C158.998 115.149 159.151 115.201 159.305 115.187H159.255C162.549 114.837 165.893 114.538 169.237 114.538C169.405 114.538 169.565 114.469 169.679 114.345C169.793 114.222 169.85 114.056 169.836 113.889C169.812 113.569 169.557 113.314 169.237 113.29C165.843 113.39 162.499 113.64 159.255 113.989C159.091 113.986 158.933 114.057 158.827 114.183C158.721 114.309 158.676 114.476 158.706 114.638C158.706 114.792 158.77 114.94 158.884 115.045Z" fill="#D8D5DB"/>
<path d="M468.732 394.869C468.732 395.468 468.732 395.967 468.732 396.516C467.484 410.44 455.506 440.135 443.778 466.386C444.177 475.869 444.477 484.353 444.527 491.34C444.527 492.638 444.527 493.836 444.527 495.033H443.079C443.429 501.222 443.878 511.952 444.227 524.279C401.057 550.381 347.556 566.201 291.859 579.177L282.327 581.323C274.048 583.204 265.556 583.976 257.074 583.619C256.564 581.531 256.378 579.376 256.525 577.231C257.705 549.094 260.638 521.058 265.309 493.287L262.214 492.837C273.543 454.608 279.233 399.46 282.177 351.599V351.599C282.527 345.959 282.826 340.47 283.076 335.03C275.839 342.416 270.848 347.007 270.848 347.007L255.527 321.804C236.612 335.479 218.745 347.556 210.011 353.146C202.774 359.933 190.447 360.932 180.765 348.155C165.094 327.643 142.985 241.553 140.39 226.93C140.011 226.787 139.658 226.584 139.342 226.331C135.749 221.34 123.172 194.14 124.37 188.85C125.567 183.56 131.457 172.131 138.294 170.584C137.495 168.139 136.597 165.593 135.299 162.05C132.405 154.165 128.961 146.179 134.152 147.078C139.342 147.976 151.22 177.022 153.266 182.013C153.566 179.667 153.865 177.771 153.865 177.771C155.462 173.08 163.847 170.584 162.599 177.771C161.152 187.752 164.645 192.743 164.495 200.978C164.495 201.427 164.495 201.926 164.495 202.625C164.515 202.924 164.515 203.224 164.495 203.523C164.522 203.739 164.522 203.956 164.495 204.172C164.495 204.172 164.495 204.421 164.495 204.521C163.28 210.654 161.126 216.563 158.107 222.039V222.039C163.547 239.806 188.501 286.27 203.024 311.872C211.908 304.486 222.987 295.702 234.466 286.919L233.468 285.272C233.468 285.272 292.658 229.924 323.301 225.732C323.75 223.586 324.05 221.24 324.349 218.795C324.649 216.349 324.848 212.207 324.948 208.813C302.44 208.564 300.344 191.994 302.59 170.933L299.046 170.035L304.286 156.46V155.462C303.711 154.792 303.377 153.949 303.338 153.067C303.338 151.42 303.787 150.022 304.686 149.972C304.814 149.922 304.957 149.922 305.085 149.972C305.085 148.775 305.484 147.577 305.634 146.379C306.033 143.734 306.532 141.388 307.031 138.943C305.697 138.68 304.324 138.68 302.989 138.943L302.59 136.497C304.24 136.203 305.93 136.203 307.58 136.497C309.237 129.806 311.913 123.409 315.516 117.532C308.329 117.033 304.935 114.688 309.926 108.898C317.662 99.915 354.294 95.4233 372.76 99.2163C379.248 100.564 383.49 102.909 383.54 106.403C383.54 106.802 383.54 107.052 383.54 107.401V107.401C385.428 106.602 387.054 105.288 388.231 103.608L390.327 105.006C389.123 106.71 387.554 108.125 385.736 109.148L384.987 109.547C404.75 122.423 376.802 191.396 376.702 191.396C376.153 203.224 375.804 214.902 375.854 223.137C393.621 225.183 404.85 230.373 412.286 238.508C432.249 254.529 462.893 320.257 462.893 320.257L450.366 323.551C459.299 352.198 466.885 380.945 469.081 390.577C469.147 392.016 469.03 393.459 468.732 394.869Z" fill="#D1CDD3"/>
<rect opacity="0.3" x="376.203" y="284.224" width="334.031" height="260.767" rx="33.6" transform="rotate(180 376.203 284.224)" fill="#4D8DFF"/>
<path opacity="0.3" fill-rule="evenodd" clip-rule="evenodd" d="M39.9261 307.83H353.945C364.56 307.83 374.738 303.603 382.23 296.083C389.721 288.563 393.91 278.369 393.871 267.754V39.9261C393.871 17.8755 375.995 0 353.945 0H39.9261C17.8755 0 0 17.8755 0 39.9261V267.904C0 289.954 17.8755 307.83 39.9261 307.83ZM1.09798 39.926C1.12548 18.4933 18.4933 1.12542 39.9261 1.09792H353.945C375.377 1.12542 392.745 18.4933 392.773 39.926V267.754C392.745 289.187 375.377 306.555 353.945 306.582H39.9261C18.4933 306.555 1.12548 289.187 1.09798 267.754V39.926Z" fill="#4D8DFF"/>
<g opacity="0.3">
<rect x="125.667" y="100.714" width="55.7967" height="43.5693" rx="5.6" transform="rotate(180 125.667 100.714)" fill="#4D8DFF"/>
<rect x="199.93" y="100.714" width="55.7967" height="43.5693" rx="5.6" transform="rotate(180 199.93 100.714)" fill="#4D8DFF"/>
<rect x="274.242" y="100.714" width="55.7967" height="43.5693" rx="5.6" transform="rotate(180 274.242 100.714)" fill="#4D8DFF"/>
<rect x="348.554" y="100.714" width="55.7967" height="43.5693" rx="5.6" transform="rotate(180 348.554 100.714)" fill="#4D8DFF"/>
</g>
<g opacity="0.3">
<rect x="125.667" y="175.625" width="55.7967" height="43.5693" rx="5.6" transform="rotate(180 125.667 175.625)" fill="#4D8DFF"/>
<rect x="199.93" y="175.625" width="55.7967" height="43.5693" rx="5.6" transform="rotate(180 199.93 175.625)" fill="#4D8DFF"/>
<rect x="274.242" y="175.625" width="55.7967" height="43.5693" rx="5.6" transform="rotate(180 274.242 175.625)" fill="#4D8DFF"/>
<rect x="348.554" y="175.625" width="55.7967" height="43.5693" rx="5.6" transform="rotate(180 348.554 175.625)" fill="#4D8DFF"/>
</g>
<g opacity="0.3">
<rect x="125.667" y="250.486" width="55.7967" height="43.5693" rx="5.6" transform="rotate(180 125.667 250.486)" fill="#4D8DFF"/>
<rect x="199.93" y="250.486" width="55.7967" height="43.5693" rx="5.6" transform="rotate(180 199.93 250.486)" fill="#4D8DFF"/>
<rect x="274.242" y="250.486" width="55.7967" height="43.5693" rx="5.6" transform="rotate(180 274.242 250.486)" fill="#4D8DFF"/>
<rect x="348.554" y="250.486" width="55.7967" height="43.5693" rx="5.6" transform="rotate(180 348.554 250.486)" fill="#4D8DFF"/>
</g>
<rect x="281.329" y="93.6266" width="55.7967" height="43.5693" rx="5.6" transform="rotate(180 281.329 93.6266)" fill="#4D8DFF"/>
<rect x="281.329" y="243.399" width="55.7967" height="43.5693" rx="5.6" transform="rotate(180 281.329 243.399)" fill="#FF4E4A"/>
<rect x="132.704" y="168.538" width="55.7967" height="43.5693" rx="5.6" transform="rotate(180 132.704 168.538)" fill="#FFC84D"/>
<path d="M415.181 148.325C413.484 159.205 410.191 218.196 411.538 231.671C412.886 245.146 346.658 249.238 355.492 234.216C364.325 219.194 358.037 169.336 358.037 169.336L415.181 148.325Z" fill="#FFAD69"/>
<path d="M410.59 150.022L358.037 169.237C360.005 185.679 360.473 202.267 359.434 218.795C381.094 209.861 376.303 191.695 376.303 181.913C376.303 173.03 410.639 151.719 410.59 150.022Z" fill="#D88344"/>
<path d="M341.318 152.268L333.133 169.736L343.115 173.778L341.318 152.268V152.268Z" fill="#D88344"/>
<path d="M341.168 146.479C336.178 180.067 327.993 213.555 368.717 208.015C409.442 202.475 415.73 150.372 415.63 140.49C414.982 87.9871 350.751 80.5009 341.168 146.479Z" fill="#FFAD69"/>
<path d="M420.571 109.747C422.674 108.66 424.501 107.107 425.911 105.205L423.815 103.808C422.541 105.516 420.812 106.831 418.824 107.601C418.851 107.252 418.851 106.902 418.824 106.553C418.824 92.9779 355.641 96.8706 345.211 108.998C339.022 116.185 345.61 118.081 356.29 117.732C355.497 118.342 354.906 119.177 354.593 120.128C347.556 154.614 380.795 188.551 384.538 191.446H411.688C411.688 191.446 440.135 122.423 420.571 109.747Z" fill="#232323"/>
<path d="M504.416 390.627C500.823 374.606 482.107 305.285 467.235 272.046L429.255 280.131C429.255 280.131 453.76 362.08 466.786 392.673C463.741 409.142 448.37 485.751 438.887 507.161C434.695 517.142 450.566 520.985 454.409 516.194C458.252 511.403 501.871 423.765 504.316 396.416C504.316 395.817 504.316 395.318 504.316 394.769C504.565 393.402 504.599 392.004 504.416 390.627V390.627Z" fill="#FFAD69"/>
<path d="M447.372 238.259C467.335 253.88 498.227 320.307 498.227 320.307L432.848 337.275C432.848 337.275 394.819 197.135 447.372 238.259Z" fill="#E5AA33"/>
<path d="M478.714 499.275C468.057 508.672 456.526 517.028 444.277 524.229C401.107 550.331 347.606 566.152 291.909 579.128C291.86 578.48 291.86 577.829 291.909 577.181C293.706 546.288 296.9 511.004 301.891 488.595L444.677 491.44L478.414 492.139C478.414 493.836 478.714 496.231 478.714 499.275Z" fill="#232323"/>
<path d="M399.56 222.338C438.738 223.636 452.013 236.861 458.75 259.769C466.436 285.721 479.961 442.68 479.961 495.083C479.961 495.083 362.628 503.418 297.649 492.737C318.011 423.915 320.207 300.194 320.656 263.163C320.956 235.664 349.852 220.691 399.56 222.338Z" fill="#FFC84D"/>
<path fill-rule="evenodd" clip-rule="evenodd" d="M404.401 249.288C405.103 250.237 406.216 250.794 407.396 250.786L407.994 250.586C409.333 250.417 410.478 249.539 410.989 248.29L416.678 234.116C417.058 232.977 416.876 231.726 416.187 230.742C415.499 229.758 414.385 229.159 413.185 229.126H396.865C395.447 229.126 394.151 229.927 393.517 231.195C392.883 232.463 393.02 233.98 393.871 235.115L404.401 249.288ZM395.617 232.32C395.831 231.883 396.279 231.61 396.765 231.621H413.035C413.454 231.616 413.848 231.823 414.083 232.17C414.308 232.538 414.308 233 414.083 233.368L408.394 247.492C408.243 247.928 407.854 248.239 407.395 248.29C406.951 248.342 406.513 248.151 406.248 247.791L395.617 233.617C395.363 233.222 395.363 232.715 395.617 232.32Z" fill="white"/>
<path d="M320.506 272.296C320.207 290.412 319.508 319.309 317.562 351.599C334.181 331.636 350.501 308.03 351.449 290.312C352.797 265.957 338.972 264.46 320.506 272.296Z" fill="#E5AA33"/>
<path d="M342.615 280.73L322.652 247.542C322.652 247.542 267.754 287.118 238.259 311.623C223.686 285.97 198.782 239.506 193.342 221.789V221.789C196.351 216.332 198.489 210.438 199.68 204.322C199.71 204.207 199.71 204.087 199.68 203.972C199.68 203.972 199.68 203.523 199.68 203.323C199.702 203.024 199.702 202.724 199.68 202.425C199.68 201.726 199.68 201.177 199.68 200.728C199.68 192.693 196.336 187.752 197.784 177.571C198.782 170.434 190.647 172.88 189.05 177.571L188.401 181.763C186.355 176.773 174.028 147.477 169.336 146.828C164.645 146.179 167.59 154.065 170.484 161.8C171.732 165.244 172.68 167.939 173.479 170.335C166.591 171.932 160.503 183.71 159.554 188.651C158.606 193.591 171.083 221.14 174.527 226.131C174.793 226.465 175.114 226.751 175.475 226.98C178.02 241.652 200.429 327.693 215.8 348.255C225.482 360.981 237.859 359.983 245.096 353.246C262.863 341.917 317.462 304.386 342.615 280.73Z" fill="#FFAD69"/>
<path d="M376.303 247.542C374.307 284.174 306.432 347.007 306.432 347.007L268.603 285.122C268.603 285.122 379.996 180.915 376.303 247.542Z" fill="#FFC84D"/>
<path d="M355.342 156.86C353.845 165.643 351.649 174.377 359.884 173.728C368.118 173.079 370.214 159.405 370.364 156.81C371.063 142.836 358.287 139.492 355.342 156.86Z" fill="#FFAD69"/>
</svg>
