<svg width="22" height="22" viewBox="0 0 22 22" fill="none" xmlns="http://www.w3.org/2000/svg">
<path d="M21.0015 11.0082C20.9982 15.3106 18.2434 19.1287 14.1615 20.4882C14.0087 20.5353 13.8427 20.5095 13.7115 20.4182C13.5802 20.3227 13.5022 20.1705 13.5015 20.0082V17.3382C13.5231 16.6191 13.3504 15.9074 13.0015 15.2782C12.9487 15.1959 12.9487 15.0905 13.0015 15.0082C13.042 14.9323 13.1163 14.8804 13.2015 14.8682C15.6415 14.6182 17.0015 13.6482 17.0015 11.0082C17.0603 9.77557 16.633 8.56907 15.8115 7.64821C15.9313 7.25922 15.9953 6.85519 16.0015 6.44821C15.9972 6.08333 15.9468 5.72045 15.8515 5.36821C15.7886 5.13333 15.563 4.98009 15.3215 5.00821C14.4052 5.13826 13.5523 5.55073 12.8815 6.18821C11.6396 5.94827 10.3633 5.94827 9.12147 6.18821C8.45062 5.55073 7.59772 5.13826 6.68147 5.00821C6.43996 4.98009 6.21435 5.13333 6.15147 5.36821C6.05616 5.72045 6.00576 6.08333 6.00147 6.44821C6.00769 6.85519 6.07166 7.25922 6.19147 7.64821C5.36995 8.56907 4.94265 9.77557 5.00147 11.0082C5.00147 13.7882 6.51147 14.7182 9.28147 14.9482C8.93762 15.3988 8.70158 15.9222 8.59147 16.4782V16.4782C8.59147 16.4782 8.59147 16.5482 8.59147 16.5982C8.58666 16.6448 8.58666 16.6917 8.59147 16.7382C8.54986 17.0526 8.2672 17.2778 7.95147 17.2482V17.2482C7.80093 17.2411 7.65393 17.2001 7.52147 17.1282C6.97668 16.7964 6.49575 16.3697 6.10147 15.8682C5.85026 15.5834 5.58317 15.3129 5.30147 15.0582C5.12248 14.9033 4.92416 14.7722 4.71147 14.6682C4.56243 14.5845 4.38052 14.5845 4.23147 14.6682C4.08839 14.76 4.00176 14.9182 4.00147 15.0882V15.1482C4.00176 15.3182 4.08839 15.4764 4.23147 15.5682C4.59044 15.8687 4.90077 16.2229 5.15147 16.6182C5.57485 17.2816 6.1133 17.8641 6.74147 18.3382C7.15535 18.6157 7.64321 18.762 8.14147 18.7582H8.50147V20.0082C8.5007 20.1705 8.42272 20.3227 8.29147 20.4182C8.16021 20.5095 7.99426 20.5353 7.84147 20.4882C2.99352 18.8735 0.142714 13.8637 1.23084 8.87112C2.31897 3.87854 6.99597 0.509396 12.0762 1.05854C17.1563 1.60768 21.0054 5.89843 21.0015 11.0082Z" fill="#FFBA9D" stroke="#FFBA9D"/>
</svg>
