<svg width="12" height="20" viewBox="0 0 12 20" fill="none" xmlns="http://www.w3.org/2000/svg">
<path d="M10.5 4H7.5C6.94772 4 6.5 4.44772 6.5 5V8H10.5C10.6137 7.99748 10.7216 8.05039 10.7892 8.14188C10.8568 8.23336 10.8758 8.35201 10.84 8.46L10.1 10.66C10.0318 10.8619 9.84312 10.9984 9.63 11H6.5V18.5C6.5 18.7761 6.27614 19 6 19H3.5C3.22386 19 3 18.7761 3 18.5V11H1.5C1.22386 11 1 10.7761 1 10.5V8.5C1 8.22386 1.22386 8 1.5 8H3V5C3 2.79086 4.79086 1 7 1H10.5C10.7761 1 11 1.22386 11 1.5V3.5C11 3.77614 10.7761 4 10.5 4Z" fill="#FFBA9D" stroke="#FFBA9D"/>
</svg>
