<svg width="19" height="19" viewBox="0 0 19 19" fill="none" xmlns="http://www.w3.org/2000/svg">
<path fill-rule="evenodd" clip-rule="evenodd" d="M1 3C1 1.89543 1.89543 1 3 1C3.53043 1 4.03914 1.21071 4.41421 1.58579C4.78929 1.96086 5 2.46957 5 3C5 4.10457 4.10457 5 3 5C1.89543 5 1 4.10457 1 3ZM18.5 11.41C18.5345 9.24489 17.0574 7.34762 14.95 6.84999C13.5377 6.5459 12.0657 6.94466 11 7.91999V7.49999C11 7.22385 10.7761 6.99999 10.5 6.99999H8C7.72386 6.99999 7.5 7.22385 7.5 7.49999V17.5C7.5 17.7761 7.72386 18 8 18H10.5C10.7761 18 11 17.7761 11 17.5V11.86C10.9753 10.8557 11.6753 9.97867 12.66 9.77999C13.2464 9.67878 13.8473 9.8439 14.2997 10.2305C14.752 10.6171 15.0087 11.185 15 11.78V17.5C15 17.7761 15.2239 18 15.5 18H18C18.2761 18 18.5 17.7761 18.5 17.5V11.41ZM5 7.5V17.5C5 17.7761 4.77614 18 4.5 18H2C1.72386 18 1.5 17.7761 1.5 17.5V7.5C1.5 7.22386 1.72386 7 2 7H4.5C4.77614 7 5 7.22386 5 7.5Z" fill="#FFBA9D"/>
<path d="M4.41421 1.58579L4.06066 1.93934L4.06066 1.93934L4.41421 1.58579ZM14.95 6.84999L15.0649 6.36328L15.0553 6.3612L14.95 6.84999ZM18.5 11.41L18 11.402V11.41H18.5ZM11 7.91999H10.5V9.05541L11.3376 8.28884L11 7.91999ZM11 11.86L11.5002 11.86L11.4998 11.8477L11 11.86ZM12.66 9.77999L12.5749 9.28709L12.5611 9.28987L12.66 9.77999ZM14.2997 10.2305L14.6245 9.85041L14.6245 9.85041L14.2997 10.2305ZM15 11.78L14.5 11.7727V11.78H15ZM3 0.5C1.61929 0.5 0.5 1.61929 0.5 3H1.5C1.5 2.17157 2.17157 1.5 3 1.5V0.5ZM4.76777 1.23223C4.29893 0.763392 3.66304 0.5 3 0.5V1.5C3.39782 1.5 3.77936 1.65804 4.06066 1.93934L4.76777 1.23223ZM5.5 3C5.5 2.33696 5.23661 1.70107 4.76777 1.23223L4.06066 1.93934C4.34196 2.22064 4.5 2.60218 4.5 3H5.5ZM3 5.5C4.38071 5.5 5.5 4.38071 5.5 3H4.5C4.5 3.82843 3.82843 4.5 3 4.5V5.5ZM0.5 3C0.5 4.38071 1.61929 5.5 3 5.5V4.5C2.17157 4.5 1.5 3.82843 1.5 3H0.5ZM14.8351 7.33661C16.7139 7.78026 18.0308 9.47176 18.0001 11.402L18.9999 11.418C19.0381 9.01803 17.4009 6.91497 15.0649 6.36338L14.8351 7.33661ZM11.3376 8.28884C12.2838 7.42284 13.5908 7.06879 14.8447 7.33879L15.0553 6.3612C13.4847 6.02301 11.8476 6.46648 10.6624 7.55115L11.3376 8.28884ZM10.5 7.49999V7.91999H11.5V7.49999H10.5ZM10.5 7.49999V7.49999H11.5C11.5 6.94771 11.0523 6.49999 10.5 6.49999V7.49999ZM8 7.49999H10.5V6.49999H8V7.49999ZM8 7.49999V7.49999V6.49999C7.44772 6.49999 7 6.94771 7 7.49999H8ZM8 17.5V7.49999H7V17.5H8ZM8 17.5H7C7 18.0523 7.44771 18.5 8 18.5V17.5ZM10.5 17.5H8V18.5H10.5V17.5ZM10.5 17.5V18.5C11.0523 18.5 11.5 18.0523 11.5 17.5H10.5ZM10.5 11.86V17.5H11.5V11.86H10.5ZM12.5611 9.28987C11.3385 9.53653 10.4695 10.6254 10.5002 11.8723L11.4998 11.8477C11.4811 11.086 12.012 10.4208 12.7589 10.2701L12.5611 9.28987ZM14.6245 9.85041C14.0591 9.36716 13.3079 9.16076 12.5749 9.28728L12.7451 10.2727C13.1848 10.1968 13.6356 10.3206 13.9748 10.6106L14.6245 9.85041ZM15.4999 11.7873C15.5108 11.0436 15.1899 10.3337 14.6245 9.85041L13.9748 10.6106C14.314 10.9005 14.5066 11.3265 14.5001 11.7727L15.4999 11.7873ZM15.5 17.5V11.78H14.5V17.5H15.5ZM15.5 17.5H14.5C14.5 18.0523 14.9477 18.5 15.5 18.5V17.5ZM18 17.5H15.5V18.5H18V17.5ZM18 17.5V18.5C18.5523 18.5 19 18.0523 19 17.5H18ZM18 11.41V17.5H19V11.41H18ZM5.5 17.5V7.5H4.5V17.5H5.5ZM4.5 18.5C5.05228 18.5 5.5 18.0523 5.5 17.5H4.5V18.5ZM2 18.5H4.5V17.5H2V18.5ZM1 17.5C1 18.0523 1.44772 18.5 2 18.5V17.5H1ZM1 7.5V17.5H2V7.5H1ZM2 6.5C1.44772 6.5 1 6.94771 1 7.5H2V6.5ZM4.5 6.5H2V7.5H4.5V6.5ZM5.5 7.5C5.5 6.94771 5.05228 6.5 4.5 6.5V7.5H5.5Z" fill="#FFBA9D"/>
</svg>
