<svg width="14" height="16" viewBox="0 0 14 16" fill="none" xmlns="http://www.w3.org/2000/svg">
<path d="M13.5 0.999944H9.75L9.45625 0.415569C9.39402 0.290636 9.29817 0.185545 9.17947 0.112119C9.06078 0.0386926 8.92395 -0.000155659 8.78438 -5.55562e-05H5.2125C5.07324 -0.000590885 4.93665 0.0381126 4.81838 0.111621C4.7001 0.185129 4.60492 0.290468 4.54375 0.415569L4.25 0.999944H0.5C0.367392 0.999944 0.240215 1.05262 0.146447 1.14639C0.0526784 1.24016 0 1.36734 0 1.49994L0 2.49994C0 2.63255 0.0526784 2.75973 0.146447 2.8535C0.240215 2.94727 0.367392 2.99994 0.5 2.99994H13.5C13.6326 2.99994 13.7598 2.94727 13.8536 2.8535C13.9473 2.75973 14 2.63255 14 2.49994V1.49994C14 1.36734 13.9473 1.24016 13.8536 1.14639C13.7598 1.05262 13.6326 0.999944 13.5 0.999944ZM1.6625 14.5937C1.68635 14.9745 1.85443 15.3319 2.13252 15.5932C2.41061 15.8544 2.77781 15.9999 3.15937 15.9999H10.8406C11.2222 15.9999 11.5894 15.8544 11.8675 15.5932C12.1456 15.3319 12.3137 14.9745 12.3375 14.5937L13 3.99994H1L1.6625 14.5937Z" fill="#A30000"/>
</svg>
