<svg width="21" height="22" viewBox="0 0 21 22" fill="none" xmlns="http://www.w3.org/2000/svg">
<path d="M10.5 0C4.6996 0 0 4.76953 0 10.6562C0 16.543 4.6996 21.3125 10.5 21.3125C16.3004 21.3125 21 16.543 21 10.6562C21 4.76953 16.3004 0 10.5 0ZM10.5 19.25C5.83004 19.25 2.03226 15.3957 2.03226 10.6562C2.03226 5.9168 5.83004 2.0625 10.5 2.0625C15.17 2.0625 18.9677 5.9168 18.9677 10.6562C18.9677 15.3957 15.17 19.25 10.5 19.25ZM14.0565 13.0883C13.1758 14.1625 11.876 14.7812 10.5 14.7812C9.12399 14.7812 7.82419 14.1668 6.94355 13.0883C6.58367 12.65 5.94436 12.5941 5.5125 12.9551C5.08065 13.3203 5.0256 13.9691 5.38125 14.4074C6.65141 15.9543 8.51855 16.8395 10.5 16.8395C12.4815 16.8395 14.3486 15.9543 15.6187 14.4074C15.9786 13.9691 15.9194 13.3203 15.4875 12.9551C15.0556 12.5941 14.4163 12.65 14.0565 13.0883ZM5.77923 8.72266C6.10524 8.13398 6.59214 7.79453 7.1129 7.79453C7.63367 7.79453 8.12056 8.13398 8.44657 8.72266L8.84879 9.45312C8.9377 9.61211 9.11129 9.65508 9.24254 9.61211C9.39496 9.56484 9.49657 9.41875 9.48387 9.25547C9.34415 7.44648 8.12056 6.1875 7.1129 6.1875C6.10524 6.1875 4.88165 7.44648 4.74194 9.25547C4.72923 9.41445 4.83085 9.56484 4.98327 9.61211C5.12722 9.65938 5.29657 9.59062 5.37702 9.45312L5.77923 8.72266ZM13.8871 6.1875C12.8794 6.1875 11.6558 7.44648 11.5161 9.25547C11.5034 9.41445 11.605 9.56484 11.7575 9.61211C11.9056 9.65938 12.0708 9.59062 12.1512 9.45312L12.5534 8.72266C12.8794 8.13398 13.3663 7.79453 13.8871 7.79453C14.4079 7.79453 14.8948 8.13398 15.2208 8.72266L15.623 9.45312C15.7119 9.61211 15.8855 9.65508 16.0167 9.61211C16.1692 9.56484 16.2708 9.41875 16.2581 9.25547C16.1183 7.44648 14.8948 6.1875 13.8871 6.1875Z" fill="#474747"/>
</svg>
