<svg width="21" height="22" viewBox="0 0 21 22" fill="none" xmlns="http://www.w3.org/2000/svg">
<path d="M10.5 0C4.6996 0 0 4.76953 0 10.6562C0 16.543 4.6996 21.3125 10.5 21.3125C16.3004 21.3125 21 16.543 21 10.6562C21 4.76953 16.3004 0 10.5 0ZM10.5 19.25C5.83004 19.25 2.03226 15.3957 2.03226 10.6562C2.03226 5.9168 5.83004 2.0625 10.5 2.0625C15.17 2.0625 18.9677 5.9168 18.9677 10.6562C18.9677 15.3957 15.17 19.25 10.5 19.25ZM7.1129 9.96875C7.8623 9.96875 8.46774 9.3543 8.46774 8.59375C8.46774 7.8332 7.8623 7.21875 7.1129 7.21875C6.36351 7.21875 5.75806 7.8332 5.75806 8.59375C5.75806 9.3543 6.36351 9.96875 7.1129 9.96875ZM13.8871 9.96875C14.6365 9.96875 15.2419 9.3543 15.2419 8.59375C15.2419 7.8332 14.6365 7.21875 13.8871 7.21875C13.1377 7.21875 12.5323 7.8332 12.5323 8.59375C12.5323 9.3543 13.1377 9.96875 13.8871 9.96875ZM14.0565 13.0883C13.1758 14.1625 11.876 14.7812 10.5 14.7812C9.12399 14.7812 7.82419 14.1668 6.94355 13.0883C6.58367 12.65 5.94012 12.5941 5.5125 12.9551C5.08065 13.3203 5.0256 13.9691 5.38125 14.4074C6.65141 15.9543 8.51855 16.8395 10.5 16.8395C12.4815 16.8395 14.3486 15.9543 15.6187 14.4074C15.9786 13.9691 15.9194 13.3203 15.4875 12.9551C15.0599 12.5941 14.4163 12.65 14.0565 13.0883Z" fill="#474747"/>
</svg>
