<svg width="21" height="22" viewBox="0 0 21 22" fill="none" xmlns="http://www.w3.org/2000/svg">
<path d="M10.5 0C4.6996 0 0 4.76953 0 10.6562C0 16.543 4.6996 21.3125 10.5 21.3125C16.3004 21.3125 21 16.543 21 10.6562C21 4.76953 16.3004 0 10.5 0ZM10.5 19.25C5.83004 19.25 2.03226 15.3957 2.03226 10.6562C2.03226 5.9168 5.83004 2.0625 10.5 2.0625C15.17 2.0625 18.9677 5.9168 18.9677 10.6562C18.9677 15.3957 15.17 19.25 10.5 19.25ZM7.1129 9.96875C7.8623 9.96875 8.46774 9.3543 8.46774 8.59375C8.46774 7.8332 7.8623 7.21875 7.1129 7.21875C6.36351 7.21875 5.75806 7.8332 5.75806 8.59375C5.75806 9.3543 6.36351 9.96875 7.1129 9.96875ZM13.8871 7.21875C13.1377 7.21875 12.5323 7.8332 12.5323 8.59375C12.5323 9.3543 13.1377 9.96875 13.8871 9.96875C14.6365 9.96875 15.2419 9.3543 15.2419 8.59375C15.2419 7.8332 14.6365 7.21875 13.8871 7.21875ZM10.5 12.7188C8.79798 12.7188 7.19758 13.4793 6.10524 14.807C5.74536 15.2453 5.80464 15.8941 6.23649 16.2594C6.66835 16.6203 7.30766 16.5645 7.66754 16.1262C8.37036 15.2711 9.40343 14.777 10.5 14.777C11.5966 14.777 12.6296 15.2668 13.3325 16.1262C13.6754 16.543 14.3105 16.6375 14.7635 16.2594C15.1954 15.8941 15.2504 15.2453 14.8948 14.807C13.8024 13.4793 12.202 12.7188 10.5 12.7188Z" fill="#474747"/>
</svg>
